{
.appVersion = "1172";
classes = (
{
code = "uni064D uni0650 uni0655 uni0656 uni06550650 uni0655064D";
name = calt1;
},
{
code = "uniFE91 uniFE92 uniFE9F uniFEA0 uniFEF3 uniFEF4 uniFB58 uniFB59 uniFB7C uniFB7D uniFBA8 uniFBA9 uniFBFE uniFBFF";
name = calt2;
},
{
code = "uniFE8B uniFE8C uniFE91 uniFE92 uniFE97 uniFE98 uniFE9B uniFE9C uniFE9F uniFEA0 uniFEA3 uniFEA4 uniFEA7 uniFEA8 uniFEB3 uniFEB4 uniFEB7 uniFEB8 uniFEBB uniFEBC uniFEBF uniFEC0 uniFEC3 uniFEC4 uniFEC7 uniFEC8 uniFECB uniFECC uniFECF uniFED0 uniFED3 uniFED4 uniFED7 uniFED8 uniFEDB uniFEDC uniFEDF uniFEE0 uniFEE3 uniFEE4 uniFEE7 uniFEE8 uniFEEB uniFEEC uniFBE8 uniFBE9 uniFEF3 uniFEF4 uniFB68 uniFB69 uniFB58 uniFB59 uniFB7C uniFB7D uniFB6C uniFB6D uniFB90 uniFB91 uniFB94 uniFB95 uniFBAC uniFBAD uniFBA8 uniFBA9 uniFBFE uniFBFF";
name = calt3;
},
{
code = "uni064B uni064C uni064D uni064E uni064F uni0650 uni0651 uni0652 uni0653 uni0654 uni0655 uni0670 uni0656 uni0658 uni0615 uni064C0651 uni064D0651 uni064B0651 uni064E0651 uni064F0651 uni06500651 uni06510670 uni06540651 uni0654064E uni0654064C uni0654064F uni06540652 uni06550650 uni0655064D";
name = class0;
},
{

glyphs = (
{
glyphname = exclam;
lastChange = "2018-10-27 09:40:54 +0000";
layers = (
{
background = {
paths = (
{
closed = 1;
nodes = (
"227 196 LINE",
"227 724 LINE",
"148 724 LINE",
"148 196 LINE"
);
},
{
closed = 1;
nodes = (
"239 0 LINE",
"239 104 LINE",
"135 104 LINE",
"135 0 LINE"
);
}
);
};
hints = (
{
place = "{148, 79}";
type = Stem;
},
{
horizontal = 1;
place = "{0, 104}";
type = Stem;
},
{
horizontal = 1;
place = "{724, -20}";
target = down;
type = TopGhost;
}
);
layerId = UUID0;
paths = (
{
closed = 1;
nodes = (
"227 196 LINE",
"227 724 LINE",
"148 724 LINE",
"148 196 LINE"
);
},
{
closed = 1;
nodes = (
"239 0 LINE",
"239 104 LINE",
"135 104 LINE",
"135 0 LINE"
);
}
);
width = 350;
}
);
unicode = 0021;
},
{
glyphname = quotedbl;
lastChange = "2018-10-27 09:40:54 +0000";
layers = (
{
background = {
paths = (
{
closed = 1;
nodes = (
"205 526 LINE",
"205 724 LINE",
"127 724 LINE",
"127 526 LINE"
);
},
{
closed = 1;
nodes = (
"353 526 LINE",
"353 724 LINE",
"277 724 LINE",
"277 526 LINE"
);
}
);
};
hints = (
{
place = "{127, 78}";
type = Stem;
},
{
place = "{277, 76}";
type = Stem;
},
{
horizontal = 1;
place = "{526, 198}";
type = Stem;
}
);
layerId = UUID0;
paths = (
{
closed = 1;
nodes = (
"205 526 LINE",
"205 724 LINE",
"127 724 LINE",
"127 526 LINE"
);
},
{
closed = 1;
nodes = (
"353 526 LINE",
"353 724 LINE",
"277 724 LINE",
"277 526 LINE"
);
}
);
width = 450;
}
);
unicode = 0022;
},
{
glyphname = numbersign;
lastChange = "2018-10-27 09:40:54 +0000";
layers = (
{
background = {
paths = (
{
closed = 1;
nodes = (
"602 423 LINE",
"602 492 LINE",
"501 492 LINE",
"532 682 LINE",
"462 682 LINE",
"452 622 OFFCURVE",
"438 552 OFFCURVE",
"429 492 CURVE",
"303 492 LINE",
"333 682 LINE",
"260 682 LINE",
"249 622 OFFCURVE",
"236 552 OFFCURVE",
"226 492 CURVE",
"126 492 LINE",
"126 423 LINE",
"218 423 LINE",
"197 296 LINE",
"95 296 LINE",
"95 227 LINE",
"186 227 LINE",
"152 20 LINE",
"224 20 LINE",
"260 227 LINE",
"385 227 LINE",
"355 20 LINE",
"427 20 LINE",
"438 87 OFFCURVE",
"449 161 OFFCURVE",
"460 227 CURVE",
"572 227 LINE",
"572 296 LINE",
"470 296 LINE",
"491 423 LINE"
);
},
{
closed = 1;
nodes = (
"419 423 LINE",
"398 296 LINE",
"269 296 LINE",
"291 423 LINE"
);
}
);
};
hints = (
{
horizontal = 1;
place = "{227, 69}";
type = Stem;
},
{
horizontal = 1;
place = "{423, 69}";
type = Stem;
},
{
horizontal = 1;
place = "{682, -20}";
target = down;
type = TopGhost;
},
{
horizontal = 1;
place = "{21, 21}";
target = up;
type = BottomGhost;
}
);
layerId = UUID0;
paths = (
{
closed = 1;
nodes = (
"602 423 LINE",
"602 492 LINE",
"501 492 LINE",
"532 682 LINE",
"462 682 LINE",
"452 622 OFFCURVE",
"438 552 OFFCURVE",
"429 492 CURVE",
"303 492 LINE",
"333 682 LINE",
"260 682 LINE",
"249 622 OFFCURVE",
"236 552 OFFCURVE",
"226 492 CURVE",
"126 492 LINE",
"126 423 LINE",
"218 423 LINE",
"197 296 LINE",
"95 296 LINE",
"95 227 LINE",
"186 227 LINE",
"152 20 LINE",
"224 20 LINE",
"260 227 LINE",
"385 227 LINE",
"355 20 LINE",
"427 20 LINE",
"460 227 LINE",
"572 227 LINE",
"572 296 LINE",
"470 296 LINE",
"491 423 LINE"
);
},
{
closed = 1;
nodes = (
"419 423 LINE",
"398 296 LINE",
"269 296 LINE",
"291 423 LINE"
);
}
);
width = 600;
}
);
unicode = 0023;
},
{
glyphname = dollar;
lastChange = "2018-10-27 09:40:54 +0000";
layers = (
{
background = {
paths = (
{
closed = 1;
nodes = (
"322 -73 LINE",
"322 -9 LINE",
"436 2 OFFCURVE",
"521 81 OFFCURVE",
"521 186 CURVE SMOOTH",
"521 266 OFFCURVE",
"482 332 OFFCURVE",
"409 371 CURVE",
"410 371 LINE",
"390 380 LINE",
"370 391 OFFCURVE",
"344 405 OFFCURVE",
"322 416 CURVE",
"322 651 LINE",
"382 640 OFFCURVE",
"425 603 OFFCURVE",
"430 549 CURVE",
"511 549 LINE",
"507 647 OFFCURVE",
"432 718 OFFCURVE",
"322 729 CURVE",
"322 798 LINE",
"291 798 LINE",
"291 730 LINE",
"180 720 OFFCURVE",
"105 648 OFFCURVE",
"105 547 CURVE SMOOTH",
"105 479 OFFCURVE",
"148 415 OFFCURVE",
"200 387 CURVE SMOOTH",
"227 373 OFFCURVE",
"265 353 OFFCURVE",
"291 341 CURVE",
"291 69 LINE",
"226 77 OFFCURVE",
"179 117 OFFCURVE",
"173 175 CURVE",
"92 175 LINE",
"96 75 OFFCURVE",
"173 -1 OFFCURVE",
"291 -10 CURVE",
"291 -73 LINE"
);
},
{
closed = 1;
nodes = (
"371 298 LINE",
"410 275 OFFCURVE",
"440 240 OFFCURVE",
"440 188 CURVE SMOOTH",
"440 128 OFFCURVE",
"396 81 OFFCURVE",
"322 69 CURVE",
"322 325 LINE"
);
},
{
closed = 1;
nodes = (
"207 474 OFFCURVE",
"187 506 OFFCURVE",
"187 545 CURVE SMOOTH",
"187 605 OFFCURVE",
"229 640 OFFCURVE",
"291 651 CURVE",
"291 432 LINE",
"260 446 OFFCURVE",
"253 449 OFFCURVE",
"247 453 CURVE SMOOTH"
);
}
);
};
hints = (
{
place = "{92, 81}";
type = Stem;
},
{
place = "{105, 82}";
type = Stem;
},
{
place = "{291, 31}";
type = Stem;
},
{
place = "{440, 81}";
type = Stem;
},
{
horizontal = 1;
place = "{-9, 184}";
type = Stem;
},
{
horizontal = 1;
place = "{-72, 21}";
target = up;
type = BottomGhost;
},
{
horizontal = 1;
place = "{529, -20}";
target = down;
type = TopGhost;
},
{
horizontal = 1;
place = "{798, -20}";
target = down;
type = TopGhost;
}
);
layerId = UUID0;
paths = (
{
closed = 1;
nodes = (
"322 -73 LINE",
"322 -9 LINE",
"436 2 OFFCURVE",
"521 81 OFFCURVE",
"521 186 CURVE SMOOTH",
"521 266 OFFCURVE",
"482 332 OFFCURVE",
"409 371 CURVE",
"410 371 LINE",
"390 380 LINE",
"370 391 OFFCURVE",
"344 405 OFFCURVE",
"322 416 CURVE",
"322 651 LINE",
"382 640 OFFCURVE",
"425 603 OFFCURVE",
"430 549 CURVE",
"511 549 LINE",
"507 647 OFFCURVE",
"432 718 OFFCURVE",
"322 729 CURVE",
"322 798 LINE",
"291 798 LINE",
"291 730 LINE",
"180 720 OFFCURVE",
"105 648 OFFCURVE",
"105 547 CURVE SMOOTH",
"105 479 OFFCURVE",
"148 415 OFFCURVE",
"200 387 CURVE SMOOTH",
"227 373 OFFCURVE",
"265 353 OFFCURVE",
"291 341 CURVE",
"291 69 LINE",
"226 77 OFFCURVE",
"179 117 OFFCURVE",
"173 175 CURVE",
"92 175 LINE",
"96 75 OFFCURVE",
"173 -1 OFFCURVE",
"291 -10 CURVE",
"291 -73 LINE"
);
},
{
closed = 1;
nodes = (
"371 298 LINE",
"410 275 OFFCURVE",
"440 240 OFFCURVE",
"440 188 CURVE SMOOTH",
"440 128 OFFCURVE",
"396 81 OFFCURVE",
"322 69 CURVE",
"322 325 LINE"
);
},
{
closed = 1;
nodes = (
"207 474 OFFCURVE",
"187 506 OFFCURVE",
"187 545 CURVE SMOOTH",
"187 605 OFFCURVE",
"229 640 OFFCURVE",
"291 651 CURVE",
"291 432 LINE",
"260 446 OFFCURVE",
"253 449 OFFCURVE",
"247 453 CURVE SMOOTH"
);
}
);
width = 600;
}
);
unicode = 0024;
},
{
glyphname = percent;
lastChange = "2018-10-27 09:40:54 +0000";
layers = (
{
background = {
paths = (
{
closed = 1;
nodes = (
"761 242 LINE",
"761 322 OFFCURVE",
"713 370 OFFCURVE",
"633 370 CURVE SMOOTH",
"553 370 OFFCURVE",
"509 321 OFFCURVE",
"509 242 CURVE",
"509 122 LINE",
"509 43 OFFCURVE",
"553 -5 OFFCURVE",
"633 -5 CURVE SMOOTH",
"712 -5 OFFCURVE",
"761 45 OFFCURVE",
"761 122 CURVE"
);
},
{
closed = 1;
nodes = (
"703 117 LINE",
"703 79 OFFCURVE",
"675 50 OFFCURVE",
"634 50 CURVE SMOOTH",
"578 50 OFFCURVE",
"567 88 OFFCURVE",
"567 117 CURVE",
"567 249 LINE",
"567 287 OFFCURVE",
"593 314 OFFCURVE",
"634 314 CURVE SMOOTH",
"686 314 OFFCURVE",
"703 277 OFFCURVE",
"703 249 CURVE"
);
},
{
closed = 1;
nodes = (
"320 608 LINE",
"320 687 OFFCURVE",
"272 735 OFFCURVE",
"193 735 CURVE SMOOTH",
"112 735 OFFCURVE",
"68 686 OFFCURVE",
"68 608 CURVE",
"68 488 LINE",
"68 408 OFFCURVE",
"112 360 OFFCURVE",
"193 360 CURVE SMOOTH",
"271 360 OFFCURVE",
"320 411 OFFCURVE",
"320 488 CURVE"
);
},
{
closed = 1;
nodes = (
"263 483 LINE",
"263 445 OFFCURVE",
"234 416 OFFCURVE",
"194 416 CURVE SMOOTH",
"137 416 OFFCURVE",
"126 453 OFFCURVE",
"126 483 CURVE",
"126 614 LINE",
"126 653 OFFCURVE",
"152 680 OFFCURVE",
"194 680 CURVE SMOOTH",
"245 680 OFFCURVE",
"263 642 OFFCURVE",
"263 614 CURVE"
);
},
{
closed = 1;
nodes = (
"597 724 LINE",
"538 724 LINE",
"208 1 LINE",
"268 1 LINE"
);
}
);
};
hints = (
{
place = "{68, 58}";
type = Stem;
},
{
place = "{263, 57}";
type = Stem;
},
{
place = "{509, 58}";
type = Stem;
},
{
place = "{703, 58}";
type = Stem;
},
{
horizontal = 1;
place = "{-5, 55}";
type = Stem;
},
{
horizontal = 1;
place = "{314, 56}";
type = Stem;
},
{
horizontal = 1;
place = "{360, 56}";
type = Stem;
},
{
horizontal = 1;
place = "{724, -20}";
target = down;
type = TopGhost;
}
);
layerId = UUID0;
paths = (
{
closed = 1;
nodes = (
"761 242 LINE",
"761 322 OFFCURVE",
"713 370 OFFCURVE",
"633 370 CURVE SMOOTH",
"553 370 OFFCURVE",
"509 321 OFFCURVE",
"509 242 CURVE",
"509 122 LINE",
"509 43 OFFCURVE",
"553 -5 OFFCURVE",
"633 -5 CURVE SMOOTH",
"712 -5 OFFCURVE",
"761 45 OFFCURVE",
"761 122 CURVE"
);
},
{
closed = 1;
nodes = (
"703 117 LINE",
"703 79 OFFCURVE",
"675 50 OFFCURVE",
"634 50 CURVE SMOOTH",
"578 50 OFFCURVE",
"567 88 OFFCURVE",
"567 117 CURVE",
"567 249 LINE",
"567 287 OFFCURVE",
"593 314 OFFCURVE",
"634 314 CURVE SMOOTH",
"686 314 OFFCURVE",
"703 277 OFFCURVE",
"703 249 CURVE"
);
},
{
closed = 1;
nodes = (
"320 608 LINE",
"320 687 OFFCURVE",
"272 735 OFFCURVE",
"193 735 CURVE SMOOTH",
"112 735 OFFCURVE",
"68 686 OFFCURVE",
"68 608 CURVE",
"68 488 LINE",
"68 408 OFFCURVE",
"112 360 OFFCURVE",
"193 360 CURVE SMOOTH",
"271 360 OFFCURVE",
"320 411 OFFCURVE",
"320 488 CURVE"
);
},
{
closed = 1;
nodes = (
"263 483 LINE",
"263 445 OFFCURVE",
"234 416 OFFCURVE",
"194 416 CURVE SMOOTH",
"137 416 OFFCURVE",
"126 453 OFFCURVE",
"126 483 CURVE",
"126 614 LINE",
"126 653 OFFCURVE",
"152 680 OFFCURVE",
"194 680 CURVE SMOOTH",
"245 680 OFFCURVE",
"263 642 OFFCURVE",
"263 614 CURVE"
);
},
{
closed = 1;
nodes = (
"597 724 LINE",
"538 724 LINE",
"208 1 LINE",
"268 1 LINE"
);
}
);
width = 800;
}
);
unicode = 0025;
},
{
glyphname = ampersand;
lastChange = "2018-10-27 09:40:54 +0000";
layers = (
{
background = {
paths = (
{
closed = 1;
nodes = (
"560 169 LINE",
"385 315 LINE",
"214 460 LINE",
"182 487 OFFCURVE",
"163 504 OFFCURVE",
"163 552 CURVE SMOOTH",
"163 635 OFFCURVE",
"221 652 OFFCURVE",
"275 652 CURVE SMOOTH",
"346 652 OFFCURVE",
"398 610 OFFCURVE",
"400 534 CURVE",
"479 534 LINE",
"471 649 OFFCURVE",
"383 729 OFFCURVE",
"275 729 CURVE SMOOTH",
"194 729 OFFCURVE",
"84 684 OFFCURVE",
"84 554 CURVE SMOOTH",
"84 502 OFFCURVE",
"105 459 OFFCURVE",
"164 405 CURVE",
"164 405 OFFCURVE",
"163 405 OFFCURVE",
"163 406 CURVE SMOOTH",
"163 405 OFFCURVE",
"164 404 OFFCURVE",
"167 402 CURVE",
"176 395 LINE",
"176 395 OFFCURVE",
"173 398 OFFCURVE",
"169 401 CURVE SMOOTH",
"172 400 OFFCURVE",
"176 397 OFFCURVE",
"184 394 CURVE",
"105 347 OFFCURVE",
"52 280 OFFCURVE",
"52 198 CURVE SMOOTH",
"52 45 OFFCURVE",
"168 -9 OFFCURVE",
"267 -9 CURVE SMOOTH",
"346 -9 OFFCURVE",
"437 36 OFFCURVE",
"474 139 CURVE",
"510 108 LINE"
);
},
{
closed = 1;
nodes = (
"205 69 OFFCURVE",
"131 96 OFFCURVE",
"131 197 CURVE SMOOTH",
"131 249 OFFCURVE",
"156 290 OFFCURVE",
"203 321 CURVE",
"202 321 LINE",
"212 327 OFFCURVE",
"224 332 OFFCURVE",
"239 340 CURVE",
"265 317 OFFCURVE",
"294 290 OFFCURVE",
"320 268 CURVE",
"403 200 LINE",
"401 97 OFFCURVE",
"328 69 OFFCURVE",
"267 69 CURVE SMOOTH"
);
}
);
};
hints = (
{
place = "{52, 79}";
type = Stem;
},
{
place = "{400, 79}";
type = Stem;
},
{
horizontal = 1;
place = "{0, 69}";
type = Stem;
},
{
horizontal = 1;
place = "{647, 77}";
type = Stem;
}
);
layerId = UUID0;
paths = (
{
closed = 1;
nodes = (
"560 169 LINE",
"385 315 LINE",
"214 460 LINE SMOOTH",
"182 487 OFFCURVE",
"163 504 OFFCURVE",
"163 552 CURVE SMOOTH",
"163 635 OFFCURVE",
"221 652 OFFCURVE",
"275 652 CURVE SMOOTH",
"346 652 OFFCURVE",
"398 610 OFFCURVE",
"400 534 CURVE",
"479 534 LINE",
"471 649 OFFCURVE",
"383 729 OFFCURVE",
"275 729 CURVE SMOOTH",
"194 729 OFFCURVE",
"84 684 OFFCURVE",
"84 554 CURVE SMOOTH",
"84 502 OFFCURVE",
"105 459 OFFCURVE",
"163 406 CURVE",
"163 405 LINE",
"163 406 LINE",
"163 405 OFFCURVE",
"163 405 OFFCURVE",
"164 405 CURVE",
"163 405 LINE",
"167 402 LINE",
"176 395 LINE",
"176 395 OFFCURVE",
"173 398 OFFCURVE",
"169 401 CURVE SMOOTH",
"172 400 OFFCURVE",
"176 397 OFFCURVE",
"184 394 CURVE",
"105 347 OFFCURVE",
"52 280 OFFCURVE",
"52 198 CURVE SMOOTH",
"52 45 OFFCURVE",
"168 -9 OFFCURVE",
"267 -9 CURVE SMOOTH",
"346 -9 OFFCURVE",
"437 36 OFFCURVE",
"474 139 CURVE",
"510 108 LINE"
);
},
{
closed = 1;
nodes = (
"205 69 OFFCURVE",
"131 96 OFFCURVE",
"131 197 CURVE SMOOTH",
"131 249 OFFCURVE",
"156 290 OFFCURVE",
"203 321 CURVE",
"202 321 LINE",
"212 327 OFFCURVE",
"224 332 OFFCURVE",
"239 340 CURVE",
"265 317 OFFCURVE",
"294 290 OFFCURVE",
"320 268 CURVE SMOOTH",
"403 200 LINE",
"401 97 OFFCURVE",
"328 69 OFFCURVE",
"267 69 CURVE SMOOTH"
);
}
);
width = 600;
}
);
unicode = 0026;
},
{
glyphname = quotesingle;
lastChange = "2018-10-27 09:40:54 +0000";
layers = (
{
background = {
paths = (
{
closed = 1;
nodes = (
"218 528 LINE",
"218 724 LINE",
"139 724 LINE",
"139 528 LINE"
);
}
);
};
hints = (
{
place = "{139, 79}";
type = Stem;
},
{
horizontal = 1;
place = "{528, 196}";
type = Stem;
}
);
layerId = UUID0;
paths = (
{
closed = 1;
nodes = (
"218 528 LINE",
"218 724 LINE",
"139 724 LINE",
"139 528 LINE"
);
}
);
width = 350;
}
);
unicode = 0027;
},
{
glyphname = parenleft;
lastChange = "2018-10-27 09:40:54 +0000";
layers = (
{
background = {
paths = (
{
closed = 1;
nodes = (
"325 826 LINE",
"198 682 OFFCURVE",
"143 517 OFFCURVE",
"143 340 CURVE SMOOTH",
"143 163 OFFCURVE",
"196 -3 OFFCURVE",
"325 -147 CURVE",
"346 -130 OFFCURVE",
"360 -115 OFFCURVE",
"382 -96 CURVE",
"267 42 OFFCURVE",
"222 175 OFFCURVE",
"222 340 CURVE SMOOTH",
"222 502 OFFCURVE",
"268 636 OFFCURVE",
"383 775 CURVE"
);
}
);
};
hints = (
{
place = "{173, 116}";
type = Stem;
},
{
horizontal = 1;
place = "{786, -20}";
target = down;
type = TopGhost;
},
{
horizontal = 1;
place = "{-87, 21}";
target = up;
type = BottomGhost;
}
);
layerId = UUID0;
paths = (
{
closed = 1;
nodes = (
"325 826 LINE",
"198 682 OFFCURVE",
"143 517 OFFCURVE",
"143 340 CURVE SMOOTH",
"143 163 OFFCURVE",
"196 -3 OFFCURVE",
"325 -147 CURVE",
"346 -130 OFFCURVE",
"360 -115 OFFCURVE",
"382 -96 CURVE",
"267 42 OFFCURVE",
"222 175 OFFCURVE",
"222 340 CURVE SMOOTH",
"222 502 OFFCURVE",
"268 636 OFFCURVE",
"383 775 CURVE"
);
}
);
width = 500;
}
);
unicode = 0028;
},
{
glyphname = asterisk;
lastChange = "2018-10-27 09:40:54 +0000";
layers = (
{
background = {
paths = (
{
closed = 1;
nodes = (
"331 366 LINE",
"351 379 OFFCURVE",
"364 391 OFFCURVE",
"385 405 CURVE",
"241 593 LINE",
"224 581 OFFCURVE",
"214 571 OFFCURVE",
"196 559 CURVE"
);
},
{
closed = 1;
nodes = (
"118 407 LINE",
"138 394 OFFCURVE",
"151 382 OFFCURVE",
"172 368 CURVE",
"219 435 OFFCURVE",
"260 494 OFFCURVE",
"307 562 CURVE",
"291 574 OFFCURVE",
"280 583 OFFCURVE",
"262 595 CURVE"
);
},
{
closed = 1;
nodes = (
"91 622 LINE",
"83 601 OFFCURVE",
"78 581 OFFCURVE",
"70 558 CURVE",
"295 489 LINE",
"302 507 OFFCURVE",
"308 523 OFFCURVE",
"314 543 CURVE"
);
},
{
closed = 1;
nodes = (
"434 557 LINE",
"426 580 OFFCURVE",
"422 595 OFFCURVE",
"413 619 CURVE",
"337 593 OFFCURVE",
"267 568 OFFCURVE",
"190 542 CURVE",
"196 522 OFFCURVE",
"202 510 OFFCURVE",
"209 488 CURVE"
);
},
{
closed = 1;
nodes = (
"288 712 LINE",
"220 712 LINE",
"221 631 OFFCURVE",
"224 559 OFFCURVE",
"225 476 CURVE",
"282 476 LINE"
);
}
);
};
hints = (
{
place = "{220, 68}";
type = Stem;
},
{
horizontal = 1;
place = "{712, -20}";
target = down;
type = TopGhost;
},
{
horizontal = 1;
place = "{385, 21}";
target = up;
type = BottomGhost;
}
);
layerId = UUID0;
paths = (
{
closed = 1;
nodes = (
"434 557 LINE",
"426 580 OFFCURVE",
"422 595 OFFCURVE",
"413 619 CURVE",
"289 576 LINE",
"284 579 LINE",
"288 712 LINE",
"220 712 LINE",
"220 666 OFFCURVE",
"222 623 OFFCURVE",
"223 579 CURVE",
"219 576 LINE",
"91 622 LINE",
"83 601 OFFCURVE",
"78 581 OFFCURVE",
"70 558 CURVE",
"197 519 LINE",
"200 514 LINE",
"118 407 LINE",
"138 394 OFFCURVE",
"151 382 OFFCURVE",
"172 368 CURVE",
"198 405 OFFCURVE",
"223 440 OFFCURVE",
"247 476 CURVE",
"254 476 LINE",
"331 366 LINE",
"351 379 OFFCURVE",
"364 391 OFFCURVE",
"385 405 CURVE",
"303 511 LINE",
"306 517 LINE"
);
}
);
width = 500;
}
);
unicode = 002A;
},
{
glyphname = plus;
lastChange = "2018-10-27 09:40:54 +0000";
layers = (
{
background = {
paths = (
{
closed = 1;
nodes = (
"514 247 LINE",
"514 320 LINE",
"341 320 LINE",
"341 486 LINE",
"267 486 LINE",
"267 320 LINE",
"96 320 LINE",
"96 247 LINE",
"267 247 LINE",
"267 69 LINE",
"341 69 LINE",
"341 247 LINE"
);
}
);
};
hints = (
{
place = "{267, 74}";
type = Stem;
},
{
horizontal = 1;
place = "{247, 73}";
type = Stem;
},
{
horizontal = 1;
place = "{486, -20}";
target = down;
type = TopGhost;
},
{
horizontal = 1;
place = "{70, 21}";
target = up;
type = BottomGhost;
}
);
layerId = UUID0;
paths = (
{
closed = 1;
nodes = (
"514 247 LINE",
"514 320 LINE",
"341 320 LINE",
"341 486 LINE",
"267 486 LINE",
"267 320 LINE",
"96 320 LINE",
"96 247 LINE",
"267 247 LINE",
"267 69 LINE",
"341 69 LINE",
"341 247 LINE"
);
}
);
width = 600;
}
);
unicode = 002B;
},
{
glyphname = comma;
lastChange = "2018-10-27 09:40:54 +0000";
layers = (
{
background = {
paths = (
{
closed = 1;
nodes = (
"265 103 LINE",
"161 103 LINE",
"133 26 OFFCURVE",
"106 -42 OFFCURVE",
"78 -120 CURVE",
"146 -120 LINE"
);
}
);
};
hints = (
{
horizontal = 1;
place = "{103, -20}";
target = down;
type = TopGhost;
},
{
horizontal = 1;
place = "{-119, 21}";
target = up;
type = BottomGhost;
}
);
layerId = UUID0;
paths = (
{
closed = 1;
nodes = (
"265 103 LINE",
"161 103 LINE",
"133 26 OFFCURVE",
"106 -42 OFFCURVE",
"78 -120 CURVE",
"146 -120 LINE"
);
}
);
width = 350;
}
);
unicode = 002C;
},
{
glyphname = hyphen;
lastChange = "2018-10-27 09:40:54 +0000";
layers = (
{
background = {
paths = (
{
closed = 1;
nodes = (
"458 247 LINE",
"458 320 LINE",
"158 320 LINE",
"158 247 LINE"
);
}
);
};
hints = (
{
horizontal = 1;
place = "{247, 73}";
type = Stem;
}
);
layerId = UUID0;
paths = (
{
closed = 1;
nodes = (
"458 247 LINE",
"458 320 LINE",
"158 320 LINE",
"158 247 LINE"
);
}
);
width = 600;
}
);
unicode = 002D;
},
{
glyphname = period;
lastChange = "2018-10-27 09:40:54 +0000";
layers = (
{
background = {
paths = (
{
closed = 1;
nodes = (
"236 0 LINE",
"236 113 LINE",
"124 113 LINE",
"124 0 LINE"
);
}
);
};
hints = (
{
place = "{124, 112}";
type = Stem;
},
{
horizontal = 1;
place = "{0, 113}";
type = Stem;
}
);
layerId = UUID0;
paths = (
{
closed = 1;
nodes = (
"236 0 LINE",
"236 113 LINE",
"124 113 LINE",
"124 0 LINE"
);
}
);
width = 350;
}
);
unicode = 002E;
},
{
glyphname = slash;
lastChange = "2018-10-27 09:40:54 +0000";
layers = (
{
background = {
paths = (
{
closed = 1;
nodes = (
"481 785 LINE",
"406 785 LINE",
"131 -52 LINE",
"207 -52 LINE"
);
}
);
};
hints = (
{
horizontal = 1;
place = "{785, -20}";
target = down;
type = TopGhost;
},
{
horizontal = 1;
place = "{-51, 21}";
target = up;
type = BottomGhost;
}
);
layerId = UUID0;
paths = (
{
closed = 1;
nodes = (
"481 785 LINE",
"406 785 LINE",
"131 -52 LINE",
"207 -52 LINE"
);
}
);
width = 600;
}
);
unicode = 002F;
},
{
glyphname = zero;
lastChange = "2018-10-27 09:40:54 +0000";
layers = (
{
background = {
paths = (
{
closed = 1;
nodes = (
"496 542 LINE",
"496 605 OFFCURVE",
"466 730 OFFCURVE",
"308 730 CURVE SMOOTH",
"149 730 OFFCURVE",
"117 605 OFFCURVE",
"117 543 CURVE",
"117 181 LINE",
"117 118 OFFCURVE",
"148 -9 OFFCURVE",
"304 -9 CURVE SMOOTH",
"464 -9 OFFCURVE",
"496 117 OFFCURVE",
"496 180 CURVE"
);
},
{
closed = 1;
nodes = (
"416 181 LINE",
"416 83 OFFCURVE",
"349 68 OFFCURVE",
"308 68 CURVE SMOOTH",
"267 68 OFFCURVE",
"196 83 OFFCURVE",
"196 181 CURVE",
"196 541 LINE",
"196 639 OFFCURVE",
"267 653 OFFCURVE",
"308 653 CURVE SMOOTH",
"349 653 OFFCURVE",
"416 639 OFFCURVE",
"416 541 CURVE"
);
}
);
};
hints = (
{
place = "{117, 79}";
type = Stem;
},
{
place = "{416, 80}";
type = Stem;
},
{
horizontal = 1;
place = "{0, 77}";
type = Stem;
},
{
horizontal = 1;
place = "{647, 77}";
type = Stem;
}
);
layerId = UUID0;
paths = (
{
closed = 1;
nodes = (
"496 542 LINE",
"496 605 OFFCURVE",
"466 730 OFFCURVE",
"308 730 CURVE SMOOTH",
"149 730 OFFCURVE",
"117 605 OFFCURVE",
"117 543 CURVE",
"117 181 LINE",
"117 118 OFFCURVE",
"148 -9 OFFCURVE",
"304 -9 CURVE SMOOTH",
"464 -9 OFFCURVE",
"496 117 OFFCURVE",
"496 180 CURVE"
);
},
{
closed = 1;
nodes = (
"416 181 LINE",
"416 83 OFFCURVE",
"349 68 OFFCURVE",
"308 68 CURVE SMOOTH",
"267 68 OFFCURVE",
"196 83 OFFCURVE",
"196 181 CURVE",
"196 541 LINE",
"196 639 OFFCURVE",
"267 653 OFFCURVE",
"308 653 CURVE SMOOTH",
"349 653 OFFCURVE",
"416 639 OFFCURVE",
"416 541 CURVE"
);
}
);
width = 600;
}
);
unicode = 0030;
},
{
glyphname = one;
lastChange = "2018-10-27 09:40:54 +0000";
layers = (
{
background = {
paths = (
{
closed = 1;
nodes = (
"351 0 LINE",
"351 724 LINE",
"276 724 LINE",
"146 723 LINE",
"146 648 LINE",
"187 648 OFFCURVE",
"232 646 OFFCURVE",
"271 646 CURVE",
"272 88 LINE",
"272 0 LINE"
);
}
);
};
hints = (
{
place = "{167, 184}";
type = Stem;
},
{
place = "{271, 80}";
type = Stem;
},
{
horizontal = 1;
place = "{0, 77}";
type = Stem;
},
{
horizontal = 1;
place = "{724, -20}";
target = down;
type = TopGhost;
}
);
layerId = UUID0;
paths = (
{
closed = 1;
nodes = (
"351 0 LINE",
"351 724 LINE",
"276 724 LINE",
"146 723 LINE",
"146 648 LINE",
"187 648 OFFCURVE",
"232 646 OFFCURVE",
"271 646 CURVE",
"272 88 LINE",
"272 0 LINE"
);
}
);
width = 600;
}
);
unicode = 0031;
},
{
glyphname = two;
lastChange = "2018-10-27 09:40:54 +0000";
layers = (
{
background = {
paths = (
{
closed = 1;
nodes = (
"508 0 LINE",
"508 77 LINE",
"188 77 LINE",
"188 145 LINE",
"188 192 OFFCURVE",
"211 223 OFFCURVE",
"243 250 CURVE SMOOTH",
"272 274 OFFCURVE",
"311 297 OFFCURVE",
"341 314 CURVE SMOOTH",
"377 335 OFFCURVE",
"413 356 OFFCURVE",
"442 381 CURVE",
"441 381 LINE",
"486 420 OFFCURVE",
"508 474 OFFCURVE",
"508 535 CURVE SMOOTH",
"508 651 OFFCURVE",
"426 730 OFFCURVE",
"308 730 CURVE SMOOTH",
"157 730 OFFCURVE",
"111 606 OFFCURVE",
"109 533 CURVE",
"187 533 LINE",
"194 637 OFFCURVE",
"268 653 OFFCURVE",
"308 653 CURVE SMOOTH",
"384 653 OFFCURVE",
"429 613 OFFCURVE",
"429 534 CURVE SMOOTH",
"429 499 OFFCURVE",
"418 461 OFFCURVE",
"389 437 CURVE",
"359 409 OFFCURVE",
"321 390 OFFCURVE",
"289 370 CURVE SMOOTH",
"260 352 OFFCURVE",
"223 332 OFFCURVE",
"199 311 CURVE SMOOTH",
"151 272 OFFCURVE",
"108 218 OFFCURVE",
"108 150 CURVE",
"108 0 LINE"
);
}
);
};
hints = (
{
place = "{108, 80}";
type = Stem;
},
{
place = "{429, 79}";
type = Stem;
},
{
horizontal = 1;
place = "{0, 77}";
type = Stem;
},
{
horizontal = 1;
place = "{647, 77}";
type = Stem;
}
);
layerId = UUID0;
paths = (
{
closed = 1;
nodes = (
"508 0 LINE",
"508 77 LINE",
"188 77 LINE",
"188 145 LINE",
"188 192 OFFCURVE",
"211 223 OFFCURVE",
"243 250 CURVE SMOOTH",
"272 274 OFFCURVE",
"311 297 OFFCURVE",
"341 314 CURVE SMOOTH",
"377 335 OFFCURVE",
"413 356 OFFCURVE",
"442 381 CURVE",
"441 381 LINE",
"486 420 OFFCURVE",
"508 474 OFFCURVE",
"508 535 CURVE SMOOTH",
"508 651 OFFCURVE",
"426 730 OFFCURVE",
"308 730 CURVE SMOOTH",
"157 730 OFFCURVE",
"111 606 OFFCURVE",
"109 533 CURVE",
"187 533 LINE",
"194 637 OFFCURVE",
"268 653 OFFCURVE",
"308 653 CURVE SMOOTH",
"384 653 OFFCURVE",
"429 613 OFFCURVE",
"429 534 CURVE SMOOTH",
"429 499 OFFCURVE",
"418 461 OFFCURVE",
"389 437 CURVE",
"359 409 OFFCURVE",
"321 390 OFFCURVE",
"289 370 CURVE SMOOTH",
"260 352 OFFCURVE",
"223 332 OFFCURVE",
"199 311 CURVE SMOOTH",
"151 272 OFFCURVE",
"108 218 OFFCURVE",
"108 150 CURVE",
"108 0 LINE"
);
}
);
width = 600;
}
);
unicode = 0032;
},
{
glyphname = three;
lastChange = "2018-10-27 09:40:54 +0000";
layers = (
{
background = {
paths = (
{
closed = 1;
nodes = (
"489 647 LINE",
"489 724 LINE",
"134 724 LINE",
"134 648 LINE",
"399 648 LINE",
"261 429 LINE",
"261 364 LINE",
"303 364 LINE",
"342 364 OFFCURVE",
"425 351 OFFCURVE",
"425 255 CURVE",
"425 184 LINE",
"425 86 OFFCURVE",
"347 69 OFFCURVE",
"304 69 CURVE SMOOTH",
"262 69 OFFCURVE",
"188 84 OFFCURVE",
"183 170 CURVE",
"106 170 LINE",
"108 96 OFFCURVE",
"150 -9 OFFCURVE",
"305 -9 CURVE SMOOTH",
"460 -9 OFFCURVE",
"504 119 OFFCURVE",
"504 184 CURVE",
"504 257 LINE",
"504 317 OFFCURVE",
"472 405 OFFCURVE",
"350 434 CURVE"
);
}
);
};
hints = (
{
place = "{106, 77}";
type = Stem;
},
{
place = "{425, 79}";
type = Stem;
},
{
horizontal = 1;
place = "{0, 78}";
type = Stem;
},
{
horizontal = 1;
place = "{648, 76}";
type = Stem;
}
);
layerId = UUID0;
paths = (
{
closed = 1;
nodes = (
"489 647 LINE",
"489 724 LINE",
"134 724 LINE",
"134 648 LINE",
"399 648 LINE",
"261 429 LINE",
"261 364 LINE",
"303 364 LINE",
"342 364 OFFCURVE",
"425 351 OFFCURVE",
"425 255 CURVE",
"425 184 LINE",
"425 86 OFFCURVE",
"347 69 OFFCURVE",
"304 69 CURVE SMOOTH",
"262 69 OFFCURVE",
"188 84 OFFCURVE",
"183 170 CURVE",
"106 170 LINE",
"108 96 OFFCURVE",
"150 -9 OFFCURVE",
"305 -9 CURVE SMOOTH",
"460 -9 OFFCURVE",
"504 119 OFFCURVE",
"504 184 CURVE",
"504 257 LINE",
"504 317 OFFCURVE",
"472 405 OFFCURVE",
"350 434 CURVE"
);
}
);
width = 600;
}
);
unicode = 0033;
},
{
glyphname = four;
lastChange = "2018-10-27 09:40:54 +0000";
layers = (
{
background = {
paths = (
{
closed = 1;
nodes = (
"492 0 LINE",
"492 548 LINE",
"412 548 LINE",
"412 279 LINE",
"175 279 LINE",
"340 724 LINE",
"260 724 LINE",
"97 283 LINE",
"97 203 LINE",
"412 203 LINE",
"412 0 LINE"
);
}
);
};
hints = (
{
place = "{411, 80}";
type = Stem;
},
{
horizontal = 1;
place = "{202, 77}";
type = Stem;
},
{
horizontal = 1;
place = "{1, 21}";
target = up;
type = BottomGhost;
},
{
horizontal = 1;
place = "{724, -20}";
target = down;
type = TopGhost;
}
);
layerId = UUID0;
paths = (
{
closed = 1;
nodes = (
"492 0 LINE",
"492 548 LINE",
"412 548 LINE",
"412 279 LINE",
"175 279 LINE",
"340 724 LINE",
"260 724 LINE",
"97 283 LINE",
"97 203 LINE",
"412 203 LINE",
"412 0 LINE"
);
}
);
width = 600;
}
);
unicode = 0034;
},
{
glyphname = five;
lastChange = "2018-10-27 09:40:54 +0000";
layers = (
{
background = {
paths = (
{
closed = 1;
nodes = (
"508 256 LINE",
"508 374 OFFCURVE",
"413 451 OFFCURVE",
"308 451 CURVE",
"209 451 LINE",
"223 646 LINE",
"473 646 LINE",
"473 724 LINE",
"149 724 LINE",
"142 608 OFFCURVE",
"136 492 OFFCURVE",
"129 375 CURVE",
"306 375 LINE",
"390 375 OFFCURVE",
"430 317 OFFCURVE",
"430 254 CURVE",
"430 187 LINE",
"430 111 OFFCURVE",
"368 68 OFFCURVE",
"304 68 CURVE SMOOTH",
"233 68 OFFCURVE",
"185 110 OFFCURVE",
"178 167 CURVE",
"100 167 LINE",
"105 62 OFFCURVE",
"195 -9 OFFCURVE",
"304 -9 CURVE SMOOTH",
"414 -9 OFFCURVE",
"508 73 OFFCURVE",
"508 188 CURVE"
);
}
);
};
hints = (
{
place = "{100, 78}";
type = Stem;
},
{
place = "{430, 78}";
type = Stem;
},
{
horizontal = 1;
place = "{0, 77}";
type = Stem;
},
{
horizontal = 1;
place = "{375, 76}";
type = Stem;
},
{
horizontal = 1;
place = "{646, 78}";
type = Stem;
}
);
layerId = UUID0;
paths = (
{
closed = 1;
nodes = (
"508 256 LINE SMOOTH",
"508 374 OFFCURVE",
"413 451 OFFCURVE",
"308 451 CURVE SMOOTH",
"209 451 LINE",
"223 646 LINE",
"473 646 LINE",
"473 724 LINE",
"149 724 LINE",
"129 375 LINE",
"306 375 LINE SMOOTH",
"390 375 OFFCURVE",
"430 317 OFFCURVE",
"430 254 CURVE SMOOTH",
"430 187 LINE SMOOTH",
"430 111 OFFCURVE",
"368 68 OFFCURVE",
"304 68 CURVE SMOOTH",
"233 68 OFFCURVE",
"185 110 OFFCURVE",
"178 167 CURVE",
"100 167 LINE",
"105 62 OFFCURVE",
"195 -9 OFFCURVE",
"304 -9 CURVE SMOOTH",
"414 -9 OFFCURVE",
"508 73 OFFCURVE",
"508 188 CURVE"
);
}
);
width = 600;
}
);
unicode = 0035;
},
{
glyphname = six;
lastChange = "2018-10-27 09:40:54 +0000";
layers = (
{
background = {
paths = (
{
closed = 1;
nodes = (
"506 271 LINE",
"506 336 OFFCURVE",
"464 460 OFFCURVE",
"309 460 CURVE SMOOTH",
"270 460 OFFCURVE",
"224 439 OFFCURVE",
"188 413 CURVE",
"188 538 LINE",
"188 636 OFFCURVE",
"264 651 OFFCURVE",
"309 651 CURVE SMOOTH",
"351 651 OFFCURVE",
"414 632 OFFCURVE",
"420 529 CURVE",
"497 529 LINE",
"495 602 OFFCURVE",
"459 728 OFFCURVE",
"309 728 CURVE SMOOTH",
"152 728 OFFCURVE",
"108 603 OFFCURVE",
"108 540 CURVE",
"108 177 LINE",
"108 115 OFFCURVE",
"151 -9 OFFCURVE",
"305 -9 CURVE SMOOTH",
"465 -9 OFFCURVE",
"506 117 OFFCURVE",
"506 178 CURVE"
);
},
{
closed = 1;
nodes = (
"427 181 LINE",
"427 83 OFFCURVE",
"344 68 OFFCURVE",
"305 68 CURVE SMOOTH",
"266 68 OFFCURVE",
"188 86 OFFCURVE",
"188 181 CURVE",
"188 270 LINE",
"188 368 OFFCURVE",
"266 382 OFFCURVE",
"305 382 CURVE SMOOTH",
"344 382 OFFCURVE",
"427 368 OFFCURVE",
"427 270 CURVE"
);
}
);
};
hints = (
{
place = "{108, 80}";
type = Stem;
},
{
place = "{427, 79}";
type = Stem;
},
{
horizontal = 1;
place = "{0, 77}";
type = Stem;
},
{
horizontal = 1;
place = "{382, 78}";
type = Stem;
},
{
horizontal = 1;
place = "{647, 77}";
type = Stem;
}
);
layerId = UUID0;
paths = (
{
closed = 1;
nodes = (
"506 271 LINE",
"506 336 OFFCURVE",
"464 460 OFFCURVE",
"309 460 CURVE SMOOTH",
"270 460 OFFCURVE",
"224 439 OFFCURVE",
"188 413 CURVE",
"188 538 LINE",
"188 636 OFFCURVE",
"264 651 OFFCURVE",
"309 651 CURVE SMOOTH",
"351 651 OFFCURVE",
"414 632 OFFCURVE",
"420 529 CURVE",
"497 529 LINE",
"495 602 OFFCURVE",
"459 728 OFFCURVE",
"309 728 CURVE SMOOTH",
"152 728 OFFCURVE",
"108 603 OFFCURVE",
"108 540 CURVE",
"108 177 LINE",
"108 115 OFFCURVE",
"151 -9 OFFCURVE",
"305 -9 CURVE SMOOTH",
"465 -9 OFFCURVE",
"506 117 OFFCURVE",
"506 178 CURVE"
);
},
{
closed = 1;
nodes = (
"427 181 LINE",
"427 83 OFFCURVE",
"344 68 OFFCURVE",
"305 68 CURVE SMOOTH",
"266 68 OFFCURVE",
"188 86 OFFCURVE",
"188 181 CURVE",
"188 270 LINE",
"188 368 OFFCURVE",
"266 382 OFFCURVE",
"305 382 CURVE SMOOTH",
"344 382 OFFCURVE",
"427 368 OFFCURVE",
"427 270 CURVE"
);
}
);
width = 600;
}
);
unicode = 0036;
},
{
glyphname = seven;
lastChange = "2018-10-27 09:40:54 +0000";
layers = (
{
background = {
paths = (
{
closed = 1;
nodes = (
"517 651 LINE",
"517 724 LINE",
"99 724 LINE",
"99 646 LINE",
"433 646 LINE",
"199 0 LINE",
"283 0 LINE"
);
}
);
};
hints = (
{
horizontal = 1;
place = "{646, 78}";
type = Stem;
},
{
horizontal = 1;
place = "{1, 21}";
target = up;
type = BottomGhost;
}
);
layerId = UUID0;
paths = (
{
closed = 1;
nodes = (
"517 651 LINE",
"517 724 LINE",
"99 724 LINE",
"99 646 LINE",
"433 646 LINE",
"199 0 LINE",
"283 0 LINE"
);
}
);
width = 600;
}
);
unicode = 0037;
},
{
glyphname = eight;
lastChange = "2018-10-27 09:40:54 +0000";
layers = (
{
background = {
paths = (
{
closed = 1;
nodes = (
"519 249 OFFCURVE",
"498 326 OFFCURVE",
"411 372 CURVE",
"481 412 OFFCURVE",
"511 485 OFFCURVE",
"511 532 CURVE SMOOTH",
"511 607 OFFCURVE",
"467 729 OFFCURVE",
"307 729 CURVE SMOOTH",
"144 729 OFFCURVE",
"102 607 OFFCURVE",
"102 532 CURVE SMOOTH",
"102 481 OFFCURVE",
"136 412 OFFCURVE",
"198 371 CURVE",
"120 326 OFFCURVE",
"95 248 OFFCURVE",
"95 202 CURVE SMOOTH",
"95 125 OFFCURVE",
"141 -9 OFFCURVE",
"307 -9 CURVE SMOOTH",
"477 -9 OFFCURVE",
"519 125 OFFCURVE",
"519 202 CURVE SMOOTH"
);
},
{
closed = 1;
nodes = (
"439 87 OFFCURVE",
"348 68 OFFCURVE",
"307 68 CURVE SMOOTH",
"265 68 OFFCURVE",
"174 89 OFFCURVE",
"174 202 CURVE SMOOTH",
"174 283 OFFCURVE",
"231 332 OFFCURVE",
"307 332 CURVE SMOOTH",
"381 332 OFFCURVE",
"439 284 OFFCURVE",
"439 202 CURVE SMOOTH"
);
},
{
closed = 1;
nodes = (
"432 457 OFFCURVE",
"381 409 OFFCURVE",
"307 409 CURVE SMOOTH",
"234 409 OFFCURVE",
"181 455 OFFCURVE",
"181 532 CURVE SMOOTH",
"181 635 OFFCURVE",
"267 652 OFFCURVE",
"307 652 CURVE SMOOTH",
"346 652 OFFCURVE",
"432 635 OFFCURVE",
"432 532 CURVE SMOOTH"
);
}
);
};
hints = (
{
place = "{95, 79}";
type = Stem;
},
{
place = "{439, 80}";
type = Stem;
},
{
horizontal = 1;
place = "{1, 77}";
type = Stem;
},
{
horizontal = 1;
place = "{332, 77}";
type = Stem;
},
{
horizontal = 1;
place = "{647, 77}";
type = Stem;
}
);
layerId = UUID0;
paths = (
{
closed = 1;
nodes = (
"519 249 OFFCURVE",
"498 326 OFFCURVE",
"411 372 CURVE",
"481 412 OFFCURVE",
"511 485 OFFCURVE",
"511 532 CURVE SMOOTH",
"511 607 OFFCURVE",
"467 729 OFFCURVE",
"307 729 CURVE SMOOTH",
"144 729 OFFCURVE",
"102 607 OFFCURVE",
"102 532 CURVE SMOOTH",
"102 481 OFFCURVE",
"136 412 OFFCURVE",
"198 371 CURVE",
"120 326 OFFCURVE",
"95 248 OFFCURVE",
"95 202 CURVE SMOOTH",
"95 125 OFFCURVE",
"141 -9 OFFCURVE",
"307 -9 CURVE SMOOTH",
"477 -9 OFFCURVE",
"519 125 OFFCURVE",
"519 202 CURVE SMOOTH"
);
},
{
closed = 1;
nodes = (
"439 87 OFFCURVE",
"348 68 OFFCURVE",
"307 68 CURVE SMOOTH",
"265 68 OFFCURVE",
"174 89 OFFCURVE",
"174 202 CURVE SMOOTH",
"174 283 OFFCURVE",
"231 332 OFFCURVE",
"307 332 CURVE SMOOTH",
"381 332 OFFCURVE",
"439 284 OFFCURVE",
"439 202 CURVE SMOOTH"
);
},
{
closed = 1;
nodes = (
"432 457 OFFCURVE",
"381 409 OFFCURVE",
"307 409 CURVE SMOOTH",
"234 409 OFFCURVE",
"181 455 OFFCURVE",
"181 532 CURVE SMOOTH",
"181 635 OFFCURVE",
"267 652 OFFCURVE",
"307 652 CURVE SMOOTH",
"346 652 OFFCURVE",
"432 635 OFFCURVE",
"432 532 CURVE SMOOTH"
);
}
);
width = 600;
}
);
unicode = 0038;
},
{
glyphname = nine;
lastChange = "2018-10-27 09:40:54 +0000";
layers = (
{
background = {
paths = (
{
closed = 1;
nodes = (
"107 448 LINE",
"107 382 OFFCURVE",
"149 259 OFFCURVE",
"305 259 CURVE SMOOTH",
"343 259 OFFCURVE",
"389 280 OFFCURVE",
"426 306 CURVE",
"426 181 LINE",
"426 83 OFFCURVE",
"350 68 OFFCURVE",
"305 68 CURVE SMOOTH",
"263 68 OFFCURVE",
"199 87 OFFCURVE",
"194 190 CURVE",
"117 190 LINE",
"119 117 OFFCURVE",
"154 -9 OFFCURVE",
"305 -9 CURVE SMOOTH",
"461 -9 OFFCURVE",
"505 116 OFFCURVE",
"505 179 CURVE",
"505 542 LINE",
"505 604 OFFCURVE",
"462 728 OFFCURVE",
"309 728 CURVE SMOOTH",
"148 728 OFFCURVE",
"107 602 OFFCURVE",
"107 541 CURVE"
);
},
{
closed = 1;
nodes = (
"187 538 LINE",
"187 636 OFFCURVE",
"269 651 OFFCURVE",
"309 651 CURVE SMOOTH",
"347 651 OFFCURVE",
"426 633 OFFCURVE",
"426 538 CURVE",
"426 449 LINE",
"426 351 OFFCURVE",
"347 336 OFFCURVE",
"309 336 CURVE SMOOTH",
"269 336 OFFCURVE",
"187 351 OFFCURVE",
"187 449 CURVE"
);
}
);
};
hints = (
{
place = "{107, 80}";
type = Stem;
},
{
place = "{426, 79}";
type = Stem;
},
{
horizontal = 1;
place = "{0, 77}";
type = Stem;
},
{
horizontal = 1;
place = "{259, 77}";
type = Stem;
},
{
horizontal = 1;
place = "{647, 77}";
type = Stem;
}
);
layerId = UUID0;
paths = (
{
closed = 1;
nodes = (
"107 448 LINE",
"107 382 OFFCURVE",
"149 259 OFFCURVE",
"305 259 CURVE SMOOTH",
"343 259 OFFCURVE",
"389 280 OFFCURVE",
"426 306 CURVE",
"426 181 LINE",
"426 83 OFFCURVE",
"350 68 OFFCURVE",
"305 68 CURVE SMOOTH",
"263 68 OFFCURVE",
"199 87 OFFCURVE",
"194 190 CURVE",
"117 190 LINE",
"119 117 OFFCURVE",
"154 -9 OFFCURVE",
"305 -9 CURVE SMOOTH",
"461 -9 OFFCURVE",
"505 116 OFFCURVE",
"505 179 CURVE",
"505 542 LINE",
"505 604 OFFCURVE",
"462 728 OFFCURVE",
"309 728 CURVE SMOOTH",
"148 728 OFFCURVE",
"107 602 OFFCURVE",
"107 541 CURVE"
);
},
{
closed = 1;
nodes = (
"187 538 LINE",
"187 636 OFFCURVE",
"269 651 OFFCURVE",
"309 651 CURVE SMOOTH",
"347 651 OFFCURVE",
"426 633 OFFCURVE",
"426 538 CURVE",
"426 449 LINE",
"426 351 OFFCURVE",
"347 336 OFFCURVE",
"309 336 CURVE SMOOTH",
"269 336 OFFCURVE",
"187 351 OFFCURVE",
"187 449 CURVE"
);
}
);
width = 600;
}
);
unicode = 0039;
},
{
glyphname = colon;
lastChange = "2018-10-27 09:40:54 +0000";
layers = (
{
background = {
paths = (
{
closed = 1;
nodes = (
"268 0 LINE",
"268 113 LINE",
"155 113 LINE",
"155 0 LINE"
);
},
{
closed = 1;
nodes = (
"268 315 LINE",
"268 428 LINE",
"155 428 LINE",
"155 315 LINE"
);
}
);
};
hints = (
{
place = "{155, 113}";
type = Stem;
},
{
horizontal = 1;
place = "{0, 113}";
type = Stem;
},
{
horizontal = 1;
place = "{315, 113}";
type = Stem;
}
);
layerId = UUID0;
paths = (
{
closed = 1;
nodes = (
"268 0 LINE",
"268 113 LINE",
"155 113 LINE",
"155 0 LINE"
);
},
{
closed = 1;
nodes = (
"268 315 LINE",
"268 428 LINE",
"155 428 LINE",
"155 315 LINE"
);
}
);
width = 400;
}
);
unicode = 003A;
},
{
glyphname = semicolon;
lastChange = "2018-10-27 09:40:54 +0000";
layers = (
{
background = {
paths = (
{
closed = 1;
nodes = (
"280 315 LINE",
"280 428 LINE",
"167 428 LINE",
"167 315 LINE"
);
},
{
closed = 1;
nodes = (
"269 103 LINE",
"165 103 LINE",
"137 26 OFFCURVE",
"110 -42 OFFCURVE",
"82 -120 CURVE",
"149 -120 LINE"
);
}
);
};
hints = (
{
place = "{167, 113}";
type = Stem;
},
{
horizontal = 1;
place = "{315, 113}";
type = Stem;
},
{
horizontal = 1;
place = "{-119, 21}";
target = up;
type = BottomGhost;
}
);
layerId = UUID0;
paths = (
{
closed = 1;
nodes = (
"280 315 LINE",
"280 428 LINE",
"167 428 LINE",
"167 315 LINE"
);
},
{
closed = 1;
nodes = (
"269 103 LINE",
"165 103 LINE",
"137 26 OFFCURVE",
"110 -42 OFFCURVE",
"82 -120 CURVE",
"149 -120 LINE"
);
}
);
width = 400;
}
);
unicode = 003B;
},
{
glyphname = less;
lastChange = "2018-10-27 09:40:54 +0000";
layers = (
{
background = {
paths = (
{
closed = 1;
nodes = (
"487 0 LINE",
"222 264 LINE",
"484 528 LINE",
"376 528 LINE",
"114 264 LINE",
"379 0 LINE"
);
}
);
};
hints = (
{
horizontal = 1;
place = "{1, 21}";
target = up;
type = BottomGhost;
},
{
horizontal = 1;
place = "{528, -20}";
target = down;
type = TopGhost;
}
);
layerId = UUID0;
paths = (
{
closed = 1;
nodes = (
"487 0 LINE",
"222 264 LINE",
"484 528 LINE",
"376 528 LINE",
"114 264 LINE",
"379 0 LINE"
);
}
);
width = 600;
}
);
unicode = 003C;
},
{
glyphname = equal;
lastChange = "2018-10-27 09:40:54 +0000";
layers = (
{
background = {
paths = (
{
closed = 1;
nodes = (
"491 348 LINE",
"491 421 LINE",
"125 421 LINE",
"125 348 LINE"
);
},
{
closed = 1;
nodes = (
"491 165 LINE",
"491 238 LINE",
"125 238 LINE",
"125 165 LINE"
);
}
);
};
hints = (
{
horizontal = 1;
place = "{165, 73}";
type = Stem;
},
{
horizontal = 1;
place = "{348, 73}";
type = Stem;
}
);
layerId = UUID0;
paths = (
{
closed = 1;
nodes = (
"491 348 LINE",
"491 421 LINE",
"125 421 LINE",
"125 348 LINE"
);
},
{
closed = 1;
nodes = (
"491 165 LINE",
"491 238 LINE",
"125 238 LINE",
"125 165 LINE"
);
}
);
width = 600;
}
);
unicode = 003D;
},
{
glyphname = greater;
lastChange = "2018-10-27 09:40:54 +0000";
layers = (
{
background = {
paths = (
{
closed = 1;
nodes = (
"497 263 LINE",
"234 528 LINE",
"126 528 LINE",
"388 264 LINE",
"124 0 LINE",
"230 0 LINE"
);
}
);
};
hints = (
{
horizontal = 1;
place = "{530, -20}";
target = down;
type = TopGhost;
},
{
horizontal = 1;
place = "{1, 21}";
target = up;
type = BottomGhost;
}
);
layerId = UUID0;
paths = (
{
closed = 1;
nodes = (
"497 263 LINE",
"234 528 LINE",
"126 528 LINE",
"388 264 LINE",
"124 0 LINE",
"230 0 LINE"
);
}
);
width = 600;
}
);
unicode = 003E;
},
{
glyphname = question;
lastChange = "2018-10-27 09:40:54 +0000";
layers = (
{
background = {
paths = (
{
closed = 1;
nodes = (
"505 650 OFFCURVE",
"425 729 OFFCURVE",
"308 729 CURVE SMOOTH",
"156 729 OFFCURVE",
"108 605 OFFCURVE",
"106 531 CURVE",
"187 531 LINE",
"196 637 OFFCURVE",
"270 652 OFFCURVE",
"308 652 CURVE SMOOTH",
"385 652 OFFCURVE",
"426 612 OFFCURVE",
"426 533 CURVE SMOOTH",
"426 501 OFFCURVE",
"416 477 OFFCURVE",
"403 461 CURVE",
"403 462 LINE",
"384 439 OFFCURVE",
"363 421 OFFCURVE",
"340 403 CURVE SMOOTH",
"322 390 OFFCURVE",
"305 376 OFFCURVE",
"291 360 CURVE SMOOTH",
"268 334 OFFCURVE",
"246 290 OFFCURVE",
"246 232 CURVE",
"246 196 LINE",
"326 196 LINE",
"326 235 LINE",
"326 273 OFFCURVE",
"334 296 OFFCURVE",
"350 312 CURVE SMOOTH",
"367 331 OFFCURVE",
"386 347 OFFCURVE",
"405 362 CURVE SMOOTH",
"426 379 OFFCURVE",
"445 396 OFFCURVE",
"461 415 CURVE SMOOTH",
"486 443 OFFCURVE",
"505 487 OFFCURVE",
"505 534 CURVE SMOOTH"
);
},
{
closed = 1;
nodes = (
"338 0 LINE",
"338 104 LINE",
"235 104 LINE",
"235 0 LINE"
);
}
);
};
hints = (
{
place = "{106, 80}";
type = Stem;
},
{
place = "{246, 80}";
type = Stem;
},
{
place = "{426, 79}";
type = Stem;
},
{
horizontal = 1;
place = "{0, 66}";
type = Stem;
},
{
horizontal = 1;
place = "{647, 77}";
type = Stem;
}
);
layerId = UUID0;
paths = (
{
closed = 1;
nodes = (
"505 650 OFFCURVE",
"425 729 OFFCURVE",
"308 729 CURVE SMOOTH",
"156 729 OFFCURVE",
"108 605 OFFCURVE",
"106 531 CURVE",
"187 531 LINE",
"196 637 OFFCURVE",
"270 652 OFFCURVE",
"308 652 CURVE SMOOTH",
"385 652 OFFCURVE",
"426 612 OFFCURVE",
"426 533 CURVE SMOOTH",
"426 501 OFFCURVE",
"416 477 OFFCURVE",
"403 461 CURVE",
"403 462 LINE",
"384 439 OFFCURVE",
"363 421 OFFCURVE",
"340 403 CURVE SMOOTH",
"322 390 OFFCURVE",
"305 376 OFFCURVE",
"291 360 CURVE SMOOTH",
"268 334 OFFCURVE",
"246 290 OFFCURVE",
"246 232 CURVE",
"246 196 LINE",
"326 196 LINE",
"326 235 LINE",
"326 273 OFFCURVE",
"334 296 OFFCURVE",
"350 312 CURVE SMOOTH",
"367 331 OFFCURVE",
"386 347 OFFCURVE",
"405 362 CURVE SMOOTH",
"426 379 OFFCURVE",
"445 396 OFFCURVE",
"461 415 CURVE SMOOTH",
"486 443 OFFCURVE",
"505 487 OFFCURVE",
"505 534 CURVE SMOOTH"
);
},
{
closed = 1;
nodes = (
"338 0 LINE",
"338 104 LINE",
"235 104 LINE",
"235 0 LINE"
);
}
);
width = 600;
}
);
unicode = 003F;
},
{
glyphname = at;
lastChange = "2018-10-27 09:40:54 +0000";
layers = (
{
background = {
paths = (
{
closed = 1;
nodes = (
"531 19 LINE",
"531 531 LINE",
"531 593 OFFCURVE",
"486 729 OFFCURVE",
"310 729 CURVE SMOOTH",
"130 729 OFFCURVE",
"85 593 OFFCURVE",
"85 532 CURVE",
"85 -24 LINE",
"85 -90 OFFCURVE",
"130 -208 OFFCURVE",
"297 -214 CURVE",
"297 -137 LINE",
"248 -135 OFFCURVE",
"163 -113 OFFCURVE",
"163 -21 CURVE",
"163 525 LINE",
"163 623 OFFCURVE",
"249 652 OFFCURVE",
"310 652 CURVE SMOOTH",
"371 652 OFFCURVE",
"452 625 OFFCURVE",
"452 528 CURVE",
"452 438 LINE",
"433 458 OFFCURVE",
"395 476 OFFCURVE",
"377 476 CURVE SMOOTH",
"305 476 OFFCURVE",
"248 432 OFFCURVE",
"248 343 CURVE",
"248 153 LINE",
"248 62 OFFCURVE",
"302 19 OFFCURVE",
"377 19 CURVE SMOOTH",
"399 19 OFFCURVE",
"440 42 OFFCURVE",
"458 64 CURVE",
"458 19 LINE"
);
},
{
closed = 1;
nodes = (
"452 157 LINE",
"452 111 OFFCURVE",
"421 93 OFFCURVE",
"385 93 CURVE SMOOTH",
"351 93 OFFCURVE",
"324 112 OFFCURVE",
"324 157 CURVE",
"324 338 LINE",
"324 384 OFFCURVE",
"351 403 OFFCURVE",
"386 403 CURVE SMOOTH",
"417 403 OFFCURVE",
"452 385 OFFCURVE",
"452 342 CURVE"
);
}
);
};
hints = (
{
place = "{85, 78}";
type = Stem;
},
{
place = "{248, 76}";
type = Stem;
},
{
place = "{452, 79}";
type = Stem;
},
{
horizontal = 1;
place = "{19, 74}";
type = Stem;
},
{
horizontal = 1;
place = "{403, 73}";
type = Stem;
},
{
horizontal = 1;
place = "{648, 77}";
type = Stem;
},
{
horizontal = 1;
place = "{-213, 21}";
target = up;
type = BottomGhost;
}
);
layerId = UUID0;
paths = (
{
closed = 1;
nodes = (
"531 19 LINE",
"531 531 LINE",
"531 593 OFFCURVE",
"486 729 OFFCURVE",
"310 729 CURVE SMOOTH",
"130 729 OFFCURVE",
"85 593 OFFCURVE",
"85 532 CURVE",
"85 -24 LINE",
"85 -90 OFFCURVE",
"130 -208 OFFCURVE",
"297 -214 CURVE",
"297 -137 LINE",
"248 -135 OFFCURVE",
"163 -113 OFFCURVE",
"163 -21 CURVE",
"163 525 LINE",
"163 623 OFFCURVE",
"249 652 OFFCURVE",
"310 652 CURVE SMOOTH",
"371 652 OFFCURVE",
"452 625 OFFCURVE",
"452 528 CURVE",
"452 438 LINE",
"433 458 OFFCURVE",
"395 476 OFFCURVE",
"377 476 CURVE SMOOTH",
"305 476 OFFCURVE",
"248 432 OFFCURVE",
"248 343 CURVE",
"248 153 LINE",
"248 62 OFFCURVE",
"302 19 OFFCURVE",
"377 19 CURVE SMOOTH",
"399 19 OFFCURVE",
"440 42 OFFCURVE",
"458 64 CURVE",
"458 19 LINE"
);
},
{
closed = 1;
nodes = (
"452 157 LINE",
"452 111 OFFCURVE",
"421 93 OFFCURVE",
"385 93 CURVE SMOOTH",
"351 93 OFFCURVE",
"324 112 OFFCURVE",
"324 157 CURVE",
"324 338 LINE",
"324 384 OFFCURVE",
"351 403 OFFCURVE",
"386 403 CURVE SMOOTH",
"417 403 OFFCURVE",
"452 385 OFFCURVE",
"452 342 CURVE"
);
}
);
width = 600;
}
);
unicode = 0040;
},
{
glyphname = A;
lastChange = "2018-10-27 09:40:54 +0000";
layers = (
{
background = {
paths = (
{
closed = 1;
nodes = (
"555 0 LINE",
"367 713 LINE",
"240 713 LINE",
"54 0 LINE",
"135 0 LINE",
"187 200 LINE",
"425 200 LINE",
"476 0 LINE"
);
},
{
closed = 1;
nodes = (
"404 278 LINE",
"206 278 LINE",
"297 624 LINE",
"316 623 LINE"
);
}
);
};
hints = (
{
horizontal = 1;
place = "{200, 78}";
type = Stem;
},
{
horizontal = 1;
place = "{1, 21}";
target = up;
type = BottomGhost;
},
{
horizontal = 1;
place = "{713, -20}";
target = down;
type = TopGhost;
}
);
layerId = UUID0;
paths = (
{
closed = 1;
nodes = (
"555 0 LINE",
"367 713 LINE",
"240 713 LINE",
"54 0 LINE",
"135 0 LINE",
"187 200 LINE",
"425 200 LINE",
"476 0 LINE"
);
},
{
closed = 1;
nodes = (
"404 278 LINE",
"206 278 LINE",
"297 624 LINE",
"316 623 LINE"
);
}
);
width = 600;
}
);
unicode = 0041;
},
{
glyphname = B;
lastChange = "2018-10-27 09:40:54 +0000";
layers = (
{
background = {
paths = (
{
closed = 1;
nodes = (
"509 214 LINE",
"509 250 OFFCURVE",
"493 326 OFFCURVE",
"421 367 CURVE",
"481 411 OFFCURVE",
"499 480 OFFCURVE",
"499 515 CURVE",
"499 527 LINE",
"499 589 OFFCURVE",
"472 713 OFFCURVE",
"312 713 CURVE",
"101 713 LINE",
"101 0 LINE",
"317 0 LINE",
"477 0 OFFCURVE",
"509 128 OFFCURVE",
"509 189 CURVE"
);
},
{
closed = 1;
nodes = (
"419 517 LINE",
"419 420 OFFCURVE",
"361 406 OFFCURVE",
"316 406 CURVE",
"181 406 LINE",
"181 636 LINE",
"310 636 LINE",
"351 636 OFFCURVE",
"419 624 OFFCURVE",
"419 526 CURVE"
);
},
{
closed = 1;
nodes = (
"429 191 LINE",
"429 93 OFFCURVE",
"357 77 OFFCURVE",
"315 77 CURVE",
"181 77 LINE",
"181 328 LINE",
"320 328 LINE",
"366 328 OFFCURVE",
"429 312 OFFCURVE",
"429 213 CURVE"
);
}
);
};
hints = (
{
place = "{101, 80}";
type = Stem;
},
{
place = "{429, 80}";
type = Stem;
},
{
horizontal = 1;
place = "{0, 77}";
type = Stem;
},
{
horizontal = 1;
place = "{328, 78}";
type = Stem;
},
{
horizontal = 1;
place = "{636, 77}";
type = Stem;
}
);
layerId = UUID0;
paths = (
{
closed = 1;
nodes = (
"509 214 LINE",
"509 250 OFFCURVE",
"493 326 OFFCURVE",
"421 367 CURVE",
"481 411 OFFCURVE",
"499 480 OFFCURVE",
"499 515 CURVE",
"499 527 LINE",
"499 589 OFFCURVE",
"472 713 OFFCURVE",
"312 713 CURVE",
"101 713 LINE",
"101 0 LINE",
"317 0 LINE",
"477 0 OFFCURVE",
"509 128 OFFCURVE",
"509 189 CURVE"
);
},
{
closed = 1;
nodes = (
"419 517 LINE",
"419 420 OFFCURVE",
"361 406 OFFCURVE",
"316 406 CURVE",
"181 406 LINE",
"181 636 LINE",
"310 636 LINE",
"351 636 OFFCURVE",
"419 624 OFFCURVE",
"419 526 CURVE"
);
},
{
closed = 1;
nodes = (
"429 191 LINE",
"429 93 OFFCURVE",
"357 77 OFFCURVE",
"315 77 CURVE",
"181 77 LINE",
"181 328 LINE",
"320 328 LINE",
"366 328 OFFCURVE",
"429 312 OFFCURVE",
"429 213 CURVE"
);
}
);
width = 600;
}
);
unicode = 0042;
},
{
glyphname = C;
lastChange = "2018-10-27 09:40:54 +0000";
layers = (
{
background = {
paths = (
{
closed = 1;
nodes = (
"265 69 OFFCURVE",
"183 84 OFFCURVE",
"183 184 CURVE",
"183 529 LINE",
"183 628 OFFCURVE",
"265 641 OFFCURVE",
"305 641 CURVE SMOOTH",
"342 641 OFFCURVE",
"422 630 OFFCURVE",
"427 540 CURVE",
"507 540 LINE",
"500 606 OFFCURVE",
"449 719 OFFCURVE",
"305 719 CURVE SMOOTH",
"143 719 OFFCURVE",
"103 593 OFFCURVE",
"103 531 CURVE",
"103 184 LINE",
"103 120 OFFCURVE",
"147 -9 OFFCURVE",
"304 -9 CURVE SMOOTH",
"457 -9 OFFCURVE",
"502 106 OFFCURVE",
"506 173 CURVE",
"427 173 LINE",
"422 82 OFFCURVE",
"342 69 OFFCURVE",
"305 69 CURVE SMOOTH"
);
},
{
closed = 1;
nodes = (
"507 183 LINE",
"507 180 OFFCURVE",
"506 176 OFFCURVE",
"506 173 CURVE",
"517 173 LINE"
);
}
);
};
hints = (
{
place = "{103, 80}";
type = Stem;
},
{
place = "{427, 80}";
type = Stem;
},
{
horizontal = 1;
place = "{0, 78}";
type = Stem;
},
{
horizontal = 1;
place = "{635, 78}";
type = Stem;
}
);
layerId = UUID0;
paths = (
{
closed = 1;
nodes = (
"265 69 OFFCURVE",
"183 84 OFFCURVE",
"183 184 CURVE",
"183 529 LINE",
"183 628 OFFCURVE",
"265 641 OFFCURVE",
"305 641 CURVE SMOOTH",
"342 641 OFFCURVE",
"422 630 OFFCURVE",
"427 540 CURVE",
"507 540 LINE",
"500 606 OFFCURVE",
"449 719 OFFCURVE",
"305 719 CURVE SMOOTH",
"143 719 OFFCURVE",
"103 593 OFFCURVE",
"103 531 CURVE",
"103 184 LINE",
"103 120 OFFCURVE",
"147 -9 OFFCURVE",
"304 -9 CURVE SMOOTH",
"457 -9 OFFCURVE",
"502 106 OFFCURVE",
"506 173 CURVE",
"427 173 LINE",
"422 82 OFFCURVE",
"342 69 OFFCURVE",
"305 69 CURVE SMOOTH"
);
},
{
closed = 1;
nodes = (
"507 183 LINE",
"507 180 OFFCURVE",
"506 176 OFFCURVE",
"506 173 CURVE",
"517 173 LINE"
);
}
);
width = 600;
}
);
unicode = 0043;
},
{
glyphname = D;
lastChange = "2018-10-27 09:40:54 +0000";
layers = (
{
background = {
paths = (
{
closed = 1;
nodes = (
"505 524 LINE",
"505 586 OFFCURVE",
"474 714 OFFCURVE",
"313 714 CURVE",
"102 714 LINE",
"102 0 LINE",
"317 0 LINE",
"474 0 OFFCURVE",
"505 129 OFFCURVE",
"505 191 CURVE"
);
},
{
closed = 1;
nodes = (
"425 192 LINE",
"425 94 OFFCURVE",
"357 78 OFFCURVE",
"315 78 CURVE",
"182 78 LINE",
"182 636 LINE",
"313 636 LINE",
"355 636 OFFCURVE",
"425 621 OFFCURVE",
"425 521 CURVE"
);
}
);
};
hints = (
{
place = "{102, 80}";
type = Stem;
},
{
place = "{425, 80}";
type = Stem;
},
{
horizontal = 1;
place = "{0, 78}";
type = Stem;
},
{
horizontal = 1;
place = "{636, 78}";
type = Stem;
}
);
layerId = UUID0;
paths = (
{
closed = 1;
nodes = (
"505 524 LINE",
"505 586 OFFCURVE",
"474 714 OFFCURVE",
"313 714 CURVE",
"102 714 LINE",
"102 0 LINE",
"317 0 LINE",
"474 0 OFFCURVE",
"505 129 OFFCURVE",
"505 191 CURVE"
);
},
{
closed = 1;
nodes = (
"425 192 LINE",
"425 94 OFFCURVE",
"357 78 OFFCURVE",
"315 78 CURVE",
"182 78 LINE",
"182 636 LINE",
"313 636 LINE",
"355 636 OFFCURVE",
"425 621 OFFCURVE",
"425 521 CURVE"
);
}
);
width = 600;
}
);
unicode = 0044;
},
{
glyphname = E;
lastChange = "2018-10-27 09:40:54 +0000";
layers = (
{
background = {
paths = (
{
closed = 1;
nodes = (
"498 0 LINE",
"498 78 LINE",
"191 78 LINE",
"191 338 LINE",
"475 338 LINE",
"475 416 LINE",
"191 416 LINE",
"191 635 LINE",
"498 635 LINE",
"498 713 LINE",
"111 713 LINE",
"111 0 LINE"
);
}
);
};
hints = (
{
place = "{111, 80}";
type = Stem;
},
{
horizontal = 1;
place = "{0, 78}";
type = Stem;
},
{
horizontal = 1;
place = "{338, 78}";
type = Stem;
},
{
horizontal = 1;
place = "{635, 78}";
type = Stem;
}
);
layerId = UUID0;
paths = (
{
closed = 1;
nodes = (
"498 0 LINE",
"498 78 LINE",
"191 78 LINE",
"191 338 LINE",
"475 338 LINE",
"475 416 LINE",
"191 416 LINE",
"191 635 LINE",
"498 635 LINE",
"498 713 LINE",
"111 713 LINE",
"111 0 LINE"
);
}
);
width = 600;
}
);
unicode = 0045;
},
{
glyphname = F;
lastChange = "2018-10-27 09:40:54 +0000";
layers = (
{
background = {
paths = (
{
closed = 1;
nodes = (
"496 635 LINE",
"496 713 LINE",
"109 713 LINE",
"109 0 LINE",
"189 0 LINE",
"189 337 LINE",
"473 337 LINE",
"473 415 LINE",
"189 415 LINE",
"189 635 LINE"
);
}
);
};
hints = (
{
place = "{109, 80}";
type = Stem;
},
{
horizontal = 1;
place = "{337, 78}";
type = Stem;
},
{
horizontal = 1;
place = "{635, 78}";
type = Stem;
},
{
horizontal = 1;
place = "{1, 21}";
target = up;
type = BottomGhost;
}
);
layerId = UUID0;
paths = (
{
closed = 1;
nodes = (
"496 635 LINE",
"496 713 LINE",
"109 713 LINE",
"109 0 LINE",
"189 0 LINE",
"189 337 LINE",
"473 337 LINE",
"473 415 LINE",
"189 415 LINE",
"189 635 LINE"
);
}
);
width = 600;
}
);
unicode = 0046;
},
{
glyphname = G;
lastChange = "2018-10-27 09:40:54 +0000";
layers = (
{
background = {
paths = (
{
closed = 1;
nodes = (
"506 394 LINE",
"300 394 LINE",
"300 315 LINE",
"426 315 LINE",
"426 184 LINE",
"426 85 OFFCURVE",
"342 69 OFFCURVE",
"304 69 CURVE SMOOTH",
"264 69 OFFCURVE",
"182 85 OFFCURVE",
"182 184 CURVE",
"182 529 LINE",
"182 627 OFFCURVE",
"264 641 OFFCURVE",
"304 641 CURVE SMOOTH",
"341 641 OFFCURVE",
"421 629 OFFCURVE",
"426 540 CURVE",
"506 540 LINE",
"499 609 OFFCURVE",
"448 719 OFFCURVE",
"304 719 CURVE SMOOTH",
"142 719 OFFCURVE",
"102 593 OFFCURVE",
"102 531 CURVE",
"102 184 LINE",
"102 120 OFFCURVE",
"145 -9 OFFCURVE",
"302 -9 CURVE SMOOTH",
"461 -9 OFFCURVE",
"506 119 OFFCURVE",
"506 183 CURVE"
);
}
);
};
hints = (
{
place = "{102, 80}";
type = Stem;
},
{
place = "{426, 80}";
type = Stem;
},
{
horizontal = 1;
place = "{-9, 78}";
type = Stem;
},
{
horizontal = 1;
place = "{315, 79}";
type = Stem;
},
{
horizontal = 1;
place = "{635, 78}";
type = Stem;
}
);
layerId = UUID0;
paths = (
{
closed = 1;
nodes = (
"506 394 LINE",
"300 394 LINE",
"300 315 LINE",
"426 315 LINE",
"426 184 LINE",
"426 85 OFFCURVE",
"342 69 OFFCURVE",
"304 69 CURVE SMOOTH",
"264 69 OFFCURVE",
"182 85 OFFCURVE",
"182 184 CURVE",
"182 529 LINE",
"182 627 OFFCURVE",
"264 641 OFFCURVE",
"304 641 CURVE SMOOTH",
"341 641 OFFCURVE",
"421 629 OFFCURVE",
"426 540 CURVE",
"506 540 LINE",
"499 609 OFFCURVE",
"448 719 OFFCURVE",
"304 719 CURVE SMOOTH",
"142 719 OFFCURVE",
"102 593 OFFCURVE",
"102 531 CURVE",
"102 184 LINE",
"102 120 OFFCURVE",
"145 -9 OFFCURVE",
"302 -9 CURVE SMOOTH",
"461 -9 OFFCURVE",
"506 119 OFFCURVE",
"506 183 CURVE"
);
}
);
width = 600;
}
);
unicode = 0047;
},
{
glyphname = H;
lastChange = "2018-10-27 09:40:54 +0000";
layers = (
{
background = {
paths = (
{
closed = 1;
nodes = (
"513 0 LINE",
"513 713 LINE",
"433 713 LINE",
"433 413 LINE",
"176 413 LINE",
"176 713 LINE",
"95 713 LINE",
"95 0 LINE",
"176 0 LINE",
"176 334 LINE",
"433 334 LINE",
"433 0 LINE"
);
}
);
};
hints = (
{
place = "{95, 81}";
type = Stem;
},
{
place = "{433, 80}";
type = Stem;
},
{
horizontal = 1;
place = "{334, 79}";
type = Stem;
},
{
horizontal = 1;
place = "{1, 21}";
target = up;
type = BottomGhost;
},
{
horizontal = 1;
place = "{713, -20}";
target = down;
type = TopGhost;
}
);
layerId = UUID0;
paths = (
{
closed = 1;
nodes = (
"513 0 LINE",
"513 713 LINE",
"433 713 LINE",
"433 413 LINE",
"176 413 LINE",
"176 713 LINE",
"95 713 LINE",
"95 0 LINE",
"176 0 LINE",
"176 334 LINE",
"433 334 LINE",
"433 0 LINE"
);
}
);
width = 600;
}
);
unicode = 0048;
},
{
glyphname = I;
lastChange = "2018-10-27 09:40:54 +0000";
layers = (
{
background = {
paths = (
{
closed = 1;
nodes = (
"502 635 LINE",
"502 713 LINE",
"108 713 LINE",
"108 635 LINE",
"265 635 LINE",
"265 78 LINE",
"108 78 LINE",
"108 0 LINE",
"502 0 LINE",
"502 78 LINE",
"346 78 LINE",
"346 635 LINE"
);
}
);
};
hints = (
{
place = "{265, 81}";
type = Stem;
},
{
horizontal = 1;
place = "{0, 78}";
type = Stem;
},
{
horizontal = 1;
place = "{635, 78}";
type = Stem;
}
);
layerId = UUID0;
paths = (
{
closed = 1;
nodes = (
"502 635 LINE",
"502 713 LINE",
"108 713 LINE",
"108 635 LINE",
"265 635 LINE",
"265 78 LINE",
"108 78 LINE",
"108 0 LINE",
"502 0 LINE",
"502 78 LINE",
"346 78 LINE",
"346 635 LINE"
);
}
);
width = 600;
}
);
unicode = 0049;
},
{
glyphname = J;
lastChange = "2018-10-27 09:40:54 +0000";
layers = (
{
background = {
paths = (
{
closed = 1;
nodes = (
"484 713 LINE",
"194 713 LINE",
"194 635 LINE",
"404 635 LINE",
"404 176 LINE",
"404 87 OFFCURVE",
"348 70 OFFCURVE",
"303 70 CURVE SMOOTH",
"262 70 OFFCURVE",
"205 87 OFFCURVE",
"199 172 CURVE",
"120 172 LINE",
"124 64 OFFCURVE",
"190 -9 OFFCURVE",
"302 -9 CURVE SMOOTH",
"419 -9 OFFCURVE",
"484 62 OFFCURVE",
"484 182 CURVE"
);
}
);
};
hints = (
{
place = "{120, 79}";
type = Stem;
},
{
place = "{404, 80}";
type = Stem;
},
{
horizontal = 1;
place = "{-9, 79}";
type = Stem;
},
{
horizontal = 1;
place = "{635, 78}";
type = Stem;
},
{
horizontal = 1;
place = "{-9, 181}";
type = Stem;
}
);
layerId = UUID0;
paths = (
{
closed = 1;
nodes = (
"484 713 LINE",
"194 713 LINE",
"194 635 LINE",
"404 635 LINE",
"404 176 LINE",
"404 87 OFFCURVE",
"348 70 OFFCURVE",
"303 70 CURVE SMOOTH",
"262 70 OFFCURVE",
"205 87 OFFCURVE",
"199 172 CURVE",
"120 172 LINE",
"124 64 OFFCURVE",
"190 -9 OFFCURVE",
"302 -9 CURVE SMOOTH",
"419 -9 OFFCURVE",
"484 62 OFFCURVE",
"484 182 CURVE"
);
}
);
width = 600;
}
);
unicode = 004A;
},
{
glyphname = K;
lastChange = "2018-10-27 09:40:54 +0000";
layers = (
{
background = {
paths = (
{
closed = 1;
nodes = (
"522 0 LINE",
"287 398 LINE",
"507 713 LINE",
"413 713 LINE",
"340 611 OFFCURVE",
"249 482 OFFCURVE",
"176 381 CURVE",
"176 713 LINE",
"95 713 LINE",
"95 0 LINE",
"176 0 LINE",
"176 247 LINE",
"233 331 LINE",
"429 0 LINE"
);
}
);
};
hints = (
{
place = "{95, 81}";
type = Stem;
},
{
horizontal = 1;
place = "{1, 21}";
target = up;
type = BottomGhost;
},
{
horizontal = 1;
place = "{713, -20}";
target = down;
type = TopGhost;
}
);
layerId = UUID0;
paths = (
{
closed = 1;
nodes = (
"522 0 LINE",
"287 398 LINE",
"507 713 LINE",
"413 713 LINE",
"340 611 OFFCURVE",
"249 482 OFFCURVE",
"176 381 CURVE",
"176 713 LINE",
"95 713 LINE",
"95 0 LINE",
"176 0 LINE",
"176 247 LINE",
"233 331 LINE",
"429 0 LINE"
);
}
);
width = 600;
}
);
unicode = 004B;
},
{
glyphname = L;
lastChange = "2018-10-27 09:40:54 +0000";
layers = (
{
background = {
paths = (
{
closed = 1;
nodes = (
"497 0 LINE",
"497 78 LINE",
"191 78 LINE",
"191 713 LINE",
"111 713 LINE",
"111 0 LINE"
);
}
);
};
hints = (
{
place = "{111, 80}";
type = Stem;
},
{
horizontal = 1;
place = "{0, 78}";
type = Stem;
},
{
horizontal = 1;
place = "{713, -20}";
target = down;
type = TopGhost;
}
);
layerId = UUID0;
paths = (
{
closed = 1;
nodes = (
"497 0 LINE",
"497 78 LINE",
"191 78 LINE",
"191 713 LINE",
"111 713 LINE",
"111 0 LINE"
);
}
);
width = 600;
}
);
unicode = 004C;
},
{
glyphname = M;
lastChange = "2018-10-27 09:40:54 +0000";
layers = (
{
background = {
paths = (
{
closed = 1;
nodes = (
"157 0 LINE",
"157 510 LINE",
"175 515 LINE",
"297 218 LINE",
"363 218 LINE",
"402 315 OFFCURVE",
"445 417 OFFCURVE",
"484 512 CURVE",
"503 509 LINE",
"503 0 LINE",
"583 0 LINE",
"583 713 LINE",
"483 713 LINE",
"330 340 LINE",
"175 713 LINE",
"77 713 LINE",
"77 0 LINE"
);
}
);
};
hints = (
{
place = "{77, 80}";
type = Stem;
},
{
place = "{503, 80}";
type = Stem;
},
{
horizontal = 1;
place = "{1, 21}";
target = up;
type = BottomGhost;
},
{
horizontal = 1;
place = "{713, -20}";
target = down;
type = TopGhost;
}
);
layerId = UUID0;
paths = (
{
closed = 1;
nodes = (
"157 0 LINE",
"157 510 LINE",
"175 515 LINE",
"297 218 LINE",
"363 218 LINE",
"402 315 OFFCURVE",
"445 417 OFFCURVE",
"484 512 CURVE",
"503 509 LINE",
"503 0 LINE",
"583 0 LINE",
"583 713 LINE",
"483 713 LINE",
"330 340 LINE",
"175 713 LINE",
"77 713 LINE",
"77 0 LINE"
);
}
);
width = 650;
}
);
unicode = 004D;
},
{
glyphname = N;
lastChange = "2018-10-27 09:40:54 +0000";
layers = (
{
background = {
paths = (
{
closed = 1;
nodes = (
"508 0 LINE",
"508 713 LINE",
"428 713 LINE",
"428 202 LINE",
"410 198 LINE",
"192 713 LINE",
"100 713 LINE",
"100 0 LINE",
"180 0 LINE",
"180 503 LINE",
"197 507 LINE",
"412 0 LINE"
);
}
);
};
hints = (
{
place = "{100, 80}";
type = Stem;
},
{
place = "{428, 80}";
type = Stem;
},
{
horizontal = 1;
place = "{1, 21}";
target = up;
type = BottomGhost;
},
{
horizontal = 1;
place = "{713, -20}";
target = down;
type = TopGhost;
}
);
layerId = UUID0;
paths = (
{
closed = 1;
nodes = (
"508 0 LINE",
"508 713 LINE",
"428 713 LINE",
"428 202 LINE",
"410 198 LINE",
"192 713 LINE",
"100 713 LINE",
"100 0 LINE",
"180 0 LINE",
"180 503 LINE",
"197 507 LINE",
"412 0 LINE"
);
}
);
width = 600;
}
);
unicode = 004E;
},
{
glyphname = O;
lastChange = "2018-10-27 09:40:54 +0000";
layers = (
{
background = {
paths = (
{
closed = 1;
nodes = (
"507 530 LINE",
"507 593 OFFCURVE",
"461 719 OFFCURVE",
"305 719 CURVE SMOOTH",
"143 719 OFFCURVE",
"103 593 OFFCURVE",
"103 531 CURVE",
"103 184 LINE",
"103 120 OFFCURVE",
"147 -9 OFFCURVE",
"304 -9 CURVE SMOOTH",
"465 -9 OFFCURVE",
"507 119 OFFCURVE",
"507 183 CURVE"
);
},
{
closed = 1;
nodes = (
"427 183 LINE",
"427 83 OFFCURVE",
"343 69 OFFCURVE",
"305 69 CURVE SMOOTH",
"265 69 OFFCURVE",
"183 83 OFFCURVE",
"183 183 CURVE",
"183 528 LINE",
"183 627 OFFCURVE",
"265 641 OFFCURVE",
"305 641 CURVE SMOOTH",
"343 641 OFFCURVE",
"427 627 OFFCURVE",
"427 528 CURVE"
);
}
);
};
hints = (
{
place = "{103, 80}";
type = Stem;
},
{
place = "{427, 80}";
type = Stem;
},
{
horizontal = 1;
place = "{0, 78}";
type = Stem;
},
{
horizontal = 1;
place = "{635, 78}";
type = Stem;
}
);
layerId = UUID0;
paths = (
{
closed = 1;
nodes = (
"507 530 LINE",
"507 593 OFFCURVE",
"461 719 OFFCURVE",
"305 719 CURVE SMOOTH",
"143 719 OFFCURVE",
"103 593 OFFCURVE",
"103 531 CURVE",
"103 184 LINE",
"103 120 OFFCURVE",
"147 -9 OFFCURVE",
"304 -9 CURVE SMOOTH",
"465 -9 OFFCURVE",
"507 119 OFFCURVE",
"507 183 CURVE"
);
},
{
closed = 1;
nodes = (
"427 183 LINE",
"427 83 OFFCURVE",
"343 69 OFFCURVE",
"305 69 CURVE SMOOTH",
"265 69 OFFCURVE",
"183 83 OFFCURVE",
"183 183 CURVE",
"183 528 LINE",
"183 627 OFFCURVE",
"265 641 OFFCURVE",
"305 641 CURVE SMOOTH",
"343 641 OFFCURVE",
"427 627 OFFCURVE",
"427 528 CURVE"
);
}
);
width = 600;
}
);
unicode = 004F;
},
{
glyphname = P;
lastChange = "2018-10-27 09:40:54 +0000";
layers = (
{
background = {
paths = (
{
closed = 1;
nodes = (
"505 523 LINE",
"505 585 OFFCURVE",
"474 713 OFFCURVE",
"313 713 CURVE",
"102 713 LINE",
"102 0 LINE",
"182 0 LINE",
"182 280 LINE",
"317 280 LINE",
"474 280 OFFCURVE",
"505 408 OFFCURVE",
"505 471 CURVE"
);
},
{
closed = 1;
nodes = (
"425 472 LINE",
"425 373 OFFCURVE",
"354 358 OFFCURVE",
"312 358 CURVE",
"182 358 LINE",
"182 635 LINE",
"310 635 LINE",
"352 635 OFFCURVE",
"425 619 OFFCURVE",
"425 521 CURVE"
);
}
);
};
hints = (
{
place = "{102, 80}";
type = Stem;
},
{
place = "{425, 80}";
type = Stem;
},
{
horizontal = 1;
place = "{280, 78}";
type = Stem;
},
{
horizontal = 1;
place = "{635, 78}";
type = Stem;
},
{
horizontal = 1;
place = "{1, 21}";
target = up;
type = BottomGhost;
}
);
layerId = UUID0;
paths = (
{
closed = 1;
nodes = (
"505 523 LINE",
"505 585 OFFCURVE",
"474 713 OFFCURVE",
"313 713 CURVE",
"102 713 LINE",
"102 0 LINE",
"182 0 LINE",
"182 280 LINE",
"317 280 LINE",
"474 280 OFFCURVE",
"505 408 OFFCURVE",
"505 471 CURVE"
);
},
{
closed = 1;
nodes = (
"425 472 LINE",
"425 373 OFFCURVE",
"354 358 OFFCURVE",
"312 358 CURVE",
"182 358 LINE",
"182 635 LINE",
"310 635 LINE",
"352 635 OFFCURVE",
"425 619 OFFCURVE",
"425 521 CURVE"
);
}
);
width = 600;
}
);
unicode = 0050;
},
{
glyphname = Q;
lastChange = "2018-10-27 09:40:54 +0000";
layers = (
{
background = {
paths = (
{
closed = 1;
nodes = (
"265 -105 LINE",
"339 -105 LINE",
"339 -7 LINE",
"478 11 OFFCURVE",
"506 126 OFFCURVE",
"506 183 CURVE",
"506 530 LINE",
"506 593 OFFCURVE",
"460 719 OFFCURVE",
"304 719 CURVE SMOOTH",
"142 719 OFFCURVE",
"102 593 OFFCURVE",
"102 531 CURVE",
"102 184 LINE",
"102 128 OFFCURVE",
"149 22 OFFCURVE",
"265 -6 CURVE"
);
},
{
closed = 1;
nodes = (
"426 182 LINE",
"426 115 OFFCURVE",
"383 82 OFFCURVE",
"339 70 CURVE",
"339 205 LINE",
"265 205 LINE",
"265 71 LINE",
"223 83 OFFCURVE",
"182 116 OFFCURVE",
"182 182 CURVE",
"182 528 LINE",
"182 627 OFFCURVE",
"264 641 OFFCURVE",
"304 641 CURVE SMOOTH",
"342 641 OFFCURVE",
"426 627 OFFCURVE",
"426 528 CURVE"
);
}
);
};
hints = (
{
place = "{102, 80}";
type = Stem;
},
{
place = "{265, 74}";
type = Stem;
},
{
place = "{426, 80}";
type = Stem;
},
{
horizontal = 1;
place = "{635, 78}";
type = Stem;
},
{
horizontal = 1;
place = "{-104, 21}";
target = up;
type = BottomGhost;
}
);
layerId = UUID0;
paths = (
{
closed = 1;
nodes = (
"265 -105 LINE",
"339 -105 LINE",
"339 -7 LINE",
"478 11 OFFCURVE",
"506 126 OFFCURVE",
"506 183 CURVE",
"506 530 LINE",
"506 593 OFFCURVE",
"460 719 OFFCURVE",
"304 719 CURVE SMOOTH",
"142 719 OFFCURVE",
"102 593 OFFCURVE",
"102 531 CURVE",
"102 184 LINE",
"102 128 OFFCURVE",
"149 22 OFFCURVE",
"265 -6 CURVE"
);
},
{
closed = 1;
nodes = (
"426 182 LINE",
"426 115 OFFCURVE",
"383 82 OFFCURVE",
"339 70 CURVE",
"339 205 LINE",
"265 205 LINE",
"265 71 LINE",
"223 83 OFFCURVE",
"182 116 OFFCURVE",
"182 182 CURVE",
"182 528 LINE",
"182 627 OFFCURVE",
"264 641 OFFCURVE",
"304 641 CURVE SMOOTH",
"342 641 OFFCURVE",
"426 627 OFFCURVE",
"426 528 CURVE"
);
}
);
width = 600;
}
);
unicode = 0051;
},
{
glyphname = R;
lastChange = "2018-10-27 09:40:54 +0000";
layers = (
{
background = {
paths = (
{
closed = 1;
nodes = (
"518 0 LINE",
"374 306 LINE",
"477 343 OFFCURVE",
"501 438 OFFCURVE",
"501 490 CURVE",
"501 524 LINE",
"501 586 OFFCURVE",
"469 713 OFFCURVE",
"306 713 CURVE",
"95 713 LINE",
"95 0 LINE",
"176 0 LINE",
"176 299 LINE",
"288 299 LINE",
"428 0 LINE"
);
},
{
closed = 1;
nodes = (
"421 491 LINE",
"421 392 OFFCURVE",
"349 378 OFFCURVE",
"306 378 CURVE",
"176 378 LINE",
"176 635 LINE",
"304 635 LINE",
"347 635 OFFCURVE",
"421 619 OFFCURVE",
"421 521 CURVE"
);
}
);
};
hints = (
{
place = "{95, 81}";
type = Stem;
},
{
place = "{421, 80}";
type = Stem;
},
{
horizontal = 1;
place = "{299, 79}";
type = Stem;
},
{
horizontal = 1;
place = "{635, 78}";
type = Stem;
},
{
horizontal = 1;
place = "{1, 21}";
target = up;
type = BottomGhost;
}
);
layerId = UUID0;
paths = (
{
closed = 1;
nodes = (
"518 0 LINE",
"374 306 LINE",
"477 343 OFFCURVE",
"501 438 OFFCURVE",
"501 490 CURVE",
"501 524 LINE",
"501 586 OFFCURVE",
"469 713 OFFCURVE",
"306 713 CURVE",
"95 713 LINE",
"95 0 LINE",
"176 0 LINE",
"176 299 LINE",
"288 299 LINE",
"428 0 LINE"
);
},
{
closed = 1;
nodes = (
"421 491 LINE",
"421 392 OFFCURVE",
"349 378 OFFCURVE",
"306 378 CURVE",
"176 378 LINE",
"176 635 LINE",
"304 635 LINE",
"347 635 OFFCURVE",
"421 619 OFFCURVE",
"421 521 CURVE"
);
}
);
width = 600;
}
);
unicode = 0052;
},
{
glyphname = S;
lastChange = "2018-10-27 09:40:54 +0000";
layers = (
{
background = {
paths = (
{
closed = 1;
nodes = (
"515 262 OFFCURVE",
"477 327 OFFCURVE",
"405 365 CURVE",
"374 383 OFFCURVE",
"340 400 OFFCURVE",
"304 418 CURVE",
"246 447 LINE",
"207 467 OFFCURVE",
"186 498 OFFCURVE",
"186 537 CURVE SMOOTH",
"186 604 OFFCURVE",
"236 641 OFFCURVE",
"302 641 CURVE SMOOTH",
"371 641 OFFCURVE",
"424 609 OFFCURVE",
"426 541 CURVE",
"506 541 LINE",
"502 645 OFFCURVE",
"420 719 OFFCURVE",
"302 719 CURVE SMOOTH",
"187 719 OFFCURVE",
"106 644 OFFCURVE",
"106 539 CURVE SMOOTH",
"106 469 OFFCURVE",
"145 408 OFFCURVE",
"199 381 CURVE SMOOTH",
"289 337 OFFCURVE",
"338 311 OFFCURVE",
"368 293 CURVE SMOOTH",
"406 271 OFFCURVE",
"436 237 OFFCURVE",
"436 185 CURVE SMOOTH",
"436 117 OFFCURVE",
"384 69 OFFCURVE",
"300 69 CURVE SMOOTH",
"228 69 OFFCURVE",
"176 103 OFFCURVE",
"173 173 CURVE",
"92 173 LINE",
"97 68 OFFCURVE",
"178 -9 OFFCURVE",
"301 -9 CURVE SMOOTH",
"422 -9 OFFCURVE",
"515 72 OFFCURVE",
"515 183 CURVE SMOOTH"
);
}
);
};
hints = (
{
place = "{106, 80}";
type = Stem;
},
{
place = "{435, 80}";
type = Stem;
},
{
horizontal = 1;
place = "{0, 78}";
type = Stem;
},
{
horizontal = 1;
place = "{635, 78}";
type = Stem;
}
);
layerId = UUID0;
paths = (
{
closed = 1;
nodes = (
"515 262 OFFCURVE",
"477 327 OFFCURVE",
"405 365 CURVE",
"374 383 OFFCURVE",
"340 400 OFFCURVE",
"304 418 CURVE",
"246 447 LINE",
"207 467 OFFCURVE",
"186 498 OFFCURVE",
"186 537 CURVE SMOOTH",
"186 604 OFFCURVE",
"236 641 OFFCURVE",
"302 641 CURVE SMOOTH",
"371 641 OFFCURVE",
"424 609 OFFCURVE",
"426 541 CURVE",
"506 541 LINE",
"502 645 OFFCURVE",
"420 719 OFFCURVE",
"302 719 CURVE SMOOTH",
"187 719 OFFCURVE",
"106 644 OFFCURVE",
"106 539 CURVE SMOOTH",
"106 469 OFFCURVE",
"145 408 OFFCURVE",
"199 381 CURVE SMOOTH",
"289 337 OFFCURVE",
"338 311 OFFCURVE",
"368 293 CURVE SMOOTH",
"406 271 OFFCURVE",
"436 237 OFFCURVE",
"436 185 CURVE SMOOTH",
"436 117 OFFCURVE",
"384 69 OFFCURVE",
"300 69 CURVE SMOOTH",
"228 69 OFFCURVE",
"176 103 OFFCURVE",
"173 173 CURVE",
"92 173 LINE",
"97 68 OFFCURVE",
"178 -9 OFFCURVE",
"301 -9 CURVE SMOOTH",
"422 -9 OFFCURVE",
"515 72 OFFCURVE",
"515 183 CURVE SMOOTH"
);
}
);
width = 600;
}
);
unicode = 0053;
},
{
glyphname = T;
lastChange = "2018-10-27 09:40:54 +0000";
layers = (
{
background = {
paths = (
{
closed = 1;
nodes = (
"516 635 LINE",
"516 713 LINE",
"90 713 LINE",
"90 635 LINE",
"263 635 LINE",
"263 0 LINE",
"343 0 LINE",
"343 635 LINE"
);
}
);
};
hints = (
{
place = "{263, 80}";
type = Stem;
},
{
horizontal = 1;
place = "{635, 78}";
type = Stem;
},
{
horizontal = 1;
place = "{1, 21}";
target = up;
type = BottomGhost;
}
);
layerId = UUID0;
paths = (
{
closed = 1;
nodes = (
"516 635 LINE",
"516 713 LINE",
"90 713 LINE",
"90 635 LINE",
"263 635 LINE",
"263 0 LINE",
"343 0 LINE",
"343 635 LINE"
);
}
);
width = 600;
}
);
unicode = 0054;
},
{
glyphname = U;
lastChange = "2018-10-27 09:40:54 +0000";
layers = (
{
background = {
paths = (
{
closed = 1;
nodes = (
"507 713 LINE",
"427 713 LINE",
"427 184 LINE",
"427 84 OFFCURVE",
"344 69 OFFCURVE",
"305 69 CURVE SMOOTH",
"266 69 OFFCURVE",
"183 84 OFFCURVE",
"183 184 CURVE",
"183 713 LINE",
"103 713 LINE",
"103 184 LINE",
"103 116 OFFCURVE",
"143 -9 OFFCURVE",
"305 -9 CURVE SMOOTH",
"468 -9 OFFCURVE",
"507 116 OFFCURVE",
"507 183 CURVE"
);
}
);
};
hints = (
{
place = "{103, 80}";
type = Stem;
},
{
place = "{427, 80}";
type = Stem;
},
{
horizontal = 1;
place = "{0, 78}";
type = Stem;
},
{
horizontal = 1;
place = "{713, -20}";
target = down;
type = TopGhost;
}
);
layerId = UUID0;
paths = (
{
closed = 1;
nodes = (
"507 713 LINE",
"427 713 LINE",
"427 184 LINE",
"427 84 OFFCURVE",
"344 69 OFFCURVE",
"305 69 CURVE SMOOTH",
"266 69 OFFCURVE",
"183 84 OFFCURVE",
"183 184 CURVE",
"183 713 LINE",
"103 713 LINE",
"103 184 LINE",
"103 116 OFFCURVE",
"143 -9 OFFCURVE",
"305 -9 CURVE SMOOTH",
"468 -9 OFFCURVE",
"507 116 OFFCURVE",
"507 183 CURVE"
);
}
);
width = 600;
}
);
unicode = 0055;
},
{
glyphname = V;
lastChange = "2018-10-27 09:40:54 +0000";
layers = (
{
background = {
paths = (
{
closed = 1;
nodes = (
"467 713 LINE",
"314 83 LINE",
"295 83 LINE",
"144 713 LINE",
"62 713 LINE",
"242 0 LINE",
"369 0 LINE",
"430 242 OFFCURVE",
"485 470 OFFCURVE",
"546 713 CURVE"
);
}
);
};
hints = (
{
horizontal = 1;
place = "{713, -20}";
target = down;
type = TopGhost;
},
{
horizontal = 1;
place = "{1, 21}";
target = up;
type = BottomGhost;
}
);
layerId = UUID0;
paths = (
{
closed = 1;
nodes = (
"467 713 LINE",
"314 83 LINE",
"295 83 LINE",
"144 713 LINE",
"62 713 LINE",
"242 0 LINE",
"369 0 LINE",
"430 242 OFFCURVE",
"485 470 OFFCURVE",
"546 713 CURVE"
);
}
);
width = 600;
}
);
unicode = 0056;
},
{
glyphname = W;
lastChange = "2018-10-27 09:40:54 +0000";
layers = (
{
background = {
paths = (
{
closed = 1;
nodes = (
"645 713 LINE",
"560 713 LINE",
"474 184 LINE",
"455 184 LINE",
"366 589 LINE",
"297 589 LINE",
"205 183 LINE",
"187 183 LINE",
"100 713 LINE",
"16 713 LINE",
"142 0 LINE",
"236 0 LINE",
"321 373 LINE",
"340 373 LINE",
"424 0 LINE",
"518 0 LINE"
);
}
);
};
hints = (
{
horizontal = 1;
place = "{713, -20}";
target = down;
type = TopGhost;
},
{
horizontal = 1;
place = "{1, 21}";
target = up;
type = BottomGhost;
}
);
layerId = UUID0;
paths = (
{
closed = 1;
nodes = (
"645 713 LINE",
"560 713 LINE",
"474 184 LINE",
"455 184 LINE",
"366 589 LINE",
"297 589 LINE",
"205 183 LINE",
"187 183 LINE",
"100 713 LINE",
"16 713 LINE",
"142 0 LINE",
"236 0 LINE",
"321 373 LINE",
"340 373 LINE",
"424 0 LINE",
"518 0 LINE"
);
}
);
width = 650;
}
);
unicode = 0057;
},
{
glyphname = X;
lastChange = "2018-10-27 09:40:54 +0000";
layers = (
{
background = {
paths = (
{
closed = 1;
nodes = (
"533 0 LINE",
"347 359 LINE",
"531 713 LINE",
"443 713 LINE",
"399 627 OFFCURVE",
"346 522 OFFCURVE",
"302 435 CURVE",
"165 713 LINE",
"76 713 LINE",
"137 596 OFFCURVE",
"198 473 OFFCURVE",
"259 357 CURVE",
"74 0 LINE",
"166 0 LINE",
"303 277 LINE",
"441 0 LINE"
);
}
);
};
hints = (
{
horizontal = 1;
place = "{1, 21}";
target = up;
type = BottomGhost;
},
{
horizontal = 1;
place = "{713, -20}";
target = down;
type = TopGhost;
}
);
layerId = UUID0;
paths = (
{
closed = 1;
nodes = (
"533 0 LINE",
"347 359 LINE",
"531 713 LINE",
"443 713 LINE",
"302 435 LINE",
"165 713 LINE",
"76 713 LINE",
"137 596 OFFCURVE",
"198 473 OFFCURVE",
"259 357 CURVE",
"74 0 LINE",
"166 0 LINE",
"303 277 LINE",
"441 0 LINE"
);
}
);
width = 600;
}
);
unicode = 0058;
},
{
glyphname = Y;
lastChange = "2018-10-27 09:40:54 +0000";
layers = (
{
background = {
paths = (
{
closed = 1;
nodes = (
"532 713 LINE",
"445 713 LINE",
"401 602 OFFCURVE",
"347 469 OFFCURVE",
"303 359 CURVE",
"162 713 LINE",
"75 713 LINE",
"137 562 OFFCURVE",
"201 411 OFFCURVE",
"263 259 CURVE",
"263 0 LINE",
"343 0 LINE",
"343 257 LINE"
);
}
);
};
hints = (
{
place = "{263, 80}";
type = Stem;
},
{
horizontal = 1;
place = "{713, -20}";
target = down;
type = TopGhost;
},
{
horizontal = 1;
place = "{1, 21}";
target = up;
type = BottomGhost;
}
);
layerId = UUID0;
paths = (
{
closed = 1;
nodes = (
"532 713 LINE",
"445 713 LINE",
"303 359 LINE",
"162 713 LINE",
"75 713 LINE",
"137 562 OFFCURVE",
"201 411 OFFCURVE",
"263 259 CURVE",
"263 0 LINE",
"343 0 LINE",
"343 257 LINE"
);
}
);
width = 600;
}
);
unicode = 0059;
},
{
glyphname = Z;
lastChange = "2018-10-27 09:40:54 +0000";
layers = (
{
background = {
paths = (
{
closed = 1;
nodes = (
"501 0 LINE",
"501 78 LINE",
"190 78 LINE",
"486 643 LINE",
"486 713 LINE",
"116 713 LINE",
"116 635 LINE",
"398 635 LINE",
"102 72 LINE",
"102 0 LINE"
);
}
);
};
hints = (
{
horizontal = 1;
place = "{0, 78}";
type = Stem;
},
{
horizontal = 1;
place = "{635, 78}";
type = Stem;
}
);
layerId = UUID0;
paths = (
{
closed = 1;
nodes = (
"501 0 LINE",
"501 78 LINE",
"190 78 LINE",
"486 643 LINE",
"486 713 LINE",
"116 713 LINE",
"116 635 LINE",
"398 635 LINE",
"102 72 LINE",
"102 0 LINE"
);
}
);
width = 600;
}
);
unicode = 005A;
},
{
glyphname = bracketleft;
lastChange = "2018-10-27 09:40:54 +0000";
layers = (
{
background = {
paths = (
{
closed = 1;
nodes = (
"374 -88 LINE",
"374 -16 LINE",
"283 -16 LINE",
"283 718 LINE",
"374 718 LINE",
"374 790 LINE",
"206 790 LINE",
"206 -88 LINE"
);
}
);
};
hints = (
{
place = "{206, 77}";
type = Stem;
},
{
horizontal = 1;
place = "{-88, 72}";
type = Stem;
},
{
horizontal = 1;
place = "{718, 72}";
type = Stem;
}
);
layerId = UUID0;
paths = (
{
closed = 1;
nodes = (
"374 -88 LINE",
"374 -16 LINE",
"283 -16 LINE",
"283 718 LINE",
"374 718 LINE",
"374 790 LINE",
"206 790 LINE",
"206 -88 LINE"
);
}
);
width = 550;
}
);
unicode = 005B;
},
{
glyphname = backslash;
lastChange = "2018-10-27 09:40:54 +0000";
layers = (
{
background = {
paths = (
{
closed = 1;
nodes = (
"378 -52 LINE",
"455 -52 LINE",
"364 228 OFFCURVE",
"271 505 OFFCURVE",
"180 785 CURVE",
"105 785 LINE"
);
}
);
};
hints = (
{
horizontal = 1;
place = "{-51, 21}";
target = up;
type = BottomGhost;
},
{
horizontal = 1;
place = "{785, -20}";
target = down;
type = TopGhost;
}
);
layerId = UUID0;
paths = (
{
closed = 1;
nodes = (
"378 -52 LINE",
"455 -52 LINE",
"364 228 OFFCURVE",
"271 505 OFFCURVE",
"180 785 CURVE",
"105 785 LINE"
);
}
);
width = 550;
}
);
unicode = 005C;
},
{
glyphname = bracketright;
lastChange = "2018-10-27 09:40:54 +0000";
layers = (
{
background = {
paths = (
{
closed = 1;
nodes = (
"361 -89 LINE",
"361 790 LINE",
"192 790 LINE",
"192 718 LINE",
"283 718 LINE",
"283 -17 LINE",
"192 -17 LINE",
"192 -89 LINE"
);
}
);
};
hints = (
{
place = "{283, 78}";
type = Stem;
},
{
horizontal = 1;
place = "{-89, 72}";
type = Stem;
},
{
horizontal = 1;
place = "{718, 72}";
type = Stem;
}
);
layerId = UUID0;
paths = (
{
closed = 1;
nodes = (
"361 -89 LINE",
"361 790 LINE",
"192 790 LINE",
"192 718 LINE",
"283 718 LINE",
"283 -17 LINE",
"192 -17 LINE",
"192 -89 LINE"
);
}
);
width = 550;
}
);
unicode = 005D;
},
{
glyphname = asciicircum;
lastChange = "2018-10-27 09:40:54 +0000";
layers = (
{
background = {
paths = (
{
closed = 1;
nodes = (
"481 432 LINE",
"434 521 OFFCURVE",
"389 610 OFFCURVE",
"342 699 CURVE",
"272 699 LINE",
"129 432 LINE",
"214 432 LINE",
"306 605 LINE",
"399 432 LINE"
);
}
);
};
hints = (
{
horizontal = 1;
place = "{432, 25}";
type = Stem;
},
{
horizontal = 1;
place = "{699, -20}";
target = down;
type = TopGhost;
}
);
layerId = UUID0;
paths = (
{
closed = 1;
nodes = (
"481 432 LINE",
"434 521 OFFCURVE",
"389 610 OFFCURVE",
"342 699 CURVE",
"272 699 LINE",
"129 432 LINE",
"214 432 LINE",
"306 605 LINE",
"399 432 LINE"
);
}
);
width = 600;
}
);
unicode = 005E;
},
{
glyphname = underscore;
lastChange = "2018-10-27 09:40:54 +0000";
layers = (
{
background = {
paths = (
{
closed = 1;
nodes = (
"571 -172 LINE",
"571 -104 LINE",
"40 -104 LINE",
"40 -172 LINE"
);
}
);
};
hints = (
{
horizontal = 1;
place = "{-172, 68}";
type = Stem;
}
);
layerId = UUID0;
paths = (
{
closed = 1;
nodes = (
"571 -172 LINE",
"571 -104 LINE",
"40 -104 LINE",
"40 -172 LINE"
);
}
);
width = 600;
}
);
unicode = 005F;
},
{
glyphname = grave;
lastChange = "2018-10-27 09:40:54 +0000";
layers = (
{
background = {
paths = (
{
closed = 1;
nodes = (
"396 626 LINE",
"320 781 LINE",
"230 781 LINE",
"323 626 LINE"
);
}
);
};
hints = (
{
horizontal = 1;
place = "{625, 156}";
type = Stem;
}
);
layerId = UUID0;
paths = (
{
closed = 1;
nodes = (
"396 626 LINE",
"320 781 LINE",
"230 781 LINE",
"323 626 LINE"
);
}
);
width = 600;
}
);
unicode = 0060;
},
{
glyphname = a;
lastChange = "2018-10-27 09:40:54 +0000";
layers = (
{
background = {
paths = (
{
closed = 1;
nodes = (
"474 365 LINE",
"474 492 OFFCURVE",
"380 535 OFFCURVE",
"291 535 CURVE SMOOTH",
"217 535 OFFCURVE",
"119 492 OFFCURVE",
"104 379 CURVE",
"183 379 LINE",
"196 437 OFFCURVE",
"243 458 OFFCURVE",
"292 458 CURVE SMOOTH",
"352 458 OFFCURVE",
"395 438 OFFCURVE",
"395 361 CURVE",
"395 311 LINE",
"257 311 LINE",
"160 311 OFFCURVE",
"83 261 OFFCURVE",
"83 163 CURVE SMOOTH",
"83 43 OFFCURVE",
"176 -9 OFFCURVE",
"258 -9 CURVE SMOOTH",
"305 -9 OFFCURVE",
"362 5 OFFCURVE",
"395 51 CURVE",
"395 0 LINE",
"474 0 LINE"
);
},
{
closed = 1;
nodes = (
"395 180 LINE",
"395 110 OFFCURVE",
"332 65 OFFCURVE",
"271 65 CURVE SMOOTH",
"216 65 OFFCURVE",
"162 87 OFFCURVE",
"162 163 CURVE SMOOTH",
"162 217 OFFCURVE",
"203 238 OFFCURVE",
"258 238 CURVE",
"395 238 LINE"
);
}
);
};
hints = (
{
place = "{83, 79}";
type = Stem;
},
{
place = "{395, 79}";
type = Stem;
},
{
horizontal = 1;
place = "{0, 77}";
type = Stem;
},
{
horizontal = 1;
place = "{238, 73}";
type = Stem;
},
{
horizontal = 1;
place = "{451, 77}";
type = Stem;
}
);
layerId = UUID0;
paths = (
{
closed = 1;
nodes = (
"474 365 LINE",
"474 492 OFFCURVE",
"380 535 OFFCURVE",
"291 535 CURVE SMOOTH",
"217 535 OFFCURVE",
"119 492 OFFCURVE",
"104 379 CURVE",
"183 379 LINE",
"196 437 OFFCURVE",
"243 458 OFFCURVE",
"292 458 CURVE SMOOTH",
"352 458 OFFCURVE",
"395 438 OFFCURVE",
"395 361 CURVE",
"395 311 LINE",
"257 311 LINE",
"160 311 OFFCURVE",
"83 261 OFFCURVE",
"83 163 CURVE SMOOTH",
"83 43 OFFCURVE",
"176 -9 OFFCURVE",
"258 -9 CURVE SMOOTH",
"305 -9 OFFCURVE",
"362 5 OFFCURVE",
"395 51 CURVE",
"395 0 LINE",
"474 0 LINE"
);
},
{
closed = 1;
nodes = (
"395 180 LINE",
"395 110 OFFCURVE",
"332 65 OFFCURVE",
"271 65 CURVE SMOOTH",
"216 65 OFFCURVE",
"162 87 OFFCURVE",
"162 163 CURVE SMOOTH",
"162 217 OFFCURVE",
"203 238 OFFCURVE",
"258 238 CURVE",
"395 238 LINE"
);
}
);
width = 550;
}
);
unicode = 0061;
},
{
glyphname = b;
lastChange = "2018-10-27 09:40:54 +0000";
layers = (
{
background = {
paths = (
{
closed = 1;
nodes = (
"399 182 LINE",
"399 112 OFFCURVE",
"354 68 OFFCURVE",
"282 68 CURVE SMOOTH",
"187 68 OFFCURVE",
"163 128 OFFCURVE",
"163 181 CURVE",
"163 346 LINE",
"163 417 OFFCURVE",
"210 458 OFFCURVE",
"282 458 CURVE SMOOTH",
"376 458 OFFCURVE",
"399 397 OFFCURVE",
"399 346 CURVE"
);
},
{
closed = 1;
nodes = (
"479 346 LINE",
"479 463 OFFCURVE",
"400 535 OFFCURVE",
"282 535 CURVE SMOOTH",
"241 535 OFFCURVE",
"189 514 OFFCURVE",
"163 480 CURVE",
"163 724 LINE",
"84 724 LINE",
"84 0 LINE",
"163 0 LINE",
"163 42 LINE",
"187 12 OFFCURVE",
"242 -9 OFFCURVE",
"282 -9 CURVE SMOOTH",
"398 -9 OFFCURVE",
"479 67 OFFCURVE",
"479 182 CURVE"
);
}
);
};
hints = (
{
place = "{84, 79}";
type = Stem;
},
{
place = "{399, 80}";
type = Stem;
},
{
horizontal = 1;
place = "{0, 76}";
type = Stem;
},
{
horizontal = 1;
place = "{450, 78}";
type = Stem;
},
{
horizontal = 1;
place = "{724, -20}";
target = down;
type = TopGhost;
}
);
layerId = UUID0;
paths = (
{
closed = 1;
nodes = (
"399 182 LINE",
"399 112 OFFCURVE",
"354 68 OFFCURVE",
"282 68 CURVE SMOOTH",
"187 68 OFFCURVE",
"163 128 OFFCURVE",
"163 181 CURVE",
"163 346 LINE",
"163 417 OFFCURVE",
"210 458 OFFCURVE",
"282 458 CURVE SMOOTH",
"376 458 OFFCURVE",
"399 397 OFFCURVE",
"399 346 CURVE"
);
},
{
closed = 1;
nodes = (
"479 346 LINE",
"479 463 OFFCURVE",
"400 535 OFFCURVE",
"282 535 CURVE SMOOTH",
"241 535 OFFCURVE",
"189 514 OFFCURVE",
"163 480 CURVE",
"163 724 LINE",
"84 724 LINE",
"84 0 LINE",
"163 0 LINE",
"163 42 LINE",
"187 12 OFFCURVE",
"242 -9 OFFCURVE",
"282 -9 CURVE SMOOTH",
"398 -9 OFFCURVE",
"479 67 OFFCURVE",
"479 182 CURVE"
);
}
);
width = 550;
}
);
unicode = 0062;
},
{
glyphname = c;
lastChange = "2018-10-27 09:40:54 +0000";
layers = (
{
background = {
paths = (
{
closed = 1;
nodes = (
"166 535 OFFCURVE",
"86 461 OFFCURVE",
"86 346 CURVE",
"86 181 LINE",
"86 64 OFFCURVE",
"164 -10 OFFCURVE",
"283 -10 CURVE SMOOTH",
"388 -10 OFFCURVE",
"461 53 OFFCURVE",
"478 159 CURVE",
"395 159 LINE",
"384 99 OFFCURVE",
"344 67 OFFCURVE",
"283 67 CURVE SMOOTH",
"188 67 OFFCURVE",
"165 128 OFFCURVE",
"165 181 CURVE",
"165 346 LINE",
"165 417 OFFCURVE",
"209 458 OFFCURVE",
"283 458 CURVE SMOOTH",
"354 458 OFFCURVE",
"386 414 OFFCURVE",
"397 367 CURVE",
"478 367 LINE",
"462 472 OFFCURVE",
"388 535 OFFCURVE",
"283 535 CURVE SMOOTH"
);
}
);
};
hints = (
{
place = "{86, 79}";
type = Stem;
},
{
horizontal = 1;
place = "{0, 77}";
type = Stem;
},
{
horizontal = 1;
place = "{450, 78}";
type = Stem;
}
);
layerId = UUID0;
paths = (
{
closed = 1;
nodes = (
"166 535 OFFCURVE",
"86 461 OFFCURVE",
"86 346 CURVE",
"86 181 LINE",
"86 64 OFFCURVE",
"164 -10 OFFCURVE",
"283 -10 CURVE SMOOTH",
"388 -10 OFFCURVE",
"461 53 OFFCURVE",
"478 159 CURVE",
"395 159 LINE",
"384 99 OFFCURVE",
"344 67 OFFCURVE",
"283 67 CURVE SMOOTH",
"188 67 OFFCURVE",
"165 128 OFFCURVE",
"165 181 CURVE",
"165 346 LINE",
"165 417 OFFCURVE",
"209 458 OFFCURVE",
"283 458 CURVE SMOOTH",
"354 458 OFFCURVE",
"386 414 OFFCURVE",
"397 367 CURVE",
"478 367 LINE",
"462 472 OFFCURVE",
"388 535 OFFCURVE",
"283 535 CURVE SMOOTH"
);
}
);
width = 550;
}
);
unicode = 0063;
},
{
glyphname = d;
lastChange = "2018-10-27 09:40:54 +0000";
layers = (
{
background = {
paths = (
{
closed = 1;
nodes = (
"163 346 LINE",
"163 397 OFFCURVE",
"186 458 OFFCURVE",
"280 458 CURVE SMOOTH",
"352 458 OFFCURVE",
"399 417 OFFCURVE",
"399 346 CURVE",
"399 181 LINE",
"399 128 OFFCURVE",
"375 68 OFFCURVE",
"280 68 CURVE SMOOTH",
"208 68 OFFCURVE",
"163 112 OFFCURVE",
"163 182 CURVE"
);
},
{
closed = 1;
nodes = (
"84 182 LINE",
"84 67 OFFCURVE",
"164 -9 OFFCURVE",
"280 -9 CURVE SMOOTH",
"342 -9 OFFCURVE",
"375 16 OFFCURVE",
"399 46 CURVE",
"399 0 LINE",
"479 0 LINE",
"479 724 LINE",
"399 724 LINE",
"399 477 LINE",
"373 511 OFFCURVE",
"334 535 OFFCURVE",
"280 535 CURVE SMOOTH",
"162 535 OFFCURVE",
"84 463 OFFCURVE",
"84 346 CURVE"
);
}
);
};
hints = (
{
place = "{84, 79}";
type = Stem;
},
{
place = "{399, 80}";
type = Stem;
},
{
horizontal = 1;
place = "{0, 77}";
type = Stem;
},
{
horizontal = 1;
place = "{450, 78}";
type = Stem;
},
{
horizontal = 1;
place = "{724, -20}";
target = down;
type = TopGhost;
}
);
layerId = UUID0;
paths = (
{
closed = 1;
nodes = (
"163 346 LINE",
"163 397 OFFCURVE",
"186 458 OFFCURVE",
"280 458 CURVE SMOOTH",
"352 458 OFFCURVE",
"399 417 OFFCURVE",
"399 346 CURVE",
"399 181 LINE",
"399 128 OFFCURVE",
"375 68 OFFCURVE",
"280 68 CURVE SMOOTH",
"208 68 OFFCURVE",
"163 112 OFFCURVE",
"163 182 CURVE"
);
},
{
closed = 1;
nodes = (
"84 182 LINE",
"84 67 OFFCURVE",
"164 -9 OFFCURVE",
"280 -9 CURVE SMOOTH",
"342 -9 OFFCURVE",
"375 16 OFFCURVE",
"399 46 CURVE",
"399 0 LINE",
"479 0 LINE",
"479 724 LINE",
"399 724 LINE",
"399 477 LINE",
"373 511 OFFCURVE",
"334 535 OFFCURVE",
"280 535 CURVE SMOOTH",
"162 535 OFFCURVE",
"84 463 OFFCURVE",
"84 346 CURVE"
);
}
);
width = 550;
}
);
unicode = 0064;
},
{
glyphname = e;
lastChange = "2018-10-27 09:40:54 +0000";
layers = (
{
background = {
paths = (
{
closed = 1;
nodes = (
"480 346 LINE",
"480 463 OFFCURVE",
"399 535 OFFCURVE",
"281 535 CURVE SMOOTH",
"164 535 OFFCURVE",
"83 461 OFFCURVE",
"83 346 CURVE",
"83 181 LINE",
"83 64 OFFCURVE",
"162 -10 OFFCURVE",
"281 -10 CURVE SMOOTH",
"386 -10 OFFCURVE",
"460 53 OFFCURVE",
"476 159 CURVE",
"394 159 LINE",
"382 99 OFFCURVE",
"342 67 OFFCURVE",
"281 67 CURVE SMOOTH",
"186 67 OFFCURVE",
"162 127 OFFCURVE",
"162 180 CURVE",
"162 239 LINE",
"480 239 LINE"
);
},
{
closed = 1;
nodes = (
"400 313 LINE",
"162 313 LINE",
"162 346 LINE",
"162 417 OFFCURVE",
"207 458 OFFCURVE",
"281 458 CURVE SMOOTH",
"375 458 OFFCURVE",
"400 397 OFFCURVE",
"400 346 CURVE"
);
}
);
};
hints = (
{
place = "{83, 79}";
type = Stem;
},
{
place = "{400, 80}";
type = Stem;
},
{
horizontal = 1;
place = "{0, 77}";
type = Stem;
},
{
horizontal = 1;
place = "{240, 74}";
type = Stem;
},
{
horizontal = 1;
place = "{450, 78}";
type = Stem;
}
);
layerId = UUID0;
paths = (
{
closed = 1;
nodes = (
"480 346 LINE",
"480 463 OFFCURVE",
"399 535 OFFCURVE",
"281 535 CURVE SMOOTH",
"164 535 OFFCURVE",
"83 461 OFFCURVE",
"83 346 CURVE",
"83 181 LINE",
"83 64 OFFCURVE",
"162 -10 OFFCURVE",
"281 -10 CURVE SMOOTH",
"386 -10 OFFCURVE",
"460 53 OFFCURVE",
"476 159 CURVE",
"394 159 LINE",
"382 99 OFFCURVE",
"342 67 OFFCURVE",
"281 67 CURVE SMOOTH",
"186 67 OFFCURVE",
"162 127 OFFCURVE",
"162 180 CURVE",
"162 239 LINE",
"480 239 LINE"
);
},
{
closed = 1;
nodes = (
"400 313 LINE",
"162 313 LINE",
"162 346 LINE",
"162 417 OFFCURVE",
"207 458 OFFCURVE",
"281 458 CURVE SMOOTH",
"375 458 OFFCURVE",
"400 397 OFFCURVE",
"400 346 CURVE"
);
}
);
width = 550;
}
);
unicode = 0065;
},
{
glyphname = f;
lastChange = "2018-10-27 09:40:54 +0000";
layers = (
{
background = {
paths = (
{
closed = 1;
nodes = (
"493 571 LINE",
"493 679 OFFCURVE",
"416 729 OFFCURVE",
"332 729 CURVE SMOOTH",
"248 729 OFFCURVE",
"170 679 OFFCURVE",
"170 571 CURVE",
"170 440 LINE",
"70 440 LINE",
"70 362 LINE",
"170 362 LINE",
"170 0 LINE",
"250 0 LINE",
"250 362 LINE",
"401 362 LINE",
"401 440 LINE",
"250 440 LINE",
"250 578 LINE",
"250 630 OFFCURVE",
"293 652 OFFCURVE",
"332 652 CURVE SMOOTH",
"371 652 OFFCURVE",
"414 630 OFFCURVE",
"414 578 CURVE",
"414 565 LINE",
"493 565 LINE"
);
}
);
};
hints = (
{
place = "{170, 80}";
type = Stem;
},
{
place = "{414, 79}";
type = Stem;
},
{
horizontal = 1;
place = "{362, 78}";
type = Stem;
},
{
horizontal = 1;
place = "{647, 77}";
type = Stem;
},
{
horizontal = 1;
place = "{1, 21}";
target = up;
type = BottomGhost;
}
);
layerId = UUID0;
paths = (
{
closed = 1;
nodes = (
"493 571 LINE",
"493 679 OFFCURVE",
"416 729 OFFCURVE",
"332 729 CURVE SMOOTH",
"248 729 OFFCURVE",
"170 679 OFFCURVE",
"170 571 CURVE",
"170 440 LINE",
"70 440 LINE",
"70 362 LINE",
"170 362 LINE",
"170 0 LINE",
"250 0 LINE",
"250 362 LINE",
"401 362 LINE",
"401 440 LINE",
"250 440 LINE",
"250 578 LINE",
"250 630 OFFCURVE",
"293 652 OFFCURVE",
"332 652 CURVE SMOOTH",
"371 652 OFFCURVE",
"414 630 OFFCURVE",
"414 578 CURVE",
"414 565 LINE",
"493 565 LINE"
);
}
);
width = 550;
}
);
unicode = 0066;
},
{
glyphname = g;
lastChange = "2018-10-27 09:40:54 +0000";
layers = (
{
background = {
paths = (
{
closed = 1;
nodes = (
"395 -51 LINE",
"395 -148 OFFCURVE",
"333 -162 OFFCURVE",
"280 -162 CURVE SMOOTH",
"237 -162 OFFCURVE",
"203 -141 OFFCURVE",
"184 -107 CURVE",
"100 -107 LINE",
"122 -190 OFFCURVE",
"193 -236 OFFCURVE",
"280 -236 CURVE SMOOTH",
"378 -236 OFFCURVE",
"474 -195 OFFCURVE",
"474 -51 CURVE",
"474 525 LINE",
"395 525 LINE",
"395 485 LINE",
"370 515 OFFCURVE",
"321 535 OFFCURVE",
"281 535 CURVE SMOOTH",
"164 535 OFFCURVE",
"86 461 OFFCURVE",
"86 346 CURVE",
"86 181 LINE",
"86 64 OFFCURVE",
"162 -10 OFFCURVE",
"281 -10 CURVE SMOOTH",
"321 -10 OFFCURVE",
"368 8 OFFCURVE",
"395 39 CURVE"
);
},
{
closed = 1;
nodes = (
"395 180 LINE",
"395 110 OFFCURVE",
"352 67 OFFCURVE",
"281 67 CURVE SMOOTH",
"186 67 OFFCURVE",
"165 127 OFFCURVE",
"165 180 CURVE",
"165 345 LINE",
"165 416 OFFCURVE",
"209 458 OFFCURVE",
"281 458 CURVE SMOOTH",
"375 458 OFFCURVE",
"395 395 OFFCURVE",
"395 345 CURVE"
);
}
);
};
hints = (
{
place = "{86, 79}";
type = Stem;
},
{
place = "{395, 79}";
type = Stem;
},
{
horizontal = 1;
place = "{-236, 74}";
type = Stem;
},
{
horizontal = 1;
place = "{0, 77}";
type = Stem;
},
{
horizontal = 1;
place = "{450, 78}";
type = Stem;
}
);
layerId = UUID0;
paths = (
{
closed = 1;
nodes = (
"395 -51 LINE",
"395 -148 OFFCURVE",
"333 -162 OFFCURVE",
"280 -162 CURVE SMOOTH",
"237 -162 OFFCURVE",
"203 -141 OFFCURVE",
"184 -107 CURVE",
"100 -107 LINE",
"122 -190 OFFCURVE",
"193 -236 OFFCURVE",
"280 -236 CURVE SMOOTH",
"378 -236 OFFCURVE",
"474 -195 OFFCURVE",
"474 -51 CURVE",
"474 525 LINE",
"395 525 LINE",
"395 485 LINE",
"370 515 OFFCURVE",
"321 535 OFFCURVE",
"281 535 CURVE SMOOTH",
"164 535 OFFCURVE",
"86 461 OFFCURVE",
"86 346 CURVE",
"86 181 LINE",
"86 64 OFFCURVE",
"162 -10 OFFCURVE",
"281 -10 CURVE SMOOTH",
"321 -10 OFFCURVE",
"368 8 OFFCURVE",
"395 39 CURVE"
);
},
{
closed = 1;
nodes = (
"395 180 LINE",
"395 110 OFFCURVE",
"352 67 OFFCURVE",
"281 67 CURVE SMOOTH",
"186 67 OFFCURVE",
"165 127 OFFCURVE",
"165 180 CURVE",
"165 345 LINE",
"165 416 OFFCURVE",
"209 458 OFFCURVE",
"281 458 CURVE SMOOTH",
"375 458 OFFCURVE",
"395 395 OFFCURVE",
"395 345 CURVE"
);
}
);
width = 550;
}
);
unicode = 0067;
},
{
glyphname = h;
lastChange = "2018-10-27 09:40:54 +0000";
layers = (
{
background = {
paths = (
{
closed = 1;
nodes = (
"475 0 LINE",
"475 346 LINE",
"475 464 OFFCURVE",
"413 535 OFFCURVE",
"292 535 CURVE SMOOTH",
"256 535 OFFCURVE",
"207 521 OFFCURVE",
"166 486 CURVE",
"166 724 LINE",
"87 724 LINE",
"87 0 LINE",
"166 0 LINE",
"166 348 LINE",
"166 414 OFFCURVE",
"221 458 OFFCURVE",
"289 458 CURVE SMOOTH",
"385 458 OFFCURVE",
"396 395 OFFCURVE",
"396 345 CURVE",
"396 0 LINE"
);
}
);
};
hints = (
{
place = "{87, 79}";
type = Stem;
},
{
place = "{396, 79}";
type = Stem;
},
{
horizontal = 1;
place = "{450, 78}";
type = Stem;
},
{
horizontal = 1;
place = "{1, 21}";
target = up;
type = BottomGhost;
},
{
horizontal = 1;
place = "{724, -20}";
target = down;
type = TopGhost;
}
);
layerId = UUID0;
paths = (
{
closed = 1;
nodes = (
"475 0 LINE",
"475 346 LINE",
"475 464 OFFCURVE",
"413 535 OFFCURVE",
"292 535 CURVE SMOOTH",
"256 535 OFFCURVE",
"207 521 OFFCURVE",
"166 486 CURVE",
"166 724 LINE",
"87 724 LINE",
"87 0 LINE",
"166 0 LINE",
"166 348 LINE",
"166 414 OFFCURVE",
"221 458 OFFCURVE",
"289 458 CURVE SMOOTH",
"385 458 OFFCURVE",
"396 395 OFFCURVE",
"396 345 CURVE",
"396 0 LINE"
);
}
);
width = 550;
}
);
unicode = 0068;
},
{
glyphname = i;
lastChange = "2018-10-27 09:40:54 +0000";
layers = (
{
background = {
paths = (
{
closed = 1;
nodes = (
"89 450 LINE",
"244 450 LINE",
"244 77 LINE",
"90 77 LINE",
"90 0 LINE",
"474 0 LINE",
"474 77 LINE",
"323 77 LINE",
"323 528 LINE",
"89 528 LINE"
);
},
{
closed = 1;
nodes = (
"332 619 LINE",
"332 731 LINE",
"232 731 LINE",
"232 619 LINE"
);
}
);
};
hints = (
{
place = "{244, 79}";
type = Stem;
},
{
horizontal = 1;
place = "{0, 77}";
type = Stem;
},
{
horizontal = 1;
place = "{450, 78}";
type = Stem;
},
{
horizontal = 1;
place = "{619, 112}";
type = Stem;
}
);
layerId = UUID0;
paths = (
{
closed = 1;
nodes = (
"89 450 LINE",
"244 450 LINE",
"244 77 LINE",
"90 77 LINE",
"90 0 LINE",
"474 0 LINE",
"474 77 LINE",
"323 77 LINE",
"323 528 LINE",
"89 528 LINE"
);
},
{
closed = 1;
nodes = (
"332 619 LINE",
"332 731 LINE",
"232 731 LINE",
"232 619 LINE"
);
}
);
width = 550;
}
);
unicode = 0069;
},
{
glyphname = j;
lastChange = "2018-10-27 09:40:54 +0000";
layers = (
{
background = {
paths = (
{
closed = 1;
nodes = (
"82 -78 LINE",
"82 -185 OFFCURVE",
"160 -235 OFFCURVE",
"244 -235 CURVE SMOOTH",
"328 -235 OFFCURVE",
"405 -185 OFFCURVE",
"405 -78 CURVE",
"405 528 LINE",
"138 528 LINE",
"138 450 LINE",
"326 450 LINE",
"326 -84 LINE",
"326 -136 OFFCURVE",
"283 -158 OFFCURVE",
"244 -158 CURVE SMOOTH",
"205 -158 OFFCURVE",
"162 -136 OFFCURVE",
"162 -84 CURVE",
"162 -57 LINE",
"82 -57 LINE"
);
},
{
closed = 1;
nodes = (
"415 622 LINE",
"415 733 LINE",
"314 733 LINE",
"314 622 LINE"
);
}
);
};
hints = (
{
place = "{82, 80}";
type = Stem;
},
{
place = "{326, 79}";
type = Stem;
},
{
horizontal = 1;
place = "{-235, 77}";
type = Stem;
},
{
horizontal = 1;
place = "{450, 78}";
type = Stem;
},
{
horizontal = 1;
place = "{622, 111}";
type = Stem;
}
);
layerId = UUID0;
paths = (
{
closed = 1;
nodes = (
"82 -78 LINE",
"82 -185 OFFCURVE",
"160 -235 OFFCURVE",
"244 -235 CURVE SMOOTH",
"328 -235 OFFCURVE",
"405 -185 OFFCURVE",
"405 -78 CURVE",
"405 528 LINE",
"138 528 LINE",
"138 450 LINE",
"326 450 LINE",
"326 -84 LINE",
"326 -136 OFFCURVE",
"283 -158 OFFCURVE",
"244 -158 CURVE SMOOTH",
"205 -158 OFFCURVE",
"162 -136 OFFCURVE",
"162 -84 CURVE",
"162 -57 LINE",
"82 -57 LINE"
);
},
{
closed = 1;
nodes = (
"415 622 LINE",
"415 733 LINE",
"314 733 LINE",
"314 622 LINE"
);
}
);
width = 550;
}
);
unicode = 006A;
},
{
glyphname = k;
lastChange = "2018-10-27 09:40:54 +0000";
layers = (
{
background = {
paths = (
{
closed = 1;
nodes = (
"492 0 LINE",
"293 309 LINE",
"487 528 LINE",
"382 528 LINE",
"157 278 LINE",
"157 724 LINE",
"77 724 LINE",
"77 0 LINE",
"157 0 LINE",
"157 167 LINE",
"234 251 LINE",
"392 0 LINE"
);
}
);
};
hints = (
{
place = "{77, 80}";
type = Stem;
},
{
horizontal = 1;
place = "{1, 21}";
target = up;
type = BottomGhost;
},
{
horizontal = 1;
place = "{528, -20}";
target = down;
type = TopGhost;
},
{
horizontal = 1;
place = "{724, -20}";
target = down;
type = TopGhost;
}
);
layerId = UUID0;
paths = (
{
closed = 1;
nodes = (
"492 0 LINE",
"293 309 LINE",
"487 528 LINE",
"382 528 LINE",
"157 278 LINE",
"157 724 LINE",
"77 724 LINE",
"77 0 LINE",
"157 0 LINE",
"157 167 LINE",
"234 251 LINE",
"392 0 LINE"
);
}
);
width = 550;
}
);
unicode = 006B;
},
{
glyphname = l;
lastChange = "2018-10-27 09:40:54 +0000";
layers = (
{
background = {
paths = (
{
closed = 1;
nodes = (
"97 647 LINE",
"244 647 LINE",
"244 77 LINE",
"90 77 LINE",
"90 0 LINE",
"474 0 LINE",
"474 77 LINE",
"323 77 LINE",
"323 724 LINE",
"97 724 LINE"
);
}
);
};
hints = (
{
place = "{244, 79}";
type = Stem;
},
{
horizontal = 1;
place = "{0, 77}";
type = Stem;
},
{
horizontal = 1;
place = "{647, 77}";
type = Stem;
}
);
layerId = UUID0;
paths = (
{
closed = 1;
nodes = (
"97 647 LINE",
"244 647 LINE",
"244 77 LINE",
"90 77 LINE",
"90 0 LINE",
"474 0 LINE",
"474 77 LINE",
"323 77 LINE",
"323 724 LINE",
"97 724 LINE"
);
}
);
width = 550;
}
);
unicode = 006C;
},
{
glyphname = m;
lastChange = "2018-10-27 09:40:54 +0000";
layers = (
{
background = {
paths = (
{
closed = 1;
nodes = (
"593 383 LINE",
"593 453 OFFCURVE",
"551 538 OFFCURVE",
"457 538 CURVE SMOOTH",
"422 538 OFFCURVE",
"391 529 OFFCURVE",
"351 478 CURVE",
"325 518 OFFCURVE",
"302 537 OFFCURVE",
"255 537 CURVE SMOOTH",
"218 537 OFFCURVE",
"179 520 OFFCURVE",
"150 492 CURVE",
"150 525 LINE",
"71 525 LINE",
"71 0 LINE",
"150 0 LINE",
"150 336 LINE",
"150 416 OFFCURVE",
"168 461 OFFCURVE",
"232 461 CURVE SMOOTH",
"274 461 OFFCURVE",
"294 418 OFFCURVE",
"294 375 CURVE",
"294 0 LINE",
"372 0 LINE",
"372 337 LINE",
"372 415 OFFCURVE",
"390 461 OFFCURVE",
"453 461 CURVE SMOOTH",
"496 461 OFFCURVE",
"514 421 OFFCURVE",
"514 378 CURVE",
"514 0 LINE",
"593 0 LINE"
);
}
);
};
hints = (
{
place = "{71, 79}";
type = Stem;
},
{
place = "{294, 78}";
type = Stem;
},
{
place = "{514, 79}";
type = Stem;
},
{
horizontal = 1;
place = "{450, 78}";
type = Stem;
},
{
horizontal = 1;
place = "{1, 21}";
target = up;
type = BottomGhost;
}
);
layerId = UUID0;
paths = (
{
closed = 1;
nodes = (
"593 383 LINE",
"593 453 OFFCURVE",
"551 538 OFFCURVE",
"457 538 CURVE SMOOTH",
"422 538 OFFCURVE",
"391 529 OFFCURVE",
"351 478 CURVE",
"325 518 OFFCURVE",
"302 537 OFFCURVE",
"255 537 CURVE SMOOTH",
"218 537 OFFCURVE",
"179 520 OFFCURVE",
"150 492 CURVE",
"150 525 LINE",
"71 525 LINE",
"71 0 LINE",
"150 0 LINE",
"150 336 LINE",
"150 416 OFFCURVE",
"168 461 OFFCURVE",
"232 461 CURVE SMOOTH",
"274 461 OFFCURVE",
"294 418 OFFCURVE",
"294 375 CURVE",
"294 0 LINE",
"372 0 LINE",
"372 337 LINE",
"372 415 OFFCURVE",
"390 461 OFFCURVE",
"453 461 CURVE SMOOTH",
"496 461 OFFCURVE",
"514 421 OFFCURVE",
"514 378 CURVE",
"514 0 LINE",
"593 0 LINE"
);
}
);
width = 650;
}
);
unicode = 006D;
},
{
glyphname = n;
lastChange = "2018-10-27 09:40:54 +0000";
layers = (
{
background = {
paths = (
{
closed = 1;
nodes = (
"475 0 LINE",
"475 346 LINE",
"475 464 OFFCURVE",
"412 535 OFFCURVE",
"292 535 CURVE SMOOTH",
"256 535 OFFCURVE",
"207 521 OFFCURVE",
"166 489 CURVE",
"166 525 LINE",
"87 525 LINE",
"87 0 LINE",
"166 0 LINE",
"166 348 LINE",
"166 414 OFFCURVE",
"221 458 OFFCURVE",
"289 458 CURVE SMOOTH",
"385 458 OFFCURVE",
"396 395 OFFCURVE",
"396 345 CURVE",
"396 0 LINE"
);
}
);
};
hints = (
{
place = "{87, 79}";
type = Stem;
},
{
place = "{396, 79}";
type = Stem;
},
{
horizontal = 1;
place = "{449, 77}";
type = Stem;
},
{
horizontal = 1;
place = "{1, 21}";
target = up;
type = BottomGhost;
}
);
layerId = UUID0;
paths = (
{
closed = 1;
nodes = (
"475 0 LINE",
"475 346 LINE",
"475 464 OFFCURVE",
"412 535 OFFCURVE",
"292 535 CURVE SMOOTH",
"256 535 OFFCURVE",
"207 521 OFFCURVE",
"166 489 CURVE",
"166 525 LINE",
"87 525 LINE",
"87 0 LINE",
"166 0 LINE",
"166 348 LINE",
"166 414 OFFCURVE",
"221 458 OFFCURVE",
"289 458 CURVE SMOOTH",
"385 458 OFFCURVE",
"396 395 OFFCURVE",
"396 345 CURVE",
"396 0 LINE"
);
}
);
width = 550;
}
);
unicode = 006E;
},
{
glyphname = o;
lastChange = "2018-10-27 09:40:54 +0000";
layers = (
{
background = {
paths = (
{
closed = 1;
nodes = (
"479 346 LINE",
"479 463 OFFCURVE",
"399 535 OFFCURVE",
"281 535 CURVE SMOOTH",
"164 535 OFFCURVE",
"84 461 OFFCURVE",
"84 346 CURVE",
"84 181 LINE",
"84 64 OFFCURVE",
"162 -10 OFFCURVE",
"281 -10 CURVE SMOOTH",
"397 -10 OFFCURVE",
"479 66 OFFCURVE",
"479 181 CURVE"
);
},
{
closed = 1;
nodes = (
"399 180 LINE",
"399 110 OFFCURVE",
"354 67 OFFCURVE",
"281 67 CURVE SMOOTH",
"186 67 OFFCURVE",
"163 127 OFFCURVE",
"163 180 CURVE",
"163 345 LINE",
"163 416 OFFCURVE",
"207 458 OFFCURVE",
"281 458 CURVE SMOOTH",
"375 458 OFFCURVE",
"399 395 OFFCURVE",
"399 345 CURVE"
);
}
);
};
hints = (
{
place = "{84, 79}";
type = Stem;
},
{
place = "{399, 80}";
type = Stem;
},
{
horizontal = 1;
place = "{0, 77}";
type = Stem;
},
{
horizontal = 1;
place = "{450, 78}";
type = Stem;
}
);
layerId = UUID0;
paths = (
{
closed = 1;
nodes = (
"479 346 LINE",
"479 463 OFFCURVE",
"399 535 OFFCURVE",
"281 535 CURVE SMOOTH",
"164 535 OFFCURVE",
"84 461 OFFCURVE",
"84 346 CURVE",
"84 181 LINE",
"84 64 OFFCURVE",
"162 -10 OFFCURVE",
"281 -10 CURVE SMOOTH",
"397 -10 OFFCURVE",
"479 66 OFFCURVE",
"479 181 CURVE"
);
},
{
closed = 1;
nodes = (
"399 180 LINE",
"399 110 OFFCURVE",
"354 67 OFFCURVE",
"281 67 CURVE SMOOTH",
"186 67 OFFCURVE",
"163 127 OFFCURVE",
"163 180 CURVE",
"163 345 LINE",
"163 416 OFFCURVE",
"207 458 OFFCURVE",
"281 458 CURVE SMOOTH",
"375 458 OFFCURVE",
"399 395 OFFCURVE",
"399 345 CURVE"
);
}
);
width = 550;
}
);
unicode = 006F;
},
{
glyphname = p;
lastChange = "2018-10-27 09:40:54 +0000";
layers = (
{
background = {
paths = (
{
closed = 1;
nodes = (
"399 179 LINE",
"399 127 OFFCURVE",
"376 67 OFFCURVE",
"282 67 CURVE SMOOTH",
"210 67 OFFCURVE",
"163 108 OFFCURVE",
"163 179 CURVE",
"163 344 LINE",
"163 396 OFFCURVE",
"187 458 OFFCURVE",
"282 458 CURVE SMOOTH",
"354 458 OFFCURVE",
"399 414 OFFCURVE",
"399 344 CURVE"
);
},
{
closed = 1;
nodes = (
"479 344 LINE",
"479 459 OFFCURVE",
"398 535 OFFCURVE",
"282 535 CURVE SMOOTH",
"244 535 OFFCURVE",
"187 513 OFFCURVE",
"163 483 CURVE",
"163 525 LINE",
"84 525 LINE",
"84 -236 LINE",
"163 -236 LINE",
"163 42 LINE",
"189 9 OFFCURVE",
"241 -10 OFFCURVE",
"282 -10 CURVE SMOOTH",
"400 -10 OFFCURVE",
"479 62 OFFCURVE",
"479 179 CURVE"
);
}
);
};
hints = (
{
place = "{84, 79}";
type = Stem;
},
{
place = "{399, 80}";
type = Stem;
},
{
horizontal = 1;
place = "{0, 77}";
type = Stem;
},
{
horizontal = 1;
place = "{450, 78}";
type = Stem;
},
{
horizontal = 1;
place = "{-235, 21}";
target = up;
type = BottomGhost;
}
);
layerId = UUID0;
paths = (
{
closed = 1;
nodes = (
"399 179 LINE",
"399 127 OFFCURVE",
"376 67 OFFCURVE",
"282 67 CURVE SMOOTH",
"210 67 OFFCURVE",
"163 108 OFFCURVE",
"163 179 CURVE",
"163 344 LINE",
"163 396 OFFCURVE",
"187 458 OFFCURVE",
"282 458 CURVE SMOOTH",
"354 458 OFFCURVE",
"399 414 OFFCURVE",
"399 344 CURVE"
);
},
{
closed = 1;
nodes = (
"479 344 LINE",
"479 459 OFFCURVE",
"398 535 OFFCURVE",
"282 535 CURVE SMOOTH",
"244 535 OFFCURVE",
"187 513 OFFCURVE",
"163 483 CURVE",
"163 525 LINE",
"84 525 LINE",
"84 -236 LINE",
"163 -236 LINE",
"163 42 LINE",
"189 9 OFFCURVE",
"241 -10 OFFCURVE",
"282 -10 CURVE SMOOTH",
"400 -10 OFFCURVE",
"479 62 OFFCURVE",
"479 179 CURVE"
);
}
);
width = 550;
}
);
unicode = 0070;
},
{
glyphname = q;
lastChange = "2018-10-27 09:40:54 +0000";
layers = (
{
background = {
paths = (
{
closed = 1;
nodes = (
"163 344 LINE",
"163 414 OFFCURVE",
"208 458 OFFCURVE",
"280 458 CURVE SMOOTH",
"375 458 OFFCURVE",
"399 396 OFFCURVE",
"399 344 CURVE",
"399 179 LINE",
"399 108 OFFCURVE",
"352 67 OFFCURVE",
"280 67 CURVE SMOOTH",
"186 67 OFFCURVE",
"163 127 OFFCURVE",
"163 179 CURVE"
);
},
{
closed = 1;
nodes = (
"84 179 LINE",
"84 62 OFFCURVE",
"162 -10 OFFCURVE",
"280 -10 CURVE SMOOTH",
"321 -10 OFFCURVE",
"373 9 OFFCURVE",
"399 42 CURVE",
"399 -236 LINE",
"479 -236 LINE",
"479 525 LINE",
"399 525 LINE",
"399 483 LINE",
"375 513 OFFCURVE",
"319 535 OFFCURVE",
"280 535 CURVE SMOOTH",
"164 535 OFFCURVE",
"84 459 OFFCURVE",
"84 344 CURVE"
);
}
);
};
hints = (
{
place = "{84, 79}";
type = Stem;
},
{
place = "{399, 80}";
type = Stem;
},
{
horizontal = 1;
place = "{0, 77}";
type = Stem;
},
{
horizontal = 1;
place = "{450, 78}";
type = Stem;
},
{
horizontal = 1;
place = "{-235, 21}";
target = up;
type = BottomGhost;
}
);
layerId = UUID0;
paths = (
{
closed = 1;
nodes = (
"163 344 LINE",
"163 414 OFFCURVE",
"208 458 OFFCURVE",
"280 458 CURVE SMOOTH",
"375 458 OFFCURVE",
"399 396 OFFCURVE",
"399 344 CURVE",
"399 179 LINE",
"399 108 OFFCURVE",
"352 67 OFFCURVE",
"280 67 CURVE SMOOTH",
"186 67 OFFCURVE",
"163 127 OFFCURVE",
"163 179 CURVE"
);
},
{
closed = 1;
nodes = (
"84 179 LINE",
"84 62 OFFCURVE",
"162 -10 OFFCURVE",
"280 -10 CURVE SMOOTH",
"321 -10 OFFCURVE",
"373 9 OFFCURVE",
"399 42 CURVE",
"399 -236 LINE",
"479 -236 LINE",
"479 525 LINE",
"399 525 LINE",
"399 483 LINE",
"375 513 OFFCURVE",
"319 535 OFFCURVE",
"280 535 CURVE SMOOTH",
"164 535 OFFCURVE",
"84 459 OFFCURVE",
"84 344 CURVE"
);
}
);
width = 550;
}
);
unicode = 0071;
},
{
glyphname = r;
lastChange = "2018-10-27 09:40:54 +0000";
layers = (
{
background = {
paths = (
{
closed = 1;
nodes = (
"289 537 OFFCURVE",
"239 525 OFFCURVE",
"208 485 CURVE",
"208 528 LINE",
"129 528 LINE",
"129 0 LINE",
"208 0 LINE",
"208 338 LINE",
"208 423 OFFCURVE",
"273 460 OFFCURVE",
"314 460 CURVE SMOOTH",
"362 460 OFFCURVE",
"413 437 OFFCURVE",
"413 376 CURVE",
"413 371 LINE",
"493 371 LINE",
"493 484 OFFCURVE",
"414 537 OFFCURVE",
"319 537 CURVE SMOOTH"
);
}
);
};
hints = (
{
place = "{129, 79}";
type = Stem;
},
{
place = "{400, 79}";
type = Stem;
},
{
horizontal = 1;
place = "{450, 78}";
type = Stem;
},
{
horizontal = 1;
place = "{1, 21}";
target = up;
type = BottomGhost;
}
);
layerId = UUID0;
paths = (
{
closed = 1;
nodes = (
"289 537 OFFCURVE",
"239 525 OFFCURVE",
"208 485 CURVE",
"208 528 LINE",
"129 528 LINE",
"129 0 LINE",
"208 0 LINE",
"208 338 LINE",
"208 423 OFFCURVE",
"273 460 OFFCURVE",
"314 460 CURVE SMOOTH",
"362 460 OFFCURVE",
"413 437 OFFCURVE",
"413 376 CURVE",
"413 371 LINE",
"493 371 LINE",
"493 484 OFFCURVE",
"414 537 OFFCURVE",
"319 537 CURVE SMOOTH"
);
}
);
width = 550;
}
);
unicode = 0072;
},
{
glyphname = s;
lastChange = "2018-10-27 09:40:54 +0000";
layers = (
{
background = {
paths = (
{
closed = 1;
nodes = (
"479 226 OFFCURVE",
"428 268 OFFCURVE",
"369 288 CURVE SMOOTH",
"341 298 OFFCURVE",
"310 306 OFFCURVE",
"280 313 CURVE",
"231 326 LINE",
"194 335 OFFCURVE",
"177 356 OFFCURVE",
"177 382 CURVE SMOOTH",
"177 444 OFFCURVE",
"226 457 OFFCURVE",
"277 457 CURVE SMOOTH",
"341 457 OFFCURVE",
"378 429 OFFCURVE",
"390 379 CURVE",
"470 379 LINE",
"457 479 OFFCURVE",
"381 534 OFFCURVE",
"279 534 CURVE SMOOTH",
"182 534 OFFCURVE",
"97 491 OFFCURVE",
"97 380 CURVE SMOOTH",
"97 313 OFFCURVE",
"146 268 OFFCURVE",
"210 252 CURVE SMOOTH",
"221 249 OFFCURVE",
"230 244 OFFCURVE",
"240 243 CURVE",
"273 235 OFFCURVE",
"306 227 OFFCURVE",
"341 215 CURVE",
"341 216 LINE",
"376 206 OFFCURVE",
"399 186 OFFCURVE",
"399 154 CURVE SMOOTH",
"399 81 OFFCURVE",
"340 68 OFFCURVE",
"282 68 CURVE SMOOTH",
"217 68 OFFCURVE",
"175 96 OFFCURVE",
"165 159 CURVE",
"87 159 LINE",
"97 53 OFFCURVE",
"175 -8 OFFCURVE",
"282 -8 CURVE SMOOTH",
"388 -8 OFFCURVE",
"479 36 OFFCURVE",
"479 157 CURVE SMOOTH"
);
}
);
};
hints = (
{
place = "{97, 80}";
type = Stem;
},
{
place = "{399, 80}";
type = Stem;
},
{
horizontal = 1;
place = "{0, 78}";
type = Stem;
},
{
horizontal = 1;
place = "{451, 77}";
type = Stem;
}
);
layerId = UUID0;
paths = (
{
closed = 1;
nodes = (
"479 226 OFFCURVE",
"428 268 OFFCURVE",
"369 288 CURVE SMOOTH",
"341 298 OFFCURVE",
"310 306 OFFCURVE",
"280 313 CURVE",
"231 326 LINE",
"194 335 OFFCURVE",
"177 356 OFFCURVE",
"177 382 CURVE SMOOTH",
"177 444 OFFCURVE",
"226 457 OFFCURVE",
"277 457 CURVE SMOOTH",
"341 457 OFFCURVE",
"378 429 OFFCURVE",
"390 379 CURVE",
"470 379 LINE",
"457 479 OFFCURVE",
"381 534 OFFCURVE",
"279 534 CURVE SMOOTH",
"182 534 OFFCURVE",
"97 491 OFFCURVE",
"97 380 CURVE SMOOTH",
"97 313 OFFCURVE",
"146 268 OFFCURVE",
"210 252 CURVE SMOOTH",
"221 249 OFFCURVE",
"230 244 OFFCURVE",
"240 243 CURVE",
"273 235 OFFCURVE",
"306 227 OFFCURVE",
"341 215 CURVE",
"341 216 LINE",
"376 206 OFFCURVE",
"399 186 OFFCURVE",
"399 154 CURVE SMOOTH",
"399 81 OFFCURVE",
"340 68 OFFCURVE",
"282 68 CURVE SMOOTH",
"217 68 OFFCURVE",
"175 96 OFFCURVE",
"165 159 CURVE",
"87 159 LINE",
"97 53 OFFCURVE",
"175 -8 OFFCURVE",
"282 -8 CURVE SMOOTH",
"388 -8 OFFCURVE",
"479 36 OFFCURVE",
"479 157 CURVE SMOOTH"
);
}
);
width = 550;
}
);
unicode = 0073;
},
{
glyphname = t;
lastChange = "2018-10-27 09:40:54 +0000";
layers = (
{
background = {
paths = (
{
closed = 1;
nodes = (
"493 171 LINE",
"414 171 LINE",
"414 153 LINE",
"414 100 OFFCURVE",
"371 77 OFFCURVE",
"332 77 CURVE SMOOTH",
"293 77 OFFCURVE",
"250 100 OFFCURVE",
"250 153 CURVE",
"250 450 LINE",
"441 450 LINE",
"441 528 LINE",
"250 528 LINE",
"250 706 LINE",
"170 706 LINE",
"170 528 LINE",
"70 528 LINE",
"70 450 LINE",
"170 450 LINE",
"170 158 LINE",
"170 50 OFFCURVE",
"248 0 OFFCURVE",
"332 0 CURVE SMOOTH",
"416 0 OFFCURVE",
"493 50 OFFCURVE",
"493 158 CURVE"
);
}
);
};
hints = (
{
place = "{170, 80}";
type = Stem;
},
{
horizontal = 1;
place = "{0, 77}";
type = Stem;
},
{
horizontal = 1;
place = "{450, 78}";
type = Stem;
},
{
horizontal = 1;
place = "{706, -20}";
target = down;
type = TopGhost;
}
);
layerId = UUID0;
paths = (
{
closed = 1;
nodes = (
"493 171 LINE",
"414 171 LINE",
"414 153 LINE",
"414 100 OFFCURVE",
"371 77 OFFCURVE",
"332 77 CURVE SMOOTH",
"293 77 OFFCURVE",
"250 100 OFFCURVE",
"250 153 CURVE",
"250 450 LINE",
"441 450 LINE",
"441 528 LINE",
"250 528 LINE",
"250 706 LINE",
"170 706 LINE",
"170 528 LINE",
"70 528 LINE",
"70 450 LINE",
"170 450 LINE",
"170 158 LINE",
"170 50 OFFCURVE",
"248 0 OFFCURVE",
"332 0 CURVE SMOOTH",
"416 0 OFFCURVE",
"493 50 OFFCURVE",
"493 158 CURVE"
);
}
);
width = 550;
}
);
unicode = 0074;
},
{
glyphname = u;
lastChange = "2018-10-27 09:40:54 +0000";
layers = (
{
background = {
paths = (
{
closed = 1;
nodes = (
"475 0 LINE",
"475 528 LINE",
"396 528 LINE",
"396 175 LINE",
"396 110 OFFCURVE",
"348 68 OFFCURVE",
"279 68 CURVE SMOOTH",
"184 68 OFFCURVE",
"164 128 OFFCURVE",
"164 181 CURVE",
"164 528 LINE",
"85 528 LINE",
"85 181 LINE",
"85 65 OFFCURVE",
"160 -9 OFFCURVE",
"279 -9 CURVE SMOOTH",
"319 -9 OFFCURVE",
"369 12 OFFCURVE",
"396 42 CURVE",
"396 0 LINE"
);
}
);
};
hints = (
{
place = "{85, 79}";
type = Stem;
},
{
place = "{396, 79}";
type = Stem;
},
{
horizontal = 1;
place = "{0, 77}";
type = Stem;
},
{
horizontal = 1;
place = "{528, -20}";
target = down;
type = TopGhost;
}
);
layerId = UUID0;
paths = (
{
closed = 1;
nodes = (
"475 0 LINE",
"475 528 LINE",
"396 528 LINE",
"396 175 LINE",
"396 110 OFFCURVE",
"348 68 OFFCURVE",
"279 68 CURVE SMOOTH",
"184 68 OFFCURVE",
"164 128 OFFCURVE",
"164 181 CURVE",
"164 528 LINE",
"85 528 LINE",
"85 181 LINE",
"85 65 OFFCURVE",
"160 -9 OFFCURVE",
"279 -9 CURVE SMOOTH",
"319 -9 OFFCURVE",
"369 12 OFFCURVE",
"396 42 CURVE",
"396 0 LINE"
);
}
);
width = 550;
}
);
unicode = 0075;
},
{
glyphname = v;
lastChange = "2018-10-27 09:40:54 +0000";
layers = (
{
background = {
paths = (
{
closed = 1;
nodes = (
"74 528 LINE",
"124 347 OFFCURVE",
"174 181 OFFCURVE",
"224 0 CURVE",
"343 0 LINE",
"491 528 LINE",
"411 528 LINE",
"283 68 LINE",
"157 528 LINE"
);
}
);
};
hints = (
{
horizontal = 1;
place = "{526, -20}";
target = down;
type = TopGhost;
},
{
horizontal = 1;
place = "{1, 21}";
target = up;
type = BottomGhost;
}
);
layerId = UUID0;
paths = (
{
closed = 1;
nodes = (
"74 528 LINE",
"124 347 OFFCURVE",
"174 181 OFFCURVE",
"224 0 CURVE",
"343 0 LINE",
"491 528 LINE",
"411 528 LINE",
"283 68 LINE",
"157 528 LINE"
);
}
);
width = 550;
}
);
unicode = 0076;
},
{
glyphname = w;
lastChange = "2018-10-27 09:40:54 +0000";
layers = (
{
background = {
paths = (
{
closed = 1;
nodes = (
"599 528 LINE",
"515 528 LINE",
"453 163 LINE",
"435 162 LINE",
"364 425 LINE",
"300 425 LINE",
"278 341 OFFCURVE",
"252 248 OFFCURVE",
"230 163 CURVE",
"211 164 LINE",
"149 528 LINE",
"65 528 LINE",
"168 0 LINE",
"258 0 LINE",
"323 251 LINE",
"342 251 LINE",
"406 0 LINE",
"497 0 LINE"
);
}
);
};
hints = (
{
horizontal = 1;
place = "{528, -20}";
target = down;
type = TopGhost;
},
{
horizontal = 1;
place = "{1, 21}";
target = up;
type = BottomGhost;
}
);
layerId = UUID0;
paths = (
{
closed = 1;
nodes = (
"599 528 LINE",
"515 528 LINE",
"453 163 LINE",
"435 162 LINE",
"364 425 LINE",
"300 425 LINE",
"278 341 OFFCURVE",
"252 248 OFFCURVE",
"230 163 CURVE",
"211 164 LINE",
"149 528 LINE",
"65 528 LINE",
"168 0 LINE",
"258 0 LINE",
"323 251 LINE",
"342 251 LINE",
"406 0 LINE",
"497 0 LINE"
);
}
);
width = 650;
}
);
unicode = 0077;
},
{
glyphname = x;
lastChange = "2018-10-27 09:40:54 +0000";
layers = (
{
background = {
paths = (
{
closed = 1;
nodes = (
"494 0 LINE",
"323 263 LINE",
"491 528 LINE",
"402 528 LINE",
"364 466 OFFCURVE",
"317 391 OFFCURVE",
"279 329 CURVE",
"155 528 LINE",
"65 528 LINE",
"120 442 OFFCURVE",
"179 349 OFFCURVE",
"233 264 CURVE",
"65 0 LINE",
"157 0 LINE",
"196 60 OFFCURVE",
"244 139 OFFCURVE",
"281 196 CURVE",
"401 0 LINE"
);
}
);
};
hints = (
{
horizontal = 1;
place = "{1, 21}";
target = up;
type = BottomGhost;
},
{
horizontal = 1;
place = "{526, -20}";
target = down;
type = TopGhost;
}
);
layerId = UUID0;
paths = (
{
closed = 1;
nodes = (
"494 0 LINE",
"323 263 LINE",
"491 528 LINE",
"402 528 LINE",
"279 329 LINE",
"155 528 LINE",
"65 528 LINE",
"233 264 LINE",
"65 0 LINE",
"157 0 LINE",
"196 60 OFFCURVE",
"244 139 OFFCURVE",
"281 196 CURVE",
"401 0 LINE"
);
}
);
width = 550;
}
);
unicode = 0078;
},
{
glyphname = y;
lastChange = "2018-10-27 09:40:54 +0000";
layers = (
{
background = {
paths = (
{
closed = 1;
nodes = (
"266 0 LINE",
"238 -107 LINE",
"228 -148 OFFCURVE",
"203 -159 OFFCURVE",
"166 -159 CURVE",
"117 -159 LINE",
"117 -236 LINE",
"154 -236 LINE",
"237 -236 OFFCURVE",
"288 -221 OFFCURVE",
"318 -109 CURVE",
"487 526 LINE",
"404 526 LINE",
"283 68 LINE",
"158 526 LINE",
"72 526 LINE",
"122 347 OFFCURVE",
"173 180 OFFCURVE",
"223 0 CURVE"
);
}
);
};
hints = (
{
horizontal = 1;
place = "{-236, 35}";
type = Stem;
},
{
horizontal = 1;
place = "{526, -20}";
target = down;
type = TopGhost;
},
{
horizontal = 1;
place = "{1, 21}";
target = up;
type = BottomGhost;
}
);
layerId = UUID0;
paths = (
{
closed = 1;
nodes = (
"266 0 LINE",
"238 -107 LINE",
"228 -148 OFFCURVE",
"203 -159 OFFCURVE",
"166 -159 CURVE",
"117 -159 LINE",
"117 -236 LINE",
"154 -236 LINE",
"237 -236 OFFCURVE",
"288 -221 OFFCURVE",
"318 -109 CURVE",
"487 526 LINE",
"404 526 LINE",
"283 68 LINE",
"158 526 LINE",
"72 526 LINE",
"122 347 OFFCURVE",
"173 180 OFFCURVE",
"223 0 CURVE"
);
}
);
width = 550;
}
);
unicode = 0079;
},
{
glyphname = z;
lastChange = "2018-10-27 09:40:54 +0000";
layers = (
{
background = {
paths = (
{
closed = 1;
nodes = (
"464 0 LINE",
"464 77 LINE",
"186 77 LINE",
"443 458 LINE",
"443 528 LINE",
"104 528 LINE",
"104 450 LINE",
"351 450 LINE",
"95 70 LINE",
"95 0 LINE"
);
}
);
};
hints = (
{
horizontal = 1;
place = "{0, 77}";
type = Stem;
},
{
horizontal = 1;
place = "{450, 78}";
type = Stem;
}
);
layerId = UUID0;
paths = (
{
closed = 1;
nodes = (
"464 0 LINE",
"464 77 LINE",
"186 77 LINE",
"443 458 LINE",
"443 528 LINE",
"104 528 LINE",
"104 450 LINE",
"351 450 LINE",
"95 70 LINE",
"95 0 LINE"
);
}
);
width = 550;
}
);
unicode = 007A;
},
{
glyphname = braceleft;
lastChange = "2018-10-27 09:40:54 +0000";
layers = (
{
background = {
paths = (
{
closed = 1;
nodes = (
"293 744 LINE",
"230 744 LINE",
"185 744 OFFCURVE",
"131 702 OFFCURVE",
"131 624 CURVE",
"131 440 LINE",
"131 367 OFFCURVE",
"88 318 OFFCURVE",
"41 311 CURVE",
"41 270 LINE",
"88 264 OFFCURVE",
"131 216 OFFCURVE",
"131 140 CURVE",
"131 -43 LINE",
"131 -121 OFFCURVE",
"183 -163 OFFCURVE",
"230 -163 CURVE",
"293 -163 LINE",
"293 -121 LINE",
"247 -121 LINE",
"193 -121 OFFCURVE",
"185 -74 OFFCURVE",
"185 -28 CURVE",
"185 155 LINE",
"185 251 OFFCURVE",
"124 277 OFFCURVE",
"100 282 CURVE",
"100 301 LINE",
"124 306 OFFCURVE",
"185 337 OFFCURVE",
"185 425 CURVE",
"185 609 LINE",
"185 656 OFFCURVE",
"193 702 OFFCURVE",
"247 702 CURVE",
"293 702 LINE"
);
}
);
};
layerId = UUID0;
paths = (
{
closed = 1;
nodes = (
"293 744 LINE",
"230 744 LINE",
"185 744 OFFCURVE",
"131 702 OFFCURVE",
"131 624 CURVE",
"131 440 LINE",
"131 367 OFFCURVE",
"88 318 OFFCURVE",
"41 311 CURVE",
"41 270 LINE",
"88 264 OFFCURVE",
"131 216 OFFCURVE",
"131 140 CURVE",
"131 -43 LINE",
"131 -121 OFFCURVE",
"183 -163 OFFCURVE",
"230 -163 CURVE",
"293 -163 LINE",
"293 -121 LINE",
"247 -121 LINE",
"193 -121 OFFCURVE",
"185 -74 OFFCURVE",
"185 -28 CURVE",
"185 155 LINE",
"185 251 OFFCURVE",
"124 277 OFFCURVE",
"100 282 CURVE",
"100 301 LINE",
"124 306 OFFCURVE",
"185 337 OFFCURVE",
"185 425 CURVE",
"185 609 LINE",
"185 656 OFFCURVE",
"193 702 OFFCURVE",
"247 702 CURVE",
"293 702 LINE"
);
}
);
width = 333;
}
);
unicode = 007B;
},
{
glyphname = bar;
lastChange = "2018-10-27 09:40:54 +0000";
layers = (
{
background = {
paths = (
{
closed = 1;
nodes = (
"89 763 LINE",
"89 -261 LINE",
"138 -261 LINE",
"138 763 LINE"
);
}
);
};
layerId = UUID0;
paths = (
{
closed = 1;
nodes = (
"89 763 LINE",
"89 -261 LINE",
"138 -261 LINE",
"138 763 LINE"
);
}
);
width = 222;
}
);
unicode = 007C;
},
{
glyphname = braceright;
lastChange = "2018-10-27 09:40:54 +0000";
layers = (
{
background = {
paths = (
{
closed = 1;
nodes = (
"47 702 LINE",
"93 702 LINE",
"147 702 OFFCURVE",
"155 656 OFFCURVE",
"155 609 CURVE",
"155 425 LINE",
"155 337 OFFCURVE",
"218 306 OFFCURVE",
"242 299 CURVE",
"240 279 LINE",
"216 276 OFFCURVE",
"155 250 OFFCURVE",
"155 155 CURVE",
"155 -28 LINE",
"155 -74 OFFCURVE",
"147 -121 OFFCURVE",
"93 -121 CURVE",
"47 -121 LINE",
"47 -163 LINE",
"110 -163 LINE",
"157 -163 OFFCURVE",
"209 -121 OFFCURVE",
"209 -43 CURVE",
"209 140 LINE",
"209 216 OFFCURVE",
"252 264 OFFCURVE",
"299 270 CURVE",
"299 311 LINE",
"252 318 OFFCURVE",
"209 367 OFFCURVE",
"209 440 CURVE",
"209 624 LINE",
"209 702 OFFCURVE",
"155 744 OFFCURVE",
"110 744 CURVE",
"47 744 LINE"
);
}
);
};
layerId = UUID0;
paths = (
{
closed = 1;
nodes = (
"47 702 LINE",
"93 702 LINE",
"147 702 OFFCURVE",
"155 656 OFFCURVE",
"155 609 CURVE",
"155 425 LINE",
"155 337 OFFCURVE",
"218 306 OFFCURVE",
"242 299 CURVE",
"240 279 LINE",
"216 276 OFFCURVE",
"155 250 OFFCURVE",
"155 155 CURVE",
"155 -28 LINE",
"155 -74 OFFCURVE",
"147 -121 OFFCURVE",
"93 -121 CURVE",
"47 -121 LINE",
"47 -163 LINE",
"110 -163 LINE",
"157 -163 OFFCURVE",
"209 -121 OFFCURVE",
"209 -43 CURVE",
"209 140 LINE",
"209 216 OFFCURVE",
"252 264 OFFCURVE",
"299 270 CURVE",
"299 311 LINE",
"252 318 OFFCURVE",
"209 367 OFFCURVE",
"209 440 CURVE",
"209 624 LINE",
"209 702 OFFCURVE",
"155 744 OFFCURVE",
"110 744 CURVE",
"47 744 LINE"
);
}
);
width = 333;
}
);
unicode = 007D;
},
{
glyphname = asciitilde;
lastChange = "2018-10-27 09:40:54 +0000";
layers = (
{
background = {
paths = (
{
closed = 1;
nodes = (
"547 358 LINE",
"528 326 OFFCURVE",
"500 295 OFFCURVE",
"457 295 CURVE SMOOTH",
"421 295 OFFCURVE",
"388 308 OFFCURVE",
"358 324 CURVE",
"333 335 LINE",
"300 350 OFFCURVE",
"266 366 OFFCURVE",
"231 366 CURVE SMOOTH",
"174 366 OFFCURVE",
"141 324 OFFCURVE",
"113 284 CURVE",
"133 255 LINE",
"150 289 OFFCURVE",
"177 318 OFFCURVE",
"222 318 CURVE SMOOTH",
"259 318 OFFCURVE",
"291 304 OFFCURVE",
"322 288 CURVE",
"347 277 LINE",
"380 261 OFFCURVE",
"414 247 OFFCURVE",
"449 247 CURVE SMOOTH",
"509 247 OFFCURVE",
"538 288 OFFCURVE",
"568 329 CURVE"
);
}
);
};
layerId = UUID0;
paths = (
{
closed = 1;
nodes = (
"547 358 LINE",
"528 326 OFFCURVE",
"500 295 OFFCURVE",
"457 295 CURVE SMOOTH",
"421 295 OFFCURVE",
"388 308 OFFCURVE",
"358 324 CURVE",
"333 335 LINE",
"300 350 OFFCURVE",
"266 366 OFFCURVE",
"231 366 CURVE SMOOTH",
"174 366 OFFCURVE",
"141 324 OFFCURVE",
"113 284 CURVE",
"133 255 LINE",
"150 289 OFFCURVE",
"177 318 OFFCURVE",
"222 318 CURVE SMOOTH",
"259 318 OFFCURVE",
"291 304 OFFCURVE",
"322 288 CURVE",
"347 277 LINE",
"380 261 OFFCURVE",
"414 247 OFFCURVE",
"449 247 CURVE SMOOTH",
"509 247 OFFCURVE",
"538 288 OFFCURVE",
"568 329 CURVE"
);
}
);
width = 666;
}
);
unicode = 007E;
},
{
glyphname = dagger;
lastChange = "2018-10-27 09:40:54 +0000";
layers = (
{
background = {
paths = (
{
closed = 1;
nodes = (
"345 -55 LINE",
"345 459 LINE",
"460 459 LINE",
"460 536 LINE",
"345 536 LINE",
"345 782 LINE",
"266 782 LINE",
"266 536 LINE",
"153 536 LINE",
"153 459 LINE",
"266 459 LINE",
"266 -55 LINE"
);
}
);
};
hints = (
{
place = "{266, 79}";
type = Stem;
},
{
horizontal = 1;
place = "{459, 77}";
type = Stem;
},
{
horizontal = 1;
place = "{-54, 21}";
target = up;
type = BottomGhost;
},
{
horizontal = 1;
place = "{782, -20}";
target = down;
type = TopGhost;
}
);
layerId = UUID0;
paths = (
{
closed = 1;
nodes = (
"345 -55 LINE",
"345 459 LINE",
"460 459 LINE",
"460 536 LINE",
"345 536 LINE",
"345 782 LINE",
"266 782 LINE",
"266 536 LINE",
"153 536 LINE",
"153 459 LINE",
"266 459 LINE",
"266 -55 LINE"
);
}
);
width = 600;
}
);
unicode = 2020;
},
{
glyphname = degree;
lastChange = "2018-10-27 09:40:54 +0000";
layers = (
{
background = {
paths = (
{
closed = 1;
nodes = (
"428 672 OFFCURVE",
"374 725 OFFCURVE",
"307 725 CURVE SMOOTH",
"241 725 OFFCURVE",
"188 671 OFFCURVE",
"188 605 CURVE SMOOTH",
"188 539 OFFCURVE",
"241 485 OFFCURVE",
"307 485 CURVE SMOOTH",
"374 485 OFFCURVE",
"428 539 OFFCURVE",
"428 605 CURVE SMOOTH"
);
},
{
closed = 1;
nodes = (
"379 567 OFFCURVE",
"345 535 OFFCURVE",
"307 535 CURVE SMOOTH",
"269 535 OFFCURVE",
"236 567 OFFCURVE",
"236 605 CURVE SMOOTH",
"236 645 OFFCURVE",
"269 676 OFFCURVE",
"307 676 CURVE SMOOTH",
"345 676 OFFCURVE",
"379 645 OFFCURVE",
"379 605 CURVE SMOOTH"
);
}
);
};
hints = (
{
place = "{188, 48}";
type = Stem;
},
{
place = "{379, 49}";
type = Stem;
},
{
horizontal = 1;
place = "{485, 50}";
type = Stem;
},
{
horizontal = 1;
place = "{676, 49}";
type = Stem;
}
);
layerId = UUID0;
paths = (
{
closed = 1;
nodes = (
"428 672 OFFCURVE",
"374 725 OFFCURVE",
"307 725 CURVE SMOOTH",
"241 725 OFFCURVE",
"188 671 OFFCURVE",
"188 605 CURVE SMOOTH",
"188 539 OFFCURVE",
"241 485 OFFCURVE",
"307 485 CURVE SMOOTH",
"374 485 OFFCURVE",
"428 539 OFFCURVE",
"428 605 CURVE SMOOTH"
);
},
{
closed = 1;
nodes = (
"379 567 OFFCURVE",
"345 535 OFFCURVE",
"307 535 CURVE SMOOTH",
"269 535 OFFCURVE",
"236 567 OFFCURVE",
"236 605 CURVE SMOOTH",
"236 645 OFFCURVE",
"269 676 OFFCURVE",
"307 676 CURVE SMOOTH",
"345 676 OFFCURVE",
"379 645 OFFCURVE",
"379 605 CURVE SMOOTH"
);
}
);
width = 600;
}
);
unicode = 00B0;
},
{
glyphname = cent;
lastChange = "2018-10-27 09:40:54 +0000";
layers = (
{
background = {
paths = (
{
closed = 1;
nodes = (
"315 542 LINE",
"315 670 LINE",
"242 670 LINE",
"242 532 LINE",
"144 514 OFFCURVE",
"81 444 OFFCURVE",
"81 346 CURVE",
"81 181 LINE",
"81 79 OFFCURVE",
"142 9 OFFCURVE",
"242 -7 CURVE",
"242 -143 LINE",
"315 -143 LINE",
"315 -100 OFFCURVE",
"314 -49 OFFCURVE",
"314 -7 CURVE",
"399 8 OFFCURVE",
"457 69 OFFCURVE",
"471 159 CURVE",
"390 159 LINE",
"378 99 OFFCURVE",
"339 67 OFFCURVE",
"278 67 CURVE SMOOTH",
"183 67 OFFCURVE",
"160 128 OFFCURVE",
"160 181 CURVE",
"160 346 LINE",
"160 417 OFFCURVE",
"204 458 OFFCURVE",
"278 458 CURVE SMOOTH",
"349 458 OFFCURVE",
"380 414 OFFCURVE",
"392 367 CURVE",
"471 367 LINE",
"458 457 OFFCURVE",
"402 516 OFFCURVE",
"322 531 CURVE"
);
}
);
};
hints = (
{
place = "{81, 78}";
type = Stem;
},
{
place = "{242, 73}";
type = Stem;
},
{
horizontal = 1;
place = "{-143, 211}";
type = Stem;
},
{
horizontal = 1;
place = "{459, 211}";
type = Stem;
}
);
layerId = UUID0;
paths = (
{
closed = 1;
nodes = (
"315 542 LINE",
"315 670 LINE",
"242 670 LINE",
"242 532 LINE",
"144 514 OFFCURVE",
"81 444 OFFCURVE",
"81 346 CURVE",
"81 181 LINE",
"81 79 OFFCURVE",
"142 9 OFFCURVE",
"242 -7 CURVE",
"242 -143 LINE",
"315 -143 LINE",
"315 -100 OFFCURVE",
"314 -49 OFFCURVE",
"314 -7 CURVE",
"399 8 OFFCURVE",
"457 69 OFFCURVE",
"471 159 CURVE",
"390 159 LINE",
"378 99 OFFCURVE",
"339 67 OFFCURVE",
"278 67 CURVE SMOOTH",
"183 67 OFFCURVE",
"160 128 OFFCURVE",
"160 181 CURVE",
"160 346 LINE",
"160 417 OFFCURVE",
"204 458 OFFCURVE",
"278 458 CURVE SMOOTH",
"349 458 OFFCURVE",
"380 414 OFFCURVE",
"392 367 CURVE",
"471 367 LINE",
"458 457 OFFCURVE",
"402 516 OFFCURVE",
"322 531 CURVE"
);
}
);
width = 550;
}
);
unicode = 00A2;
},
{
glyphname = sterling;
lastChange = "2018-10-27 09:40:54 +0000";
layers = (
{
background = {
paths = (
{
closed = 1;
nodes = (
"515 553 LINE",
"510 656 OFFCURVE",
"432 728 OFFCURVE",
"323 728 CURVE SMOOTH",
"211 728 OFFCURVE",
"137 651 OFFCURVE",
"137 542 CURVE",
"137 414 LINE",
"101 414 LINE",
"101 337 LINE",
"137 337 LINE",
"137 0 LINE",
"514 0 LINE",
"514 77 LINE",
"217 77 LINE",
"217 337 LINE",
"426 337 LINE",
"426 414 LINE",
"217 414 LINE",
"217 543 LINE",
"217 632 OFFCURVE",
"278 652 OFFCURVE",
"323 652 CURVE SMOOTH",
"364 652 OFFCURVE",
"431 636 OFFCURVE",
"437 553 CURVE"
);
}
);
};
hints = (
{
place = "{137, 80}";
type = Stem;
},
{
place = "{437, 78}";
type = Stem;
},
{
horizontal = 1;
place = "{0, 77}";
type = Stem;
},
{
horizontal = 1;
place = "{337, 77}";
type = Stem;
},
{
horizontal = 1;
place = "{648, 76}";
type = Stem;
}
);
layerId = UUID0;
paths = (
{
closed = 1;
nodes = (
"515 553 LINE",
"510 656 OFFCURVE",
"432 728 OFFCURVE",
"323 728 CURVE SMOOTH",
"211 728 OFFCURVE",
"137 651 OFFCURVE",
"137 542 CURVE",
"137 414 LINE",
"101 414 LINE",
"101 337 LINE",
"137 337 LINE",
"137 0 LINE",
"514 0 LINE",
"514 77 LINE",
"217 77 LINE",
"217 337 LINE",
"426 337 LINE",
"426 414 LINE",
"217 414 LINE",
"217 543 LINE",
"217 632 OFFCURVE",
"278 652 OFFCURVE",
"323 652 CURVE SMOOTH",
"364 652 OFFCURVE",
"431 636 OFFCURVE",
"437 553 CURVE"
);
}
);
width = 600;
}
);
unicode = 00A3;
},
{
glyphname = section;
lastChange = "2018-10-27 09:40:54 +0000";
layers = (
{
background = {
paths = (
{
closed = 1;
nodes = (
"504 423 OFFCURVE",
"454 466 OFFCURVE",
"394 486 CURVE SMOOTH",
"365 496 OFFCURVE",
"336 502 OFFCURVE",
"307 510 CURVE",
"254 523 LINE",
"218 533 OFFCURVE",
"200 554 OFFCURVE",
"200 580 CURVE SMOOTH",
"200 641 OFFCURVE",
"251 654 OFFCURVE",
"303 654 CURVE SMOOTH",
"366 654 OFFCURVE",
"404 627 OFFCURVE",
"415 577 CURVE",
"496 577 LINE",
"482 677 OFFCURVE",
"407 731 OFFCURVE",
"305 731 CURVE SMOOTH",
"207 731 OFFCURVE",
"121 689 OFFCURVE",
"121 579 CURVE SMOOTH",
"121 546 OFFCURVE",
"135 517 OFFCURVE",
"158 490 CURVE",
"132 462 OFFCURVE",
"116 425 OFFCURVE",
"116 381 CURVE SMOOTH",
"116 314 OFFCURVE",
"165 270 OFFCURVE",
"228 253 CURVE",
"266 243 LINE",
"297 235 OFFCURVE",
"329 228 OFFCURVE",
"361 217 CURVE SMOOTH",
"394 207 OFFCURVE",
"420 186 OFFCURVE",
"420 155 CURVE SMOOTH",
"420 83 OFFCURVE",
"360 69 OFFCURVE",
"303 69 CURVE SMOOTH",
"238 69 OFFCURVE",
"195 96 OFFCURVE",
"187 159 CURVE",
"108 159 LINE",
"119 53 OFFCURVE",
"195 -8 OFFCURVE",
"303 -8 CURVE SMOOTH",
"408 -8 OFFCURVE",
"499 36 OFFCURVE",
"499 157 CURVE SMOOTH",
"499 189 OFFCURVE",
"485 217 OFFCURVE",
"464 242 CURVE",
"490 272 OFFCURVE",
"504 309 OFFCURVE",
"504 354 CURVE SMOOTH"
);
},
{
closed = 1;
nodes = (
"402 404 OFFCURVE",
"425 384 OFFCURVE",
"425 352 CURVE SMOOTH",
"425 323 OFFCURVE",
"413 303 OFFCURVE",
"396 287 CURVE",
"370 297 OFFCURVE",
"335 304 OFFCURVE",
"301 312 CURVE",
"249 326 LINE",
"213 335 OFFCURVE",
"195 356 OFFCURVE",
"195 382 CURVE SMOOTH",
"195 417 OFFCURVE",
"213 438 OFFCURVE",
"240 448 CURVE",
"280 438 LINE",
"279 438 LINE",
"308 430 OFFCURVE",
"337 424 OFFCURVE",
"366 415 CURVE SMOOTH"
);
}
);
};
hints = (
{
place = "{120, 76}";
type = Stem;
},
{
place = "{423, 75}";
type = Stem;
},
{
horizontal = 1;
place = "{-8, 78}";
type = Stem;
},
{
horizontal = 1;
place = "{647, 77}";
type = Stem;
}
);
layerId = UUID0;
paths = (
{
closed = 1;
nodes = (
"504 423 OFFCURVE",
"454 466 OFFCURVE",
"394 486 CURVE SMOOTH",
"365 496 OFFCURVE",
"336 502 OFFCURVE",
"307 510 CURVE",
"254 523 LINE",
"218 533 OFFCURVE",
"200 554 OFFCURVE",
"200 580 CURVE SMOOTH",
"200 641 OFFCURVE",
"251 654 OFFCURVE",
"303 654 CURVE SMOOTH",
"366 654 OFFCURVE",
"404 627 OFFCURVE",
"415 577 CURVE",
"496 577 LINE",
"482 677 OFFCURVE",
"407 731 OFFCURVE",
"305 731 CURVE SMOOTH",
"207 731 OFFCURVE",
"121 689 OFFCURVE",
"121 579 CURVE SMOOTH",
"121 546 OFFCURVE",
"135 517 OFFCURVE",
"158 490 CURVE",
"132 462 OFFCURVE",
"116 425 OFFCURVE",
"116 381 CURVE SMOOTH",
"116 314 OFFCURVE",
"165 270 OFFCURVE",
"228 253 CURVE",
"266 243 LINE",
"297 235 OFFCURVE",
"329 228 OFFCURVE",
"361 217 CURVE SMOOTH",
"394 207 OFFCURVE",
"420 186 OFFCURVE",
"420 155 CURVE SMOOTH",
"420 83 OFFCURVE",
"360 69 OFFCURVE",
"303 69 CURVE SMOOTH",
"238 69 OFFCURVE",
"195 96 OFFCURVE",
"187 159 CURVE",
"108 159 LINE",
"119 53 OFFCURVE",
"195 -8 OFFCURVE",
"303 -8 CURVE SMOOTH",
"408 -8 OFFCURVE",
"499 36 OFFCURVE",
"499 157 CURVE SMOOTH",
"499 189 OFFCURVE",
"485 217 OFFCURVE",
"464 242 CURVE",
"490 272 OFFCURVE",
"504 309 OFFCURVE",
"504 354 CURVE SMOOTH"
);
},
{
closed = 1;
nodes = (
"402 404 OFFCURVE",
"425 384 OFFCURVE",
"425 352 CURVE SMOOTH",
"425 323 OFFCURVE",
"413 303 OFFCURVE",
"396 287 CURVE",
"370 297 OFFCURVE",
"335 304 OFFCURVE",
"301 312 CURVE",
"249 326 LINE",
"213 335 OFFCURVE",
"195 356 OFFCURVE",
"195 382 CURVE SMOOTH",
"195 417 OFFCURVE",
"213 438 OFFCURVE",
"240 448 CURVE",
"280 438 LINE",
"279 438 LINE",
"308 430 OFFCURVE",
"337 424 OFFCURVE",
"366 415 CURVE SMOOTH"
);
}
);
width = 600;
}
);
unicode = 00A7;
},
{
glyphname = bullet;
lastChange = "2018-10-27 09:40:54 +0000";
layers = (
{
background = {
paths = (
{
closed = 1;
nodes = (
"416 421 OFFCURVE",
"367 472 OFFCURVE",
"306 472 CURVE SMOOTH",
"244 472 OFFCURVE",
"194 421 OFFCURVE",
"194 359 CURVE SMOOTH",
"194 299 OFFCURVE",
"244 249 OFFCURVE",
"306 249 CURVE SMOOTH",
"367 249 OFFCURVE",
"416 299 OFFCURVE",
"416 359 CURVE SMOOTH"
);
}
);
};
hints = (
{
place = "{194, 222}";
type = Stem;
},
{
horizontal = 1;
place = "{249, 223}";
type = Stem;
}
);
layerId = UUID0;
paths = (
{
closed = 1;
nodes = (
"416 421 OFFCURVE",
"367 472 OFFCURVE",
"306 472 CURVE SMOOTH",
"244 472 OFFCURVE",
"194 421 OFFCURVE",
"194 359 CURVE SMOOTH",
"194 299 OFFCURVE",
"244 249 OFFCURVE",
"306 249 CURVE SMOOTH",
"367 249 OFFCURVE",
"416 299 OFFCURVE",
"416 359 CURVE SMOOTH"
);
}
);
width = 600;
}
);
unicode = 2022;
},
{
glyphname = paragraph;
lastChange = "2018-10-27 09:40:54 +0000";
layers = (
{
background = {
paths = (
{
closed = 1;
nodes = (
"510 0 LINE",
"510 709 LINE",
"294 709 LINE",
"178 709 OFFCURVE",
"110 655 OFFCURVE",
"110 540 CURVE SMOOTH",
"110 455 OFFCURVE",
"175 387 OFFCURVE",
"283 380 CURVE",
"283 0 LINE",
"360 0 LINE",
"360 633 LINE",
"433 633 LINE",
"433 0 LINE"
);
}
);
};
hints = (
{
place = "{283, 77}";
type = Stem;
},
{
place = "{433, 77}";
type = Stem;
},
{
horizontal = 1;
place = "{1, 21}";
target = up;
type = BottomGhost;
},
{
horizontal = 1;
place = "{709, -20}";
target = down;
type = TopGhost;
}
);
layerId = UUID0;
paths = (
{
closed = 1;
nodes = (
"510 0 LINE",
"510 709 LINE",
"294 709 LINE",
"178 709 OFFCURVE",
"110 655 OFFCURVE",
"110 540 CURVE SMOOTH",
"110 455 OFFCURVE",
"175 387 OFFCURVE",
"283 380 CURVE",
"283 0 LINE",
"360 0 LINE",
"360 633 LINE",
"433 633 LINE",
"433 0 LINE"
);
}
);
width = 600;
}
);
unicode = 00B6;
},
{
glyphname = germandbls;
lastChange = "2018-10-27 09:40:54 +0000";
layers = (
{
background = {
paths = (
{
closed = 1;
nodes = (
"254 77 LINE",
"254 0 LINE",
"317 0 LINE",
"478 0 OFFCURVE",
"509 130 OFFCURVE",
"509 194 CURVE",
"509 248 LINE",
"509 284 OFFCURVE",
"489 369 OFFCURVE",
"409 405 CURVE",
"455 431 OFFCURVE",
"484 493 OFFCURVE",
"484 536 CURVE SMOOTH",
"484 600 OFFCURVE",
"453 728 OFFCURVE",
"292 728 CURVE SMOOTH",
"129 728 OFFCURVE",
"97 601 OFFCURVE",
"97 538 CURVE",
"97 0 LINE",
"176 0 LINE",
"176 535 LINE",
"176 636 OFFCURVE",
"250 651 OFFCURVE",
"292 651 CURVE SMOOTH",
"333 651 OFFCURVE",
"405 636 OFFCURVE",
"405 535 CURVE SMOOTH",
"405 475 OFFCURVE",
"378 439 OFFCURVE",
"323 439 CURVE",
"289 439 LINE",
"289 362 LINE",
"325 362 LINE",
"366 362 OFFCURVE",
"430 347 OFFCURVE",
"430 244 CURVE",
"430 194 LINE",
"430 94 OFFCURVE",
"358 77 OFFCURVE",
"315 77 CURVE"
);
}
);
};
hints = (
{
place = "{97, 78}";
type = Stem;
},
{
place = "{430, 79}";
type = Stem;
},
{
horizontal = 1;
place = "{0, 77}";
type = Stem;
},
{
horizontal = 1;
place = "{362, 77}";
type = Stem;
},
{
horizontal = 1;
place = "{647, 77}";
type = Stem;
}
);
layerId = UUID0;
paths = (
{
closed = 1;
nodes = (
"254 77 LINE",
"254 0 LINE",
"317 0 LINE",
"478 0 OFFCURVE",
"509 130 OFFCURVE",
"509 194 CURVE",
"509 248 LINE",
"509 284 OFFCURVE",
"489 369 OFFCURVE",
"409 405 CURVE",
"455 431 OFFCURVE",
"484 493 OFFCURVE",
"484 536 CURVE SMOOTH",
"484 600 OFFCURVE",
"453 728 OFFCURVE",
"292 728 CURVE SMOOTH",
"129 728 OFFCURVE",
"97 601 OFFCURVE",
"97 538 CURVE",
"97 0 LINE",
"176 0 LINE",
"176 535 LINE",
"176 636 OFFCURVE",
"250 651 OFFCURVE",
"292 651 CURVE SMOOTH",
"333 651 OFFCURVE",
"405 636 OFFCURVE",
"405 535 CURVE SMOOTH",
"405 475 OFFCURVE",
"378 439 OFFCURVE",
"323 439 CURVE",
"289 439 LINE",
"289 362 LINE",
"325 362 LINE",
"366 362 OFFCURVE",
"430 347 OFFCURVE",
"430 244 CURVE",
"430 194 LINE",
"430 94 OFFCURVE",
"358 77 OFFCURVE",
"315 77 CURVE"
);
}
);
width = 600;
}
);
unicode = 00DF;
},
{
glyphname = registered;
lastChange = "2018-10-27 09:40:54 +0000";
layers = (
{
background = {
paths = (
{
closed = 1;
nodes = (
"788 544 OFFCURVE",
"630 703 OFFCURVE",
"435 703 CURVE SMOOTH",
"238 703 OFFCURVE",
"80 544 OFFCURVE",
"80 349 CURVE SMOOTH",
"80 154 OFFCURVE",
"238 -6 OFFCURVE",
"435 -6 CURVE SMOOTH",
"630 -6 OFFCURVE",
"788 154 OFFCURVE",
"788 349 CURVE SMOOTH"
);
},
{
closed = 1;
nodes = (
"714 192 OFFCURVE",
"587 68 OFFCURVE",
"435 68 CURVE SMOOTH",
"281 68 OFFCURVE",
"153 192 OFFCURVE",
"153 349 CURVE SMOOTH",
"153 506 OFFCURVE",
"281 630 OFFCURVE",
"435 630 CURVE SMOOTH",
"587 630 OFFCURVE",
"714 506 OFFCURVE",
"714 349 CURVE SMOOTH"
);
},
{
closed = 1;
nodes = (
"565 424 LINE",
"565 470 OFFCURVE",
"527 536 OFFCURVE",
"439 536 CURVE",
"324 536 LINE",
"324 169 LINE",
"392 169 LINE",
"392 287 LINE",
"440 287 LINE",
"496 169 LINE",
"567 169 LINE",
"547 211 OFFCURVE",
"521 261 OFFCURVE",
"502 301 CURVE",
"539 323 OFFCURVE",
"565 356 OFFCURVE",
"565 400 CURVE"
);
},
{
closed = 1;
nodes = (
"497 402 LINE",
"497 360 OFFCURVE",
"468 354 OFFCURVE",
"450 354 CURVE",
"392 354 LINE",
"392 468 LINE",
"449 468 LINE",
"468 468 OFFCURVE",
"497 460 OFFCURVE",
"497 420 CURVE"
);
}
);
};
hints = (
{
place = "{80, 73}";
type = Stem;
},
{
place = "{324, 68}";
type = Stem;
},
{
place = "{497, 68}";
type = Stem;
},
{
place = "{714, 74}";
type = Stem;
},
{
horizontal = 1;
place = "{-6, 74}";
type = Stem;
},
{
horizontal = 1;
place = "{468, 68}";
type = Stem;
},
{
horizontal = 1;
place = "{630, 73}";
type = Stem;
}
);
layerId = UUID0;
paths = (
{
closed = 1;
nodes = (
"788 544 OFFCURVE",
"630 703 OFFCURVE",
"435 703 CURVE SMOOTH",
"238 703 OFFCURVE",
"80 544 OFFCURVE",
"80 349 CURVE SMOOTH",
"80 154 OFFCURVE",
"238 -6 OFFCURVE",
"435 -6 CURVE SMOOTH",
"630 -6 OFFCURVE",
"788 154 OFFCURVE",
"788 349 CURVE SMOOTH"
);
},
{
closed = 1;
nodes = (
"714 192 OFFCURVE",
"587 68 OFFCURVE",
"435 68 CURVE SMOOTH",
"281 68 OFFCURVE",
"153 192 OFFCURVE",
"153 349 CURVE SMOOTH",
"153 506 OFFCURVE",
"281 630 OFFCURVE",
"435 630 CURVE SMOOTH",
"587 630 OFFCURVE",
"714 506 OFFCURVE",
"714 349 CURVE SMOOTH"
);
},
{
closed = 1;
nodes = (
"565 424 LINE",
"565 470 OFFCURVE",
"527 536 OFFCURVE",
"439 536 CURVE",
"324 536 LINE",
"324 169 LINE",
"392 169 LINE",
"392 287 LINE",
"440 287 LINE",
"496 169 LINE",
"567 169 LINE",
"547 211 OFFCURVE",
"521 261 OFFCURVE",
"502 301 CURVE",
"539 323 OFFCURVE",
"565 356 OFFCURVE",
"565 400 CURVE"
);
},
{
closed = 1;
nodes = (
"497 402 LINE",
"497 360 OFFCURVE",
"468 354 OFFCURVE",
"450 354 CURVE",
"392 354 LINE",
"392 468 LINE",
"449 468 LINE",
"468 468 OFFCURVE",
"497 460 OFFCURVE",
"497 420 CURVE"
);
}
);
width = 850;
}
);
unicode = 00AE;
},
{
glyphname = copyright;
lastChange = "2018-10-27 09:40:54 +0000";
layers = (
{
background = {
paths = (
{
closed = 1;
nodes = (
"409 223 OFFCURVE",
"380 231 OFFCURVE",
"380 272 CURVE",
"380 428 LINE",
"380 470 OFFCURVE",
"409 476 OFFCURVE",
"427 476 CURVE SMOOTH",
"443 476 OFFCURVE",
"469 471 OFFCURVE",
"474 440 CURVE",
"544 440 LINE",
"540 479 OFFCURVE",
"514 545 OFFCURVE",
"427 545 CURVE SMOOTH",
"330 545 OFFCURVE",
"311 467 OFFCURVE",
"311 430 CURVE",
"311 271 LINE",
"311 233 OFFCURVE",
"329 154 OFFCURVE",
"425 154 CURVE SMOOTH",
"517 154 OFFCURVE",
"540 219 OFFCURVE",
"543 260 CURVE",
"474 260 LINE",
"469 228 OFFCURVE",
"443 223 OFFCURVE",
"427 223 CURVE SMOOTH"
);
},
{
closed = 1;
nodes = (
"544 271 LINE",
"544 267 OFFCURVE",
"544 263 OFFCURVE",
"543 260 CURVE",
"555 260 LINE"
);
},
{
closed = 1;
nodes = (
"788 544 OFFCURVE",
"630 703 OFFCURVE",
"435 703 CURVE SMOOTH",
"238 703 OFFCURVE",
"80 544 OFFCURVE",
"80 349 CURVE SMOOTH",
"80 154 OFFCURVE",
"238 -6 OFFCURVE",
"435 -6 CURVE SMOOTH",
"630 -6 OFFCURVE",
"788 154 OFFCURVE",
"788 349 CURVE SMOOTH"
);
},
{
closed = 1;
nodes = (
"714 192 OFFCURVE",
"587 68 OFFCURVE",
"435 68 CURVE SMOOTH",
"281 68 OFFCURVE",
"153 192 OFFCURVE",
"153 349 CURVE SMOOTH",
"153 506 OFFCURVE",
"281 630 OFFCURVE",
"435 630 CURVE SMOOTH",
"587 630 OFFCURVE",
"714 505 OFFCURVE",
"714 349 CURVE SMOOTH"
);
}
);
};
hints = (
{
place = "{80, 73}";
type = Stem;
},
{
place = "{311, 69}";
type = Stem;
},
{
place = "{474, 70}";
type = Stem;
},
{
place = "{714, 74}";
type = Stem;
},
{
horizontal = 1;
place = "{-6, 74}";
type = Stem;
},
{
horizontal = 1;
place = "{169, 69}";
type = Stem;
},
{
horizontal = 1;
place = "{476, 69}";
type = Stem;
},
{
horizontal = 1;
place = "{630, 73}";
type = Stem;
}
);
layerId = UUID0;
paths = (
{
closed = 1;
nodes = (
"409 223 OFFCURVE",
"380 231 OFFCURVE",
"380 272 CURVE",
"380 428 LINE",
"380 470 OFFCURVE",
"409 476 OFFCURVE",
"427 476 CURVE SMOOTH",
"443 476 OFFCURVE",
"469 471 OFFCURVE",
"474 440 CURVE",
"544 440 LINE",
"540 479 OFFCURVE",
"514 545 OFFCURVE",
"427 545 CURVE SMOOTH",
"330 545 OFFCURVE",
"311 467 OFFCURVE",
"311 430 CURVE",
"311 271 LINE",
"311 233 OFFCURVE",
"329 154 OFFCURVE",
"425 154 CURVE SMOOTH",
"517 154 OFFCURVE",
"540 219 OFFCURVE",
"543 260 CURVE",
"474 260 LINE",
"469 228 OFFCURVE",
"443 223 OFFCURVE",
"427 223 CURVE SMOOTH"
);
},
{
closed = 1;
nodes = (
"544 271 LINE",
"544 267 OFFCURVE",
"544 263 OFFCURVE",
"543 260 CURVE",
"555 260 LINE"
);
},
{
closed = 1;
nodes = (
"788 544 OFFCURVE",
"630 703 OFFCURVE",
"435 703 CURVE SMOOTH",
"238 703 OFFCURVE",
"80 544 OFFCURVE",
"80 349 CURVE SMOOTH",
"80 154 OFFCURVE",
"238 -6 OFFCURVE",
"435 -6 CURVE SMOOTH",
"630 -6 OFFCURVE",
"788 154 OFFCURVE",
"788 349 CURVE SMOOTH"
);
},
{
closed = 1;
nodes = (
"714 192 OFFCURVE",
"587 68 OFFCURVE",
"435 68 CURVE SMOOTH",
"281 68 OFFCURVE",
"153 192 OFFCURVE",
"153 349 CURVE SMOOTH",
"153 506 OFFCURVE",
"281 630 OFFCURVE",
"435 630 CURVE SMOOTH",
"587 630 OFFCURVE",
"714 505 OFFCURVE",
"714 349 CURVE SMOOTH"
);
}
);
width = 850;
}
);
unicode = 00A9;
},
{
glyphname = trademark;
lastChange = "2018-10-27 09:40:54 +0000";
layers = (
{
background = {
paths = (
{
closed = 1;
nodes = (
"611 382 LINE",
"611 727 LINE",
"525 727 LINE",
"479 558 LINE",
"426 727 LINE",
"343 727 LINE",
"343 382 LINE",
"403 382 LINE",
"403 592 LINE",
"423 594 LINE",
"457 461 LINE",
"496 461 LINE",
"507 504 OFFCURVE",
"520 552 OFFCURVE",
"531 594 CURVE",
"551 592 LINE",
"551 382 LINE"
);
},
{
closed = 1;
nodes = (
"290 665 LINE",
"290 727 LINE",
"41 727 LINE",
"41 665 LINE",
"135 665 LINE",
"135 382 LINE",
"197 382 LINE",
"197 665 LINE"
);
}
);
};
hints = (
{
place = "{135, 62}";
type = Stem;
},
{
place = "{343, 60}";
type = Stem;
},
{
place = "{551, 60}";
type = Stem;
},
{
horizontal = 1;
place = "{665, 62}";
type = Stem;
},
{
horizontal = 1;
place = "{383, 21}";
target = up;
type = BottomGhost;
}
);
layerId = UUID0;
paths = (
{
closed = 1;
nodes = (
"611 382 LINE",
"611 727 LINE",
"525 727 LINE",
"479 558 LINE",
"426 727 LINE",
"343 727 LINE",
"343 382 LINE",
"403 382 LINE",
"403 592 LINE",
"423 594 LINE",
"457 461 LINE",
"496 461 LINE",
"531 594 LINE",
"551 592 LINE",
"551 382 LINE"
);
},
{
closed = 1;
nodes = (
"290 665 LINE",
"290 727 LINE",
"41 727 LINE",
"41 665 LINE",
"135 665 LINE",
"135 382 LINE",
"197 382 LINE",
"197 665 LINE"
);
}
);
width = 650;
}
);
unicode = 2122;
},
{
glyphname = acute;
lastChange = "2018-10-27 09:40:54 +0000";
layers = (
{
background = {
paths = (
{
closed = 1;
nodes = (
"306 624 LINE",
"339 678 OFFCURVE",
"367 724 OFFCURVE",
"399 779 CURVE",
"310 779 LINE",
"282 723 OFFCURVE",
"259 681 OFFCURVE",
"232 624 CURVE"
);
}
);
};
hints = (
{
horizontal = 1;
place = "{624, 155}";
type = Stem;
}
);
layerId = UUID0;
paths = (
{
closed = 1;
nodes = (
"306 624 LINE",
"339 678 OFFCURVE",
"367 724 OFFCURVE",
"399 779 CURVE",
"310 779 LINE",
"282 723 OFFCURVE",
"259 681 OFFCURVE",
"232 624 CURVE"
);
}
);
width = 600;
}
);
unicode = 00B4;
},
{
glyphname = dieresis;
lastChange = "2018-10-27 09:40:54 +0000";
layers = (
{
background = {
paths = (
{
closed = 1;
nodes = (
"462 635 LINE",
"462 739 LINE",
"376 739 LINE",
"376 635 LINE"
);
},
{
closed = 1;
nodes = (
"247 635 LINE",
"247 739 LINE",
"160 739 LINE",
"160 635 LINE"
);
}
);
};
hints = (
{
place = "{160, 87}";
type = Stem;
},
{
place = "{376, 86}";
type = Stem;
},
{
horizontal = 1;
place = "{635, 104}";
type = Stem;
}
);
layerId = UUID0;
paths = (
{
closed = 1;
nodes = (
"462 635 LINE",
"462 739 LINE",
"376 739 LINE",
"376 635 LINE"
);
},
{
closed = 1;
nodes = (
"247 635 LINE",
"247 739 LINE",
"160 739 LINE",
"160 635 LINE"
);
}
);
width = 600;
}
);
unicode = 00A8;
},
{
glyphname = notequal;
lastChange = "2018-10-27 09:40:54 +0000";
layers = (
{
background = {
paths = (
{
closed = 1;
nodes = (
"495 174 LINE",
"495 249 LINE",
"322 249 LINE",
"365 336 LINE",
"495 336 LINE",
"495 411 LINE",
"401 411 LINE",
"506 639 LINE",
"424 639 LINE",
"316 411 LINE",
"110 411 LINE",
"110 336 LINE",
"282 336 LINE",
"239 249 LINE",
"110 249 LINE",
"110 174 LINE",
"203 174 LINE",
"95 -65 LINE",
"177 -65 LINE",
"287 174 LINE"
);
}
);
};
hints = (
{
horizontal = 1;
place = "{174, 75}";
type = Stem;
},
{
horizontal = 1;
place = "{336, 75}";
type = Stem;
},
{
horizontal = 1;
place = "{639, -20}";
target = down;
type = TopGhost;
},
{
horizontal = 1;
place = "{-64, 21}";
target = up;
type = BottomGhost;
}
);
layerId = UUID0;
paths = (
{
closed = 1;
nodes = (
"495 174 LINE",
"495 249 LINE",
"322 249 LINE",
"365 336 LINE",
"495 336 LINE",
"495 411 LINE",
"401 411 LINE",
"506 639 LINE",
"424 639 LINE",
"316 411 LINE",
"110 411 LINE",
"110 336 LINE",
"282 336 LINE",
"239 249 LINE",
"110 249 LINE",
"110 174 LINE",
"203 174 LINE",
"95 -65 LINE",
"177 -65 LINE",
"287 174 LINE"
);
}
);
width = 600;
}
);
unicode = 2260;
},
{
glyphname = AE;
lastChange = "2018-10-27 09:40:54 +0000";
layers = (
{
background = {
paths = (
{
closed = 1;
nodes = (
"816 0 LINE",
"816 78 LINE",
"509 78 LINE",
"509 338 LINE",
"791 338 LINE",
"791 416 LINE",
"509 416 LINE",
"509 635 LINE",
"816 635 LINE",
"816 713 LINE",
"287 713 LINE",
"101 0 LINE",
"181 0 LINE",
"198 65 OFFCURVE",
"218 137 OFFCURVE",
"234 201 CURVE",
"429 201 LINE",
"429 0 LINE"
);
},
{
closed = 1;
nodes = (
"346 635 LINE",
"429 635 LINE",
"429 279 LINE",
"254 279 LINE"
);
}
);
};
hints = (
{
place = "{429, 80}";
type = Stem;
},
{
horizontal = 1;
place = "{0, 78}";
type = Stem;
},
{
horizontal = 1;
place = "{201, 78}";
type = Stem;
},
{
horizontal = 1;
place = "{338, 78}";
type = Stem;
},
{
horizontal = 1;
place = "{635, 78}";
type = Stem;
}
);
layerId = UUID0;
paths = (
{
closed = 1;
nodes = (
"816 0 LINE",
"816 78 LINE",
"509 78 LINE",
"509 338 LINE",
"791 338 LINE",
"791 416 LINE",
"509 416 LINE",
"509 635 LINE",
"816 635 LINE",
"816 713 LINE",
"287 713 LINE",
"101 0 LINE",
"181 0 LINE",
"198 65 OFFCURVE",
"218 137 OFFCURVE",
"234 201 CURVE",
"429 201 LINE",
"429 0 LINE"
);
},
{
closed = 1;
nodes = (
"346 635 LINE",
"429 635 LINE",
"429 279 LINE",
"254 279 LINE"
);
}
);
width = 900;
}
);
unicode = 00C6;
},
{
glyphname = Oslash;
lastChange = "2018-10-27 09:40:54 +0000";
layers = (
{
background = {
paths = (
{
closed = 1;
nodes = (
"507 529 LINE",
"507 560 OFFCURVE",
"493 610 OFFCURVE",
"458 654 CURVE",
"508 758 LINE",
"474 758 LINE",
"463 734 OFFCURVE",
"445 700 OFFCURVE",
"435 677 CURVE",
"400 702 OFFCURVE",
"357 718 OFFCURVE",
"305 718 CURVE SMOOTH",
"143 718 OFFCURVE",
"103 592 OFFCURVE",
"103 530 CURVE",
"103 184 LINE",
"103 153 OFFCURVE",
"113 104 OFFCURVE",
"147 60 CURVE",
"92 -56 LINE",
"127 -56 LINE",
"141 -29 OFFCURVE",
"157 10 OFFCURVE",
"170 35 CURVE",
"206 8 OFFCURVE",
"250 -9 OFFCURVE",
"304 -9 CURVE SMOOTH",
"465 -9 OFFCURVE",
"507 119 OFFCURVE",
"507 183 CURVE"
);
},
{
closed = 1;
nodes = (
"427 183 LINE",
"427 83 OFFCURVE",
"344 69 OFFCURVE",
"305 69 CURVE SMOOTH",
"280 69 OFFCURVE",
"236 75 OFFCURVE",
"205 110 CURVE",
"417 565 LINE",
"427 534 OFFCURVE",
"427 530 OFFCURVE",
"427 527 CURVE"
);
},
{
closed = 1;
nodes = (
"183 527 LINE",
"183 626 OFFCURVE",
"265 640 OFFCURVE",
"305 640 CURVE SMOOTH",
"327 640 OFFCURVE",
"368 634 OFFCURVE",
"400 603 CURVE",
"200 176 LINE",
"183 180 LINE"
);
}
);
};
hints = (
{
place = "{103, 80}";
type = Stem;
},
{
place = "{427, 80}";
type = Stem;
},
{
horizontal = 1;
place = "{0, 78}";
type = Stem;
},
{
horizontal = 1;
place = "{635, 78}";
type = Stem;
},
{
horizontal = 1;
place = "{751, -20}";
target = down;
type = TopGhost;
},
{
horizontal = 1;
place = "{-51, 21}";
target = up;
type = BottomGhost;
}
);
layerId = UUID0;
paths = (
{
closed = 1;
nodes = (
"507 529 LINE",
"507 560 OFFCURVE",
"493 610 OFFCURVE",
"458 654 CURVE",
"508 758 LINE",
"474 758 LINE",
"463 734 OFFCURVE",
"445 700 OFFCURVE",
"435 677 CURVE",
"400 702 OFFCURVE",
"357 718 OFFCURVE",
"305 718 CURVE SMOOTH",
"143 718 OFFCURVE",
"103 592 OFFCURVE",
"103 530 CURVE",
"103 184 LINE",
"103 153 OFFCURVE",
"113 104 OFFCURVE",
"147 60 CURVE",
"92 -56 LINE",
"127 -56 LINE",
"141 -29 OFFCURVE",
"157 10 OFFCURVE",
"170 35 CURVE",
"206 8 OFFCURVE",
"250 -9 OFFCURVE",
"304 -9 CURVE SMOOTH",
"465 -9 OFFCURVE",
"507 119 OFFCURVE",
"507 183 CURVE"
);
},
{
closed = 1;
nodes = (
"427 183 LINE",
"427 83 OFFCURVE",
"344 69 OFFCURVE",
"305 69 CURVE SMOOTH",
"280 69 OFFCURVE",
"236 75 OFFCURVE",
"205 110 CURVE",
"417 565 LINE",
"427 534 OFFCURVE",
"427 530 OFFCURVE",
"427 527 CURVE"
);
},
{
closed = 1;
nodes = (
"183 527 LINE",
"183 626 OFFCURVE",
"265 640 OFFCURVE",
"305 640 CURVE SMOOTH",
"327 640 OFFCURVE",
"368 634 OFFCURVE",
"400 603 CURVE",
"200 176 LINE",
"183 180 LINE"
);
}
);
width = 600;
}
);
unicode = 00D8;
},
{
glyphname = infinity;
lastChange = "2018-10-27 09:40:54 +0000";
layers = (
{
background = {
paths = (
{
closed = 1;
nodes = (
"417 181 LINE",
"415 181 LINE",
"447 131 OFFCURVE",
"503 87 OFFCURVE",
"570 87 CURVE SMOOTH",
"672 87 OFFCURVE",
"748 168 OFFCURVE",
"748 282 CURVE SMOOTH",
"748 395 OFFCURVE",
"672 475 OFFCURVE",
"570 475 CURVE SMOOTH",
"502 475 OFFCURVE",
"450 431 OFFCURVE",
"415 380 CURVE",
"417 381 LINE",
"396 349 LINE",
"375 382 LINE",
"376 382 LINE",
"344 431 OFFCURVE",
"288 475 OFFCURVE",
"221 475 CURVE SMOOTH",
"119 475 OFFCURVE",
"44 395 OFFCURVE",
"44 282 CURVE SMOOTH",
"44 168 OFFCURVE",
"119 87 OFFCURVE",
"221 87 CURVE SMOOTH",
"288 87 OFFCURVE",
"344 131 OFFCURVE",
"376 181 CURVE",
"375 181 LINE",
"395 213 LINE"
);
},
{
closed = 1;
nodes = (
"475 336 LINE",
"500 374 OFFCURVE",
"528 400 OFFCURVE",
"567 400 CURVE SMOOTH",
"635 400 OFFCURVE",
"674 346 OFFCURVE",
"674 282 CURVE SMOOTH",
"674 215 OFFCURVE",
"635 162 OFFCURVE",
"567 162 CURVE SMOOTH",
"529 162 OFFCURVE",
"501 188 OFFCURVE",
"475 228 CURVE",
"475 227 LINE",
"438 282 LINE"
);
},
{
closed = 1;
nodes = (
"262 400 OFFCURVE",
"289 374 OFFCURVE",
"316 336 CURVE",
"354 282 LINE",
"316 227 LINE",
"289 188 OFFCURVE",
"262 162 OFFCURVE",
"224 162 CURVE SMOOTH",
"157 162 OFFCURVE",
"118 215 OFFCURVE",
"118 282 CURVE SMOOTH",
"118 346 OFFCURVE",
"157 400 OFFCURVE",
"224 400 CURVE SMOOTH"
);
}
);
};
layerId = UUID0;
paths = (
{
closed = 1;
nodes = (
"417 181 LINE",
"415 181 LINE",
"447 131 OFFCURVE",
"503 87 OFFCURVE",
"570 87 CURVE SMOOTH",
"672 87 OFFCURVE",
"748 168 OFFCURVE",
"748 282 CURVE SMOOTH",
"748 395 OFFCURVE",
"672 475 OFFCURVE",
"570 475 CURVE SMOOTH",
"502 475 OFFCURVE",
"450 431 OFFCURVE",
"415 380 CURVE",
"417 381 LINE",
"396 349 LINE",
"375 382 LINE",
"376 382 LINE",
"344 431 OFFCURVE",
"288 475 OFFCURVE",
"221 475 CURVE SMOOTH",
"119 475 OFFCURVE",
"44 395 OFFCURVE",
"44 282 CURVE SMOOTH",
"44 168 OFFCURVE",
"119 87 OFFCURVE",
"221 87 CURVE SMOOTH",
"288 87 OFFCURVE",
"344 131 OFFCURVE",
"376 181 CURVE",
"375 181 LINE",
"395 213 LINE"
);
},
{
closed = 1;
nodes = (
"475 336 LINE",
"500 374 OFFCURVE",
"528 400 OFFCURVE",
"567 400 CURVE SMOOTH",
"635 400 OFFCURVE",
"674 346 OFFCURVE",
"674 282 CURVE SMOOTH",
"674 215 OFFCURVE",
"635 162 OFFCURVE",
"567 162 CURVE SMOOTH",
"529 162 OFFCURVE",
"501 188 OFFCURVE",
"475 228 CURVE",
"475 227 LINE",
"438 282 LINE"
);
},
{
closed = 1;
nodes = (
"262 400 OFFCURVE",
"289 374 OFFCURVE",
"316 336 CURVE",
"354 282 LINE",
"316 227 LINE",
"289 188 OFFCURVE",
"262 162 OFFCURVE",
"224 162 CURVE SMOOTH",
"157 162 OFFCURVE",
"118 215 OFFCURVE",
"118 282 CURVE SMOOTH",
"118 346 OFFCURVE",
"157 400 OFFCURVE",
"224 400 CURVE SMOOTH"
);
}
);
width = 800;
}
);
unicode = 221E;
},
{
glyphname = plusminus;
lastChange = "2018-10-27 09:40:54 +0000";
layers = (
{
background = {
paths = (
{
closed = 1;
nodes = (
"514 247 LINE",
"514 320 LINE",
"341 320 LINE",
"341 486 LINE",
"267 486 LINE",
"267 320 LINE",
"96 320 LINE",
"96 247 LINE",
"267 247 LINE",
"267 69 LINE",
"341 69 LINE",
"341 247 LINE"
);
},
{
closed = 1;
nodes = (
"516 -172 LINE",
"516 -104 LINE",
"98 -104 LINE",
"98 -172 LINE"
);
}
);
};
hints = (
{
place = "{267, 74}";
type = Stem;
},
{
horizontal = 1;
place = "{-172, 68}";
type = Stem;
},
{
horizontal = 1;
place = "{247, 73}";
type = Stem;
},
{
horizontal = 1;
place = "{486, -20}";
target = down;
type = TopGhost;
}
);
layerId = UUID0;
paths = (
{
closed = 1;
nodes = (
"514 247 LINE",
"514 320 LINE",
"341 320 LINE",
"341 486 LINE",
"267 486 LINE",
"267 320 LINE",
"96 320 LINE",
"96 247 LINE",
"267 247 LINE",
"267 69 LINE",
"341 69 LINE",
"341 247 LINE"
);
},
{
closed = 1;
nodes = (
"516 -172 LINE",
"516 -104 LINE",
"98 -104 LINE",
"98 -172 LINE"
);
}
);
width = 600;
}
);
unicode = 00B1;
},
{
glyphname = lessequal;
lastChange = "2018-10-27 09:40:54 +0000";
layers = (
{
background = {
paths = (
{
closed = 1;
nodes = (
"449 128 LINE",
"199 380 LINE",
"462 642 LINE",
"355 642 LINE",
"93 380 LINE",
"342 128 LINE"
);
},
{
closed = 1;
nodes = (
"488 0 LINE",
"488 74 LINE",
"110 74 LINE",
"110 0 LINE"
);
}
);
};
hints = (
{
horizontal = 1;
place = "{30, 32}";
type = Stem;
},
{
horizontal = 1;
place = "{686, -20}";
target = down;
type = TopGhost;
}
);
layerId = UUID0;
paths = (
{
closed = 1;
nodes = (
"449 128 LINE",
"199 380 LINE",
"462 642 LINE",
"355 642 LINE",
"93 380 LINE",
"342 128 LINE"
);
},
{
closed = 1;
nodes = (
"488 0 LINE",
"488 74 LINE",
"110 74 LINE",
"110 0 LINE"
);
}
);
width = 600;
}
);
unicode = 2264;
},
{
glyphname = greaterequal;
lastChange = "2018-10-27 09:40:54 +0000";
layers = (
{
background = {
paths = (
{
closed = 1;
nodes = (
"495 380 LINE",
"232 642 LINE",
"124 642 LINE",
"169 596 OFFCURVE",
"241 525 OFFCURVE",
"302 465 CURVE SMOOTH",
"327 440 OFFCURVE",
"362 404 OFFCURVE",
"387 380 CURVE",
"137 128 LINE",
"242 128 LINE"
);
},
{
closed = 1;
nodes = (
"477 0 LINE",
"477 74 LINE",
"99 74 LINE",
"99 0 LINE"
);
}
);
};
hints = (
{
horizontal = 1;
place = "{30, 32}";
type = Stem;
},
{
horizontal = 1;
place = "{686, -20}";
target = down;
type = TopGhost;
}
);
layerId = UUID0;
paths = (
{
closed = 1;
nodes = (
"495 380 LINE",
"232 642 LINE",
"124 642 LINE",
"169 596 OFFCURVE",
"241 525 OFFCURVE",
"302 465 CURVE SMOOTH",
"327 440 OFFCURVE",
"362 404 OFFCURVE",
"387 380 CURVE",
"137 128 LINE",
"242 128 LINE"
);
},
{
closed = 1;
nodes = (
"477 0 LINE",
"477 74 LINE",
"99 74 LINE",
"99 0 LINE"
);
}
);
width = 600;
}
);
unicode = 2265;
},
{
glyphname = yen;
lastChange = "2018-10-27 09:40:54 +0000";
layers = (
{
background = {
paths = (
{
closed = 1;
nodes = (
"537 724 LINE",
"450 724 LINE",
"405 611 OFFCURVE",
"350 476 OFFCURVE",
"306 365 CURVE",
"163 724 LINE",
"75 724 LINE",
"127 595 OFFCURVE",
"187 452 OFFCURVE",
"239 325 CURVE",
"127 325 LINE",
"127 255 LINE",
"265 255 LINE",
"265 177 LINE",
"127 177 LINE",
"127 106 LINE",
"265 106 LINE",
"265 0 LINE",
"346 0 LINE",
"346 106 LINE",
"484 106 LINE",
"484 177 LINE",
"346 177 LINE",
"346 255 LINE",
"484 255 LINE",
"484 325 LINE",
"373 325 LINE"
);
}
);
};
hints = (
{
place = "{266, 75}";
type = Stem;
},
{
horizontal = 1;
place = "{255, 70}";
type = Stem;
},
{
horizontal = 1;
place = "{106, 71}";
type = Stem;
},
{
horizontal = 1;
place = "{724, -20}";
target = down;
type = TopGhost;
},
{
horizontal = 1;
place = "{1, 21}";
target = up;
type = BottomGhost;
}
);
layerId = UUID0;
paths = (
{
closed = 1;
nodes = (
"537 724 LINE",
"450 724 LINE",
"306 365 LINE",
"163 724 LINE",
"75 724 LINE",
"127 595 OFFCURVE",
"187 452 OFFCURVE",
"239 325 CURVE",
"127 325 LINE",
"127 255 LINE",
"265 255 LINE",
"265 177 LINE",
"127 177 LINE",
"127 106 LINE",
"265 106 LINE",
"265 0 LINE",
"346 0 LINE",
"346 106 LINE",
"484 106 LINE",
"484 177 LINE",
"346 177 LINE",
"346 255 LINE",
"484 255 LINE",
"484 325 LINE",
"373 325 LINE"
);
}
);
width = 600;
}
);
unicode = 00A5;
},
{
glyphname = uni00B5;
lastChange = "2018-10-27 09:40:54 +0000";
layers = (
{
background = {
paths = (
{
closed = 1;
nodes = (
"185 -236 LINE",
"185 44 LINE",
"207 23 OFFCURVE",
"258 -9 OFFCURVE",
"302 -9 CURVE SMOOTH",
"356 -9 OFFCURVE",
"392 23 OFFCURVE",
"419 54 CURVE",
"419 0 LINE",
"498 0 LINE",
"498 528 LINE",
"419 528 LINE",
"419 175 LINE",
"419 110 OFFCURVE",
"369 69 OFFCURVE",
"302 69 CURVE SMOOTH",
"205 69 OFFCURVE",
"185 128 OFFCURVE",
"185 181 CURVE",
"185 528 LINE",
"105 528 LINE",
"105 -236 LINE"
);
}
);
};
hints = (
{
place = "{105, 80}";
type = Stem;
},
{
place = "{419, 79}";
type = Stem;
},
{
horizontal = 1;
place = "{-235, 21}";
target = up;
type = BottomGhost;
},
{
horizontal = 1;
place = "{0, 79}";
type = Stem;
},
{
horizontal = 1;
place = "{528, -20}";
target = down;
type = TopGhost;
}
);
layerId = UUID0;
paths = (
{
closed = 1;
nodes = (
"185 -236 LINE",
"185 44 LINE",
"207 23 OFFCURVE",
"258 -9 OFFCURVE",
"302 -9 CURVE SMOOTH",
"356 -9 OFFCURVE",
"392 23 OFFCURVE",
"419 54 CURVE",
"419 0 LINE",
"498 0 LINE",
"498 528 LINE",
"419 528 LINE",
"419 175 LINE",
"419 110 OFFCURVE",
"369 69 OFFCURVE",
"302 69 CURVE SMOOTH",
"205 69 OFFCURVE",
"185 128 OFFCURVE",
"185 181 CURVE",
"185 528 LINE",
"105 528 LINE",
"105 -236 LINE"
);
}
);
width = 600;
}
);
unicode = 00B5;
},
{
glyphname = partialdiff;
lastChange = "2018-10-27 09:40:54 +0000";
layers = (
{
background = {
paths = (
{
closed = 1;
nodes = (
"479 523 LINE",
"479 585 OFFCURVE",
"438 706 OFFCURVE",
"279 711 CURVE",
"279 635 LINE",
"327 634 OFFCURVE",
"398 613 OFFCURVE",
"399 504 CURVE",
"359 524 OFFCURVE",
"319 535 OFFCURVE",
"281 535 CURVE SMOOTH",
"164 535 OFFCURVE",
"84 461 OFFCURVE",
"84 346 CURVE",
"84 181 LINE",
"84 64 OFFCURVE",
"162 -10 OFFCURVE",
"281 -10 CURVE SMOOTH",
"397 -10 OFFCURVE",
"479 66 OFFCURVE",
"479 181 CURVE"
);
},
{
closed = 1;
nodes = (
"399 180 LINE",
"399 110 OFFCURVE",
"354 67 OFFCURVE",
"281 67 CURVE SMOOTH",
"186 67 OFFCURVE",
"163 127 OFFCURVE",
"163 180 CURVE",
"163 345 LINE",
"163 416 OFFCURVE",
"207 458 OFFCURVE",
"281 458 CURVE SMOOTH",
"375 458 OFFCURVE",
"399 395 OFFCURVE",
"399 345 CURVE"
);
}
);
};
hints = (
{
place = "{84, 79}";
type = Stem;
},
{
place = "{399, 80}";
type = Stem;
},
{
horizontal = 1;
place = "{-10, 77}";
type = Stem;
},
{
horizontal = 1;
place = "{458, 77}";
type = Stem;
},
{
horizontal = 1;
place = "{711, -20}";
target = down;
type = TopGhost;
}
);
layerId = UUID0;
paths = (
{
closed = 1;
nodes = (
"479 523 LINE",
"479 585 OFFCURVE",
"438 706 OFFCURVE",
"279 711 CURVE",
"279 635 LINE",
"327 634 OFFCURVE",
"398 613 OFFCURVE",
"399 504 CURVE",
"359 524 OFFCURVE",
"319 535 OFFCURVE",
"281 535 CURVE SMOOTH",
"164 535 OFFCURVE",
"84 461 OFFCURVE",
"84 346 CURVE",
"84 181 LINE",
"84 64 OFFCURVE",
"162 -10 OFFCURVE",
"281 -10 CURVE SMOOTH",
"397 -10 OFFCURVE",
"479 66 OFFCURVE",
"479 181 CURVE"
);
},
{
closed = 1;
nodes = (
"399 180 LINE",
"399 110 OFFCURVE",
"354 67 OFFCURVE",
"281 67 CURVE SMOOTH",
"186 67 OFFCURVE",
"163 127 OFFCURVE",
"163 180 CURVE",
"163 345 LINE",
"163 416 OFFCURVE",
"207 458 OFFCURVE",
"281 458 CURVE SMOOTH",
"375 458 OFFCURVE",
"399 395 OFFCURVE",
"399 345 CURVE"
);
}
);
width = 550;
}
);
unicode = 2202;
},
{
glyphname = summation;
lastChange = "2018-10-27 09:40:54 +0000";
layers = (
{
background = {
paths = (
{
closed = 1;
nodes = (
"518 635 LINE",
"518 713 LINE",
"95 713 LINE",
"95 653 LINE",
"383 359 LINE",
"95 61 LINE",
"95 0 LINE",
"518 0 LINE",
"518 78 LINE",
"210 78 LINE",
"460 328 LINE",
"460 391 LINE",
"214 635 LINE"
);
}
);
};
hints = (
{
horizontal = 1;
place = "{0, 78}";
type = Stem;
},
{
horizontal = 1;
place = "{635, 78}";
type = Stem;
}
);
layerId = UUID0;
paths = (
{
closed = 1;
nodes = (
"518 635 LINE",
"518 713 LINE",
"95 713 LINE",
"95 653 LINE",
"383 359 LINE",
"95 61 LINE",
"95 0 LINE",
"518 0 LINE",
"518 78 LINE",
"210 78 LINE",
"460 328 LINE",
"460 391 LINE",
"214 635 LINE"
);
}
);
width = 600;
}
);
unicode = 2211;
},
{
glyphname = product;
lastChange = "2018-10-27 09:40:54 +0000";
layers = (
{
background = {
paths = (
{
closed = 1;
nodes = (
"505 0 LINE",
"505 704 LINE",
"92 704 LINE",
"92 0 LINE",
"171 0 LINE",
"171 627 LINE",
"426 627 LINE",
"426 0 LINE"
);
}
);
};
hints = (
{
place = "{92, 79}";
type = Stem;
},
{
place = "{426, 79}";
type = Stem;
},
{
horizontal = 1;
place = "{627, 77}";
type = Stem;
},
{
horizontal = 1;
place = "{1, 21}";
target = up;
type = BottomGhost;
}
);
layerId = UUID0;
paths = (
{
closed = 1;
nodes = (
"505 0 LINE",
"505 704 LINE",
"92 704 LINE",
"92 0 LINE",
"171 0 LINE",
"171 627 LINE",
"426 627 LINE",
"426 0 LINE"
);
}
);
width = 600;
}
);
unicode = 220F;
},
{
glyphname = pi;
lastChange = "2018-10-27 09:40:54 +0000";
layers = (
{
background = {
paths = (
{
closed = 1;
nodes = (
"433 134 LINE",
"433 36 OFFCURVE",
"486 -5 OFFCURVE",
"560 -5 CURVE",
"572 -5 LINE",
"572 73 LINE",
"565 73 LINE",
"537 73 OFFCURVE",
"512 86 OFFCURVE",
"512 128 CURVE",
"512 450 LINE",
"585 450 LINE",
"585 528 LINE",
"55 528 LINE",
"55 450 LINE",
"142 450 LINE",
"142 0 LINE",
"222 0 LINE",
"222 450 LINE",
"433 450 LINE"
);
}
);
};
hints = (
{
place = "{142, 80}";
type = Stem;
},
{
place = "{433, 79}";
type = Stem;
},
{
horizontal = 1;
place = "{451, 77}";
type = Stem;
},
{
horizontal = 1;
place = "{1, 21}";
target = up;
type = BottomGhost;
}
);
layerId = UUID0;
paths = (
{
closed = 1;
nodes = (
"433 134 LINE",
"433 36 OFFCURVE",
"486 -5 OFFCURVE",
"560 -5 CURVE",
"572 -5 LINE",
"572 73 LINE",
"565 73 LINE",
"537 73 OFFCURVE",
"512 86 OFFCURVE",
"512 128 CURVE",
"512 450 LINE",
"585 450 LINE",
"585 528 LINE",
"55 528 LINE",
"55 450 LINE",
"142 450 LINE",
"142 0 LINE",
"222 0 LINE",
"222 450 LINE",
"433 450 LINE"
);
}
);
width = 650;
}
);
unicode = 03C0;
},
{
glyphname = integral;
lastChange = "2018-10-27 09:40:54 +0000";
layers = (
{
background = {
paths = (
{
closed = 1;
nodes = (
"321 567 LINE",
"321 615 OFFCURVE",
"353 629 OFFCURVE",
"377 629 CURVE",
"433 629 LINE",
"433 704 LINE",
"385 704 LINE",
"290 704 OFFCURVE",
"244 647 OFFCURVE",
"244 555 CURVE",
"244 -84 LINE",
"244 -127 OFFCURVE",
"218 -140 OFFCURVE",
"190 -140 CURVE",
"165 -140 LINE",
"165 -216 LINE",
"194 -216 LINE",
"264 -216 OFFCURVE",
"321 -178 OFFCURVE",
"321 -78 CURVE"
);
}
);
};
hints = (
{
place = "{244, 77}";
type = Stem;
},
{
horizontal = 1;
place = "{-216, 76}";
type = Stem;
},
{
horizontal = 1;
place = "{629, 75}";
type = Stem;
}
);
layerId = UUID0;
paths = (
{
closed = 1;
nodes = (
"321 567 LINE",
"321 615 OFFCURVE",
"353 629 OFFCURVE",
"377 629 CURVE",
"433 629 LINE",
"433 704 LINE",
"385 704 LINE",
"290 704 OFFCURVE",
"244 647 OFFCURVE",
"244 555 CURVE",
"244 -84 LINE",
"244 -127 OFFCURVE",
"218 -140 OFFCURVE",
"190 -140 CURVE",
"165 -140 LINE",
"165 -216 LINE",
"194 -216 LINE",
"264 -216 OFFCURVE",
"321 -178 OFFCURVE",
"321 -78 CURVE"
);
}
);
width = 600;
}
);
unicode = 222B;
},
{
glyphname = ordfeminine;
lastChange = "2018-10-27 09:40:54 +0000";
layers = (
{
background = {
paths = (
{
closed = 1;
nodes = (
"302 618 LINE",
"302 707 OFFCURVE",
"245 735 OFFCURVE",
"182 735 CURVE SMOOTH",
"132 735 OFFCURVE",
"75 708 OFFCURVE",
"63 626 CURVE",
"122 626 LINE",
"130 664 OFFCURVE",
"152 678 OFFCURVE",
"183 678 CURVE SMOOTH",
"221 678 OFFCURVE",
"243 659 OFFCURVE",
"243 616 CURVE",
"243 585 LINE",
"157 585 LINE",
"88 585 OFFCURVE",
"47 542 OFFCURVE",
"47 483 CURVE SMOOTH",
"47 402 OFFCURVE",
"96 370 OFFCURVE",
"162 370 CURVE SMOOTH",
"190 370 OFFCURVE",
"218 388 OFFCURVE",
"243 415 CURVE",
"243 376 LINE",
"302 376 LINE"
);
},
{
closed = 1;
nodes = (
"243 490 LINE",
"243 443 OFFCURVE",
"209 426 OFFCURVE",
"170 426 CURVE SMOOTH",
"132 426 OFFCURVE",
"106 438 OFFCURVE",
"106 483 CURVE SMOOTH",
"106 512 OFFCURVE",
"126 531 OFFCURVE",
"158 531 CURVE",
"243 531 LINE"
);
}
);
};
hints = (
{
place = "{26, 59}";
type = Stem;
},
{
place = "{243, 59}";
type = Stem;
},
{
horizontal = 1;
place = "{376, 56}";
type = Stem;
},
{
horizontal = 1;
place = "{528, 52}";
type = Stem;
},
{
horizontal = 1;
place = "{670, 57}";
type = Stem;
}
);
layerId = UUID0;
paths = (
{
closed = 1;
nodes = (
"302 618 LINE",
"302 707 OFFCURVE",
"245 735 OFFCURVE",
"182 735 CURVE SMOOTH",
"132 735 OFFCURVE",
"75 708 OFFCURVE",
"63 626 CURVE",
"122 626 LINE",
"130 664 OFFCURVE",
"152 678 OFFCURVE",
"183 678 CURVE SMOOTH",
"221 678 OFFCURVE",
"243 659 OFFCURVE",
"243 616 CURVE",
"243 585 LINE",
"157 585 LINE",
"88 585 OFFCURVE",
"47 542 OFFCURVE",
"47 483 CURVE SMOOTH",
"47 402 OFFCURVE",
"96 370 OFFCURVE",
"162 370 CURVE SMOOTH",
"190 370 OFFCURVE",
"218 388 OFFCURVE",
"243 415 CURVE",
"243 376 LINE",
"302 376 LINE"
);
},
{
closed = 1;
nodes = (
"243 490 LINE",
"243 443 OFFCURVE",
"209 426 OFFCURVE",
"170 426 CURVE SMOOTH",
"132 426 OFFCURVE",
"106 438 OFFCURVE",
"106 483 CURVE SMOOTH",
"106 512 OFFCURVE",
"126 531 OFFCURVE",
"158 531 CURVE",
"243 531 LINE"
);
}
);
width = 350;
}
);
unicode = 00AA;
},
{
glyphname = ordmasculine;
lastChange = "2018-10-27 09:40:54 +0000";
layers = (
{
background = {
paths = (
{
closed = 1;
nodes = (
"313 606 LINE",
"313 685 OFFCURVE",
"260 735 OFFCURVE",
"179 735 CURVE SMOOTH",
"98 735 OFFCURVE",
"47 684 OFFCURVE",
"47 606 CURVE",
"47 496 LINE",
"47 417 OFFCURVE",
"97 367 OFFCURVE",
"179 367 CURVE SMOOTH",
"259 367 OFFCURVE",
"313 418 OFFCURVE",
"313 496 CURVE"
);
},
{
closed = 1;
nodes = (
"247 493 LINE",
"247 458 OFFCURVE",
"218 430 OFFCURVE",
"179 430 CURVE SMOOTH",
"129 430 OFFCURVE",
"113 466 OFFCURVE",
"113 493 CURVE",
"113 610 LINE",
"113 647 OFFCURVE",
"141 672 OFFCURVE",
"179 672 CURVE SMOOTH",
"228 672 OFFCURVE",
"247 636 OFFCURVE",
"247 610 CURVE"
);
}
);
};
hints = (
{
place = "{47, 66}";
type = Stem;
},
{
place = "{247, 66}";
type = Stem;
},
{
horizontal = 1;
place = "{376, 64}";
type = Stem;
},
{
horizontal = 1;
place = "{665, 64}";
type = Stem;
}
);
layerId = UUID0;
paths = (
{
closed = 1;
nodes = (
"313 606 LINE",
"313 685 OFFCURVE",
"260 735 OFFCURVE",
"179 735 CURVE SMOOTH",
"98 735 OFFCURVE",
"47 684 OFFCURVE",
"47 606 CURVE",
"47 496 LINE",
"47 417 OFFCURVE",
"97 367 OFFCURVE",
"179 367 CURVE SMOOTH",
"259 367 OFFCURVE",
"313 418 OFFCURVE",
"313 496 CURVE"
);
},
{
closed = 1;
nodes = (
"247 493 LINE",
"247 458 OFFCURVE",
"218 430 OFFCURVE",
"179 430 CURVE SMOOTH",
"129 430 OFFCURVE",
"113 466 OFFCURVE",
"113 493 CURVE",
"113 610 LINE",
"113 647 OFFCURVE",
"141 672 OFFCURVE",
"179 672 CURVE SMOOTH",
"228 672 OFFCURVE",
"247 636 OFFCURVE",
"247 610 CURVE"
);
}
);
width = 350;
}
);
unicode = 00BA;
},
{
glyphname = uni2126;
lastChange = "2018-10-27 09:40:54 +0000";
layers = (
{
background = {
paths = (
{
closed = 1;
nodes = (
"353 0 LINE",
"543 0 LINE",
"543 70 LINE",
"471 70 LINE",
"498 116 OFFCURVE",
"507 157 OFFCURVE",
"507 183 CURVE",
"507 529 LINE",
"507 592 OFFCURVE",
"461 718 OFFCURVE",
"305 718 CURVE SMOOTH",
"143 718 OFFCURVE",
"103 592 OFFCURVE",
"103 530 CURVE",
"103 184 LINE",
"103 158 OFFCURVE",
"113 116 OFFCURVE",
"141 70 CURVE",
"65 70 LINE",
"65 0 LINE",
"254 0 LINE",
"254 68 LINE",
"215 77 OFFCURVE",
"183 107 OFFCURVE",
"183 183 CURVE",
"183 527 LINE",
"183 626 OFFCURVE",
"265 640 OFFCURVE",
"305 640 CURVE SMOOTH",
"343 640 OFFCURVE",
"427 626 OFFCURVE",
"427 527 CURVE",
"427 183 LINE",
"427 100 OFFCURVE",
"394 74 OFFCURVE",
"353 68 CURVE"
);
}
);
};
hints = (
{
place = "{103, 80}";
type = Stem;
},
{
place = "{427, 80}";
type = Stem;
},
{
horizontal = 1;
place = "{0, 70}";
type = Stem;
},
{
horizontal = 1;
place = "{635, 78}";
type = Stem;
}
);
layerId = UUID0;
paths = (
{
closed = 1;
nodes = (
"353 0 LINE",
"543 0 LINE",
"543 70 LINE",
"471 70 LINE",
"498 116 OFFCURVE",
"507 157 OFFCURVE",
"507 183 CURVE",
"507 529 LINE",
"507 592 OFFCURVE",
"461 718 OFFCURVE",
"305 718 CURVE SMOOTH",
"143 718 OFFCURVE",
"103 592 OFFCURVE",
"103 530 CURVE",
"103 184 LINE",
"103 158 OFFCURVE",
"113 116 OFFCURVE",
"141 70 CURVE",
"65 70 LINE",
"65 0 LINE",
"254 0 LINE",
"254 68 LINE",
"215 77 OFFCURVE",
"183 107 OFFCURVE",
"183 183 CURVE",
"183 527 LINE",
"183 626 OFFCURVE",
"265 640 OFFCURVE",
"305 640 CURVE SMOOTH",
"343 640 OFFCURVE",
"427 626 OFFCURVE",
"427 527 CURVE",
"427 183 LINE",
"427 100 OFFCURVE",
"394 74 OFFCURVE",
"353 68 CURVE"
);
}
);
width = 600;
}
);
unicode = 2126;
},
{
glyphname = ae;
lastChange = "2018-10-27 09:40:54 +0000";
layers = (
{
background = {
paths = (
{
closed = 1;
nodes = (
"791 346 LINE",
"791 463 OFFCURVE",
"710 535 OFFCURVE",
"592 535 CURVE SMOOTH",
"533 535 OFFCURVE",
"479 512 OFFCURVE",
"440 474 CURVE",
"399 518 OFFCURVE",
"343 535 OFFCURVE",
"289 535 CURVE SMOOTH",
"216 535 OFFCURVE",
"118 492 OFFCURVE",
"102 379 CURVE",
"182 379 LINE",
"194 437 OFFCURVE",
"241 458 OFFCURVE",
"290 458 CURVE SMOOTH",
"351 458 OFFCURVE",
"394 438 OFFCURVE",
"394 361 CURVE",
"394 311 LINE",
"256 311 LINE",
"159 311 OFFCURVE",
"81 261 OFFCURVE",
"81 163 CURVE SMOOTH",
"81 43 OFFCURVE",
"174 -9 OFFCURVE",
"257 -9 CURVE SMOOTH",
"333 -9 OFFCURVE",
"383 19 OFFCURVE",
"427 66 CURVE",
"467 17 OFFCURVE",
"523 -10 OFFCURVE",
"592 -10 CURVE SMOOTH",
"697 -10 OFFCURVE",
"771 53 OFFCURVE",
"788 159 CURVE",
"705 159 LINE",
"694 99 OFFCURVE",
"653 67 OFFCURVE",
"592 67 CURVE SMOOTH",
"497 67 OFFCURVE",
"473 127 OFFCURVE",
"473 180 CURVE",
"473 239 LINE",
"791 239 LINE"
);
},
{
closed = 1;
nodes = (
"215 65 OFFCURVE",
"161 87 OFFCURVE",
"161 163 CURVE SMOOTH",
"161 217 OFFCURVE",
"202 238 OFFCURVE",
"257 238 CURVE",
"394 238 LINE",
"394 173 LINE",
"391 108 OFFCURVE",
"329 65 OFFCURVE",
"269 65 CURVE SMOOTH"
);
},
{
closed = 1;
nodes = (
"711 313 LINE",
"473 313 LINE",
"473 350 LINE",
"475 418 OFFCURVE",
"519 458 OFFCURVE",
"592 458 CURVE SMOOTH",
"686 458 OFFCURVE",
"711 397 OFFCURVE",
"711 346 CURVE"
);
}
);
};
hints = (
{
place = "{81, 80}";
type = Stem;
},
{
place = "{394, 79}";
type = Stem;
},
{
place = "{711, 80}";
type = Stem;
},
{
horizontal = 1;
place = "{0, 76}";
type = Stem;
},
{
horizontal = 1;
place = "{239, 72}";
type = Stem;
},
{
horizontal = 1;
place = "{450, 78}";
type = Stem;
}
);
layerId = UUID0;
paths = (
{
closed = 1;
nodes = (
"791 346 LINE",
"791 463 OFFCURVE",
"710 535 OFFCURVE",
"592 535 CURVE SMOOTH",
"533 535 OFFCURVE",
"479 512 OFFCURVE",
"440 474 CURVE",
"399 518 OFFCURVE",
"343 535 OFFCURVE",
"289 535 CURVE SMOOTH",
"216 535 OFFCURVE",
"118 492 OFFCURVE",
"102 379 CURVE",
"182 379 LINE",
"194 437 OFFCURVE",
"241 458 OFFCURVE",
"290 458 CURVE SMOOTH",
"351 458 OFFCURVE",
"394 438 OFFCURVE",
"394 361 CURVE",
"394 311 LINE",
"256 311 LINE",
"159 311 OFFCURVE",
"81 261 OFFCURVE",
"81 163 CURVE SMOOTH",
"81 43 OFFCURVE",
"174 -9 OFFCURVE",
"257 -9 CURVE SMOOTH",
"333 -9 OFFCURVE",
"383 19 OFFCURVE",
"427 66 CURVE",
"467 17 OFFCURVE",
"523 -10 OFFCURVE",
"592 -10 CURVE SMOOTH",
"697 -10 OFFCURVE",
"771 53 OFFCURVE",
"788 159 CURVE",
"705 159 LINE",
"694 99 OFFCURVE",
"653 67 OFFCURVE",
"592 67 CURVE SMOOTH",
"497 67 OFFCURVE",
"473 127 OFFCURVE",
"473 180 CURVE",
"473 239 LINE",
"791 239 LINE"
);
},
{
closed = 1;
nodes = (
"215 65 OFFCURVE",
"161 87 OFFCURVE",
"161 163 CURVE SMOOTH",
"161 217 OFFCURVE",
"202 238 OFFCURVE",
"257 238 CURVE",
"394 238 LINE",
"394 173 LINE",
"391 108 OFFCURVE",
"329 65 OFFCURVE",
"269 65 CURVE SMOOTH"
);
},
{
closed = 1;
nodes = (
"711 313 LINE",
"473 313 LINE",
"473 350 LINE",
"475 418 OFFCURVE",
"519 458 OFFCURVE",
"592 458 CURVE SMOOTH",
"686 458 OFFCURVE",
"711 397 OFFCURVE",
"711 346 CURVE"
);
}
);
width = 850;
}
);
unicode = 00E6;
},
{
glyphname = oslash;
lastChange = "2018-10-27 09:40:54 +0000";
layers = (
{
background = {
paths = (
{
closed = 1;
nodes = (
"448 582 LINE",
"413 582 LINE",
"402 561 OFFCURVE",
"391 533 OFFCURVE",
"381 514 CURVE",
"348 528 OFFCURVE",
"316 535 OFFCURVE",
"281 535 CURVE SMOOTH",
"164 535 OFFCURVE",
"84 461 OFFCURVE",
"84 346 CURVE",
"84 181 LINE",
"84 118 OFFCURVE",
"108 67 OFFCURVE",
"150 30 CURVE",
"110 -54 LINE",
"145 -54 LINE",
"155 -33 OFFCURVE",
"168 -7 OFFCURVE",
"177 13 CURVE",
"209 -2 OFFCURVE",
"245 -10 OFFCURVE",
"281 -10 CURVE SMOOTH",
"397 -10 OFFCURVE",
"479 66 OFFCURVE",
"479 181 CURVE",
"479 346 LINE",
"479 409 OFFCURVE",
"452 462 OFFCURVE",
"409 497 CURVE"
);
},
{
closed = 1;
nodes = (
"399 180 LINE",
"399 110 OFFCURVE",
"354 67 OFFCURVE",
"281 67 CURVE SMOOTH",
"256 67 OFFCURVE",
"233 73 OFFCURVE",
"211 83 CURVE",
"373 425 LINE",
"392 393 OFFCURVE",
"399 366 OFFCURVE",
"399 345 CURVE"
);
},
{
closed = 1;
nodes = (
"163 345 LINE",
"163 416 OFFCURVE",
"207 458 OFFCURVE",
"281 458 CURVE SMOOTH",
"301 458 OFFCURVE",
"324 451 OFFCURVE",
"347 443 CURVE",
"184 103 LINE",
"167 137 OFFCURVE",
"163 161 OFFCURVE",
"163 180 CURVE"
);
}
);
};
hints = (
{
place = "{84, 79}";
type = Stem;
},
{
place = "{399, 80}";
type = Stem;
},
{
horizontal = 1;
place = "{0, 77}";
type = Stem;
},
{
horizontal = 1;
place = "{449, 77}";
type = Stem;
}
);
layerId = UUID0;
paths = (
{
closed = 1;
nodes = (
"448 582 LINE",
"413 582 LINE",
"402 561 OFFCURVE",
"391 533 OFFCURVE",
"381 514 CURVE",
"348 528 OFFCURVE",
"316 535 OFFCURVE",
"281 535 CURVE SMOOTH",
"164 535 OFFCURVE",
"84 461 OFFCURVE",
"84 346 CURVE SMOOTH",
"84 181 LINE SMOOTH",
"84 118 OFFCURVE",
"108 67 OFFCURVE",
"150 30 CURVE",
"110 -54 LINE",
"145 -54 LINE",
"177 13 LINE",
"209 -2 OFFCURVE",
"245 -10 OFFCURVE",
"281 -10 CURVE SMOOTH",
"397 -10 OFFCURVE",
"479 66 OFFCURVE",
"479 181 CURVE SMOOTH",
"479 346 LINE SMOOTH",
"479 409 OFFCURVE",
"452 462 OFFCURVE",
"409 497 CURVE"
);
},
{
closed = 1;
nodes = (
"399 180 LINE SMOOTH",
"399 110 OFFCURVE",
"354 67 OFFCURVE",
"281 67 CURVE SMOOTH",
"256 67 OFFCURVE",
"233 73 OFFCURVE",
"211 83 CURVE",
"373 425 LINE",
"392 393 OFFCURVE",
"399 366 OFFCURVE",
"399 345 CURVE SMOOTH"
);
},
{
closed = 1;
nodes = (
"163 345 LINE SMOOTH",
"163 416 OFFCURVE",
"207 458 OFFCURVE",
"281 458 CURVE SMOOTH",
"301 458 OFFCURVE",
"324 451 OFFCURVE",
"347 443 CURVE",
"184 103 LINE",
"167 137 OFFCURVE",
"163 161 OFFCURVE",
"163 180 CURVE"
);
}
);
width = 550;
}
);
unicode = 00F8;
},
{
glyphname = questiondown;
lastChange = "2018-10-27 09:40:54 +0000";
layers = (
{
background = {
paths = (
{
closed = 1;
nodes = (
"106 -117 OFFCURVE",
"187 -196 OFFCURVE",
"304 -196 CURVE SMOOTH",
"455 -196 OFFCURVE",
"503 -72 OFFCURVE",
"505 2 CURVE",
"425 2 LINE",
"415 -104 OFFCURVE",
"341 -119 OFFCURVE",
"304 -119 CURVE SMOOTH",
"226 -119 OFFCURVE",
"186 -79 OFFCURVE",
"186 0 CURVE SMOOTH",
"186 31 OFFCURVE",
"195 55 OFFCURVE",
"209 72 CURVE",
"209 71 LINE",
"227 94 OFFCURVE",
"248 112 OFFCURVE",
"271 130 CURVE SMOOTH",
"289 143 OFFCURVE",
"307 157 OFFCURVE",
"320 172 CURVE SMOOTH",
"343 198 OFFCURVE",
"365 242 OFFCURVE",
"365 301 CURVE",
"365 336 LINE",
"286 336 LINE",
"286 298 LINE",
"286 260 OFFCURVE",
"277 237 OFFCURVE",
"262 220 CURVE SMOOTH",
"244 202 OFFCURVE",
"225 186 OFFCURVE",
"206 170 CURVE SMOOTH",
"186 154 OFFCURVE",
"167 137 OFFCURVE",
"150 118 CURVE SMOOTH",
"125 90 OFFCURVE",
"106 46 OFFCURVE",
"106 -1 CURVE SMOOTH"
);
},
{
closed = 1;
nodes = (
"273 533 LINE",
"273 428 LINE",
"377 428 LINE",
"377 533 LINE"
);
}
);
};
hints = (
{
place = "{106, 80}";
type = Stem;
},
{
place = "{286, 79}";
type = Stem;
},
{
place = "{426, 79}";
type = Stem;
},
{
horizontal = 1;
place = "{-196, 77}";
type = Stem;
},
{
horizontal = 1;
place = "{428, 105}";
type = Stem;
}
);
layerId = UUID0;
paths = (
{
closed = 1;
nodes = (
"106 -117 OFFCURVE",
"187 -196 OFFCURVE",
"304 -196 CURVE SMOOTH",
"455 -196 OFFCURVE",
"503 -72 OFFCURVE",
"505 2 CURVE",
"425 2 LINE",
"415 -104 OFFCURVE",
"341 -119 OFFCURVE",
"304 -119 CURVE SMOOTH",
"226 -119 OFFCURVE",
"186 -79 OFFCURVE",
"186 0 CURVE SMOOTH",
"186 31 OFFCURVE",
"195 55 OFFCURVE",
"209 72 CURVE",
"209 71 LINE",
"227 94 OFFCURVE",
"248 112 OFFCURVE",
"271 130 CURVE SMOOTH",
"289 143 OFFCURVE",
"307 157 OFFCURVE",
"320 172 CURVE SMOOTH",
"343 198 OFFCURVE",
"365 242 OFFCURVE",
"365 301 CURVE",
"365 336 LINE",
"286 336 LINE",
"286 298 LINE",
"286 260 OFFCURVE",
"277 237 OFFCURVE",
"262 220 CURVE SMOOTH",
"244 202 OFFCURVE",
"225 186 OFFCURVE",
"206 170 CURVE SMOOTH",
"186 154 OFFCURVE",
"167 137 OFFCURVE",
"150 118 CURVE SMOOTH",
"125 90 OFFCURVE",
"106 46 OFFCURVE",
"106 -1 CURVE SMOOTH"
);
},
{
closed = 1;
nodes = (
"273 533 LINE",
"273 428 LINE",
"377 428 LINE",
"377 533 LINE"
);
}
);
width = 600;
}
);
unicode = 00BF;
},
{
glyphname = exclamdown;
lastChange = "2018-10-27 09:40:54 +0000";
layers = (
{
background = {
paths = (
{
closed = 1;
nodes = (
"265 347 LINE",
"265 -181 LINE",
"343 -181 LINE",
"343 347 LINE"
);
},
{
closed = 1;
nodes = (
"252 543 LINE",
"252 439 LINE",
"357 439 LINE",
"357 543 LINE"
);
}
);
};
hints = (
{
place = "{265, 78}";
type = Stem;
},
{
horizontal = 1;
place = "{439, 104}";
type = Stem;
},
{
horizontal = 1;
place = "{-180, 21}";
target = up;
type = BottomGhost;
}
);
layerId = UUID0;
paths = (
{
closed = 1;
nodes = (
"265 347 LINE",
"265 -181 LINE",
"343 -181 LINE",
"343 347 LINE"
);
},
{
closed = 1;
nodes = (
"252 543 LINE",
"252 439 LINE",
"357 439 LINE",
"357 543 LINE"
);
}
);
width = 600;
}
);
unicode = 00A1;
},
{
glyphname = logicalnot;
lastChange = "2018-10-27 09:40:54 +0000";
layers = (
{
background = {
paths = (
{
closed = 1;
nodes = (
"505 168 LINE",
"505 407 LINE",
"92 407 LINE",
"92 332 LINE",
"428 332 LINE",
"428 168 LINE"
);
}
);
};
hints = (
{
place = "{428, 77}";
type = Stem;
},
{
horizontal = 1;
place = "{168, 239}";
type = Stem;
},
{
horizontal = 1;
place = "{332, 75}";
type = Stem;
}
);
layerId = UUID0;
paths = (
{
closed = 1;
nodes = (
"505 168 LINE",
"505 407 LINE",
"92 407 LINE",
"92 332 LINE",
"428 332 LINE",
"428 168 LINE"
);
}
);
width = 600;
}
);
unicode = 00AC;
},
{
glyphname = radical;
lastChange = "2018-10-27 09:40:54 +0000";
layers = (
{
background = {
paths = (
{
closed = 1;
nodes = (
"43 311 LINE",
"191 -216 LINE",
"310 -216 LINE",
"567 705 LINE",
"487 705 LINE",
"411 431 OFFCURVE",
"326 121 OFFCURVE",
"250 -153 CURVE",
"123 311 LINE"
);
}
);
};
layerId = UUID0;
paths = (
{
closed = 1;
nodes = (
"43 311 LINE",
"191 -216 LINE",
"310 -216 LINE",
"567 705 LINE",
"487 705 LINE",
"250 -153 LINE",
"123 311 LINE"
);
}
);
width = 600;
}
);
unicode = 221A;
},
{
glyphname = florin;
lastChange = "2018-10-27 09:40:54 +0000";
layers = (
{
background = {
paths = (
{
closed = 1;
nodes = (
"324 448 LINE",
"447 448 LINE",
"447 526 LINE",
"324 526 LINE",
"324 566 LINE",
"324 614 OFFCURVE",
"355 627 OFFCURVE",
"379 627 CURVE",
"436 627 LINE",
"436 704 LINE",
"387 704 LINE",
"291 704 OFFCURVE",
"245 646 OFFCURVE",
"245 554 CURVE",
"245 526 LINE",
"155 526 LINE",
"155 448 LINE",
"245 448 LINE",
"245 -83 LINE",
"245 -125 OFFCURVE",
"220 -138 OFFCURVE",
"192 -138 CURVE",
"167 -138 LINE",
"167 -215 LINE",
"196 -215 LINE",
"267 -215 OFFCURVE",
"324 -177 OFFCURVE",
"324 -77 CURVE"
);
}
);
};
hints = (
{
place = "{245, 79}";
type = Stem;
},
{
horizontal = 1;
place = "{-215, 77}";
type = Stem;
},
{
horizontal = 1;
place = "{448, 78}";
type = Stem;
},
{
horizontal = 1;
place = "{627, 77}";
type = Stem;
}
);
layerId = UUID0;
paths = (
{
closed = 1;
nodes = (
"324 448 LINE",
"447 448 LINE",
"447 526 LINE",
"324 526 LINE",
"324 566 LINE",
"324 614 OFFCURVE",
"355 627 OFFCURVE",
"379 627 CURVE",
"436 627 LINE",
"436 704 LINE",
"387 704 LINE",
"291 704 OFFCURVE",
"245 646 OFFCURVE",
"245 554 CURVE",
"245 526 LINE",
"155 526 LINE",
"155 448 LINE",
"245 448 LINE",
"245 -83 LINE",
"245 -125 OFFCURVE",
"220 -138 OFFCURVE",
"192 -138 CURVE",
"167 -138 LINE",
"167 -215 LINE",
"196 -215 LINE",
"267 -215 OFFCURVE",
"324 -177 OFFCURVE",
"324 -77 CURVE"
);
}
);
width = 600;
}
);
unicode = 0192;
},
{
glyphname = uni2206;
lastChange = "2018-10-27 09:40:54 +0000";
layers = (
{
background = {
paths = (
{
closed = 1;
nodes = (
"561 0 LINE",
"369 724 LINE",
"240 724 LINE",
"52 0 LINE"
);
},
{
closed = 1;
nodes = (
"461 79 LINE",
"153 79 LINE",
"298 633 LINE",
"317 633 LINE"
);
}
);
};
hints = (
{
horizontal = 1;
place = "{0, 79}";
type = Stem;
},
{
horizontal = 1;
place = "{724, -20}";
target = down;
type = TopGhost;
}
);
layerId = UUID0;
paths = (
{
closed = 1;
nodes = (
"561 0 LINE",
"369 724 LINE",
"240 724 LINE",
"52 0 LINE"
);
},
{
closed = 1;
nodes = (
"461 79 LINE",
"153 79 LINE",
"298 633 LINE",
"317 633 LINE"
);
}
);
width = 600;
}
);
unicode = 2206;
},
{
glyphname = guillemotleft;
lastChange = "2018-10-27 09:40:54 +0000";
layers = (
{
background = {
paths = (
{
closed = 1;
nodes = (
"499 64 LINE",
"499 165 LINE",
"400 264 LINE",
"499 365 LINE",
"499 467 LINE",
"298 264 LINE"
);
},
{
closed = 1;
nodes = (
"307 63 LINE",
"307 164 LINE",
"207 264 LINE",
"307 366 LINE",
"307 467 LINE",
"105 264 LINE"
);
}
);
};
hints = (
{
horizontal = 1;
place = "{482, -20}";
target = down;
type = TopGhost;
},
{
horizontal = 1;
place = "{49, 21}";
target = up;
type = BottomGhost;
}
);
layerId = UUID0;
paths = (
{
closed = 1;
nodes = (
"499 64 LINE",
"499 165 LINE",
"400 264 LINE",
"499 365 LINE",
"499 467 LINE",
"298 264 LINE"
);
},
{
closed = 1;
nodes = (
"307 63 LINE",
"307 164 LINE",
"207 264 LINE",
"307 366 LINE",
"307 467 LINE",
"105 264 LINE"
);
}
);
width = 600;
}
);
unicode = 00AB;
},
{
glyphname = guillemotright;
lastChange = "2018-10-27 09:40:54 +0000";
layers = (
{
background = {
paths = (
{
closed = 1;
nodes = (
"505 265 LINE",
"434 336 OFFCURVE",
"377 396 OFFCURVE",
"305 468 CURVE",
"305 366 LINE",
"405 265 LINE",
"305 165 LINE",
"305 65 LINE"
);
},
{
closed = 1;
nodes = (
"312 265 LINE",
"241 336 OFFCURVE",
"183 396 OFFCURVE",
"111 468 CURVE",
"111 366 LINE",
"213 265 LINE",
"111 165 LINE",
"111 65 LINE"
);
}
);
};
hints = (
{
horizontal = 1;
place = "{483, -20}";
target = down;
type = TopGhost;
},
{
horizontal = 1;
place = "{51, 21}";
target = up;
type = BottomGhost;
}
);
layerId = UUID0;
paths = (
{
closed = 1;
nodes = (
"505 265 LINE",
"434 336 OFFCURVE",
"377 396 OFFCURVE",
"305 468 CURVE",
"305 366 LINE",
"405 265 LINE",
"305 165 LINE",
"305 65 LINE"
);
},
{
closed = 1;
nodes = (
"312 265 LINE",
"241 336 OFFCURVE",
"183 396 OFFCURVE",
"111 468 CURVE",
"111 366 LINE",
"213 265 LINE",
"111 165 LINE",
"111 65 LINE"
);
}
);
width = 600;
}
);
unicode = 00BB;
},
{
glyphname = ellipsis;
lastChange = "2018-10-27 09:40:54 +0000";
layers = (
{
background = {
paths = (
{
closed = 1;
nodes = (
"566 0 LINE",
"566 109 LINE",
"468 109 LINE",
"468 0 LINE"
);
},
{
closed = 1;
nodes = (
"356 0 LINE",
"356 109 LINE",
"259 109 LINE",
"259 0 LINE"
);
},
{
closed = 1;
nodes = (
"148 0 LINE",
"148 109 LINE",
"49 109 LINE",
"49 0 LINE"
);
}
);
};
hints = (
{
place = "{49, 99}";
type = Stem;
},
{
place = "{259, 97}";
type = Stem;
},
{
place = "{468, 98}";
type = Stem;
},
{
horizontal = 1;
place = "{0, 109}";
type = Stem;
}
);
layerId = UUID0;
paths = (
{
closed = 1;
nodes = (
"566 0 LINE",
"566 109 LINE",
"468 109 LINE",
"468 0 LINE"
);
},
{
closed = 1;
nodes = (
"356 0 LINE",
"356 109 LINE",
"259 109 LINE",
"259 0 LINE"
);
},
{
closed = 1;
nodes = (
"148 0 LINE",
"148 109 LINE",
"49 109 LINE",
"49 0 LINE"
);
}
);
width = 600;
}
);
unicode = 2026;
},
{
glyphname = OE;
lastChange = "2018-10-27 09:40:54 +0000";
layers = (
{
background = {
paths = (
{
closed = 1;
nodes = (
"812 0 LINE",
"812 78 LINE",
"505 78 LINE",
"505 338 LINE",
"789 338 LINE",
"789 416 LINE",
"505 416 LINE",
"505 635 LINE",
"812 635 LINE",
"812 713 LINE",
"425 713 LINE",
"425 684 LINE",
"387 705 OFFCURVE",
"346 718 OFFCURVE",
"303 718 CURVE SMOOTH",
"141 718 OFFCURVE",
"100 592 OFFCURVE",
"100 530 CURVE",
"100 184 LINE",
"100 120 OFFCURVE",
"145 -9 OFFCURVE",
"302 -9 CURVE SMOOTH",
"345 -9 OFFCURVE",
"387 4 OFFCURVE",
"425 24 CURVE",
"425 0 LINE"
);
},
{
closed = 1;
nodes = (
"425 183 LINE",
"425 83 OFFCURVE",
"341 69 OFFCURVE",
"303 69 CURVE SMOOTH",
"263 69 OFFCURVE",
"181 83 OFFCURVE",
"181 183 CURVE",
"181 527 LINE",
"181 626 OFFCURVE",
"263 640 OFFCURVE",
"303 640 CURVE SMOOTH",
"341 640 OFFCURVE",
"425 626 OFFCURVE",
"425 527 CURVE"
);
}
);
};
hints = (
{
place = "{100, 81}";
type = Stem;
},
{
place = "{425, 80}";
type = Stem;
},
{
horizontal = 1;
place = "{338, 78}";
type = Stem;
},
{
horizontal = 1;
place = "{635, 78}";
type = Stem;
},
{
horizontal = 1;
place = "{0, 78}";
type = Stem;
}
);
layerId = UUID0;
paths = (
{
closed = 1;
nodes = (
"812 0 LINE",
"812 78 LINE",
"505 78 LINE",
"505 338 LINE",
"789 338 LINE",
"789 416 LINE",
"505 416 LINE",
"505 635 LINE",
"812 635 LINE",
"812 713 LINE",
"425 713 LINE",
"425 684 LINE",
"387 705 OFFCURVE",
"346 718 OFFCURVE",
"303 718 CURVE SMOOTH",
"141 718 OFFCURVE",
"100 592 OFFCURVE",
"100 530 CURVE",
"100 184 LINE",
"100 120 OFFCURVE",
"145 -9 OFFCURVE",
"302 -9 CURVE SMOOTH",
"345 -9 OFFCURVE",
"387 4 OFFCURVE",
"425 24 CURVE",
"425 0 LINE"
);
},
{
closed = 1;
nodes = (
"425 183 LINE",
"425 83 OFFCURVE",
"341 69 OFFCURVE",
"303 69 CURVE SMOOTH",
"263 69 OFFCURVE",
"181 83 OFFCURVE",
"181 183 CURVE",
"181 527 LINE",
"181 626 OFFCURVE",
"263 640 OFFCURVE",
"303 640 CURVE SMOOTH",
"341 640 OFFCURVE",
"425 626 OFFCURVE",
"425 527 CURVE"
);
}
);
width = 900;
}
);
unicode = 0152;
},
{
glyphname = oe;
lastChange = "2018-10-27 09:40:54 +0000";
layers = (
{
background = {
paths = (
{
closed = 1;
nodes = (
"793 346 LINE",
"793 463 OFFCURVE",
"712 535 OFFCURVE",
"594 535 CURVE SMOOTH",
"532 535 OFFCURVE",
"475 511 OFFCURVE",
"435 469 CURVE",
"397 512 OFFCURVE",
"341 535 OFFCURVE",
"278 535 CURVE SMOOTH",
"161 535 OFFCURVE",
"80 461 OFFCURVE",
"80 346 CURVE",
"80 181 LINE",
"80 64 OFFCURVE",
"159 -10 OFFCURVE",
"278 -10 CURVE SMOOTH",
"339 -10 OFFCURVE",
"395 15 OFFCURVE",
"434 57 CURVE",
"474 14 OFFCURVE",
"530 -10 OFFCURVE",
"594 -10 CURVE SMOOTH",
"699 -10 OFFCURVE",
"773 53 OFFCURVE",
"790 159 CURVE",
"707 159 LINE",
"696 99 OFFCURVE",
"655 67 OFFCURVE",
"594 67 CURVE SMOOTH",
"499 67 OFFCURVE",
"475 127 OFFCURVE",
"475 180 CURVE",
"475 239 LINE",
"793 239 LINE"
);
},
{
closed = 1;
nodes = (
"396 180 LINE",
"396 110 OFFCURVE",
"351 67 OFFCURVE",
"278 67 CURVE SMOOTH",
"183 67 OFFCURVE",
"160 127 OFFCURVE",
"160 180 CURVE",
"160 345 LINE",
"160 416 OFFCURVE",
"204 458 OFFCURVE",
"278 458 CURVE SMOOTH",
"367 458 OFFCURVE",
"394 401 OFFCURVE",
"396 351 CURVE"
);
},
{
closed = 1;
nodes = (
"713 313 LINE",
"475 313 LINE",
"475 346 LINE",
"475 417 OFFCURVE",
"520 458 OFFCURVE",
"594 458 CURVE SMOOTH",
"688 458 OFFCURVE",
"713 397 OFFCURVE",
"713 346 CURVE"
);
}
);
};
hints = (
{
place = "{80, 80}";
type = Stem;
},
{
place = "{396, 79}";
type = Stem;
},
{
place = "{713, 80}";
type = Stem;
},
{
horizontal = 1;
place = "{0, 77}";
type = Stem;
},
{
horizontal = 1;
place = "{239, 74}";
type = Stem;
},
{
horizontal = 1;
place = "{450, 78}";
type = Stem;
}
);
layerId = UUID0;
paths = (
{
closed = 1;
nodes = (
"793 346 LINE",
"793 463 OFFCURVE",
"712 535 OFFCURVE",
"594 535 CURVE SMOOTH",
"532 535 OFFCURVE",
"475 511 OFFCURVE",
"435 469 CURVE",
"397 512 OFFCURVE",
"341 535 OFFCURVE",
"278 535 CURVE SMOOTH",
"161 535 OFFCURVE",
"80 461 OFFCURVE",
"80 346 CURVE",
"80 181 LINE",
"80 64 OFFCURVE",
"159 -10 OFFCURVE",
"278 -10 CURVE SMOOTH",
"339 -10 OFFCURVE",
"395 15 OFFCURVE",
"434 57 CURVE",
"474 14 OFFCURVE",
"530 -10 OFFCURVE",
"594 -10 CURVE SMOOTH",
"699 -10 OFFCURVE",
"773 53 OFFCURVE",
"790 159 CURVE",
"707 159 LINE",
"696 99 OFFCURVE",
"655 67 OFFCURVE",
"594 67 CURVE SMOOTH",
"499 67 OFFCURVE",
"475 127 OFFCURVE",
"475 180 CURVE",
"475 239 LINE",
"793 239 LINE"
);
},
{
closed = 1;
nodes = (
"396 180 LINE",
"396 110 OFFCURVE",
"351 67 OFFCURVE",
"278 67 CURVE SMOOTH",
"183 67 OFFCURVE",
"160 127 OFFCURVE",
"160 180 CURVE",
"160 345 LINE",
"160 416 OFFCURVE",
"204 458 OFFCURVE",
"278 458 CURVE SMOOTH",
"367 458 OFFCURVE",
"394 401 OFFCURVE",
"396 351 CURVE"
);
},
{
closed = 1;
nodes = (
"713 313 LINE",
"475 313 LINE",
"475 346 LINE",
"475 417 OFFCURVE",
"520 458 OFFCURVE",
"594 458 CURVE SMOOTH",
"688 458 OFFCURVE",
"713 397 OFFCURVE",
"713 346 CURVE"
);
}
);
width = 850;
}
);
unicode = 0153;
},
{
glyphname = endash;
lastChange = "2018-10-27 09:40:54 +0000";
layers = (
{
background = {
paths = (
{
closed = 1;
nodes = (
"521 247 LINE",
"521 320 LINE",
"96 320 LINE",
"96 247 LINE"
);
}
);
};
hints = (
{
horizontal = 1;
place = "{247, 73}";
type = Stem;
}
);
layerId = UUID0;
paths = (
{
closed = 1;
nodes = (
"521 247 LINE",
"521 320 LINE",
"96 320 LINE",
"96 247 LINE"
);
}
);
width = 600;
}
);
unicode = 2013;
},
{
glyphname = emdash;
lastChange = "2018-10-27 09:40:54 +0000";
layers = (
{
background = {
paths = (
{
closed = 1;
nodes = (
"639 247 LINE",
"639 320 LINE",
"-31 320 LINE",
"-31 247 LINE"
);
}
);
};
hints = (
{
horizontal = 1;
place = "{247, 73}";
type = Stem;
}
);
layerId = UUID0;
paths = (
{
closed = 1;
nodes = (
"639 247 LINE",
"639 320 LINE",
"-31 320 LINE",
"-31 247 LINE"
);
}
);
width = 600;
}
);
unicode = 2014;
},
{
glyphname = quotedblleft;
lastChange = "2018-10-27 09:40:54 +0000";
layers = (
{
background = {
paths = (
{
closed = 1;
nodes = (
"363 798 LINE",
"330 729 OFFCURVE",
"301 664 OFFCURVE",
"267 594 CURVE",
"354 594 LINE",
"435 798 LINE"
);
},
{
closed = 1;
nodes = (
"170 798 LINE",
"137 729 OFFCURVE",
"107 664 OFFCURVE",
"74 594 CURVE",
"161 594 LINE",
"242 798 LINE"
);
}
);
};
hints = (
{
horizontal = 1;
place = "{594, 204}";
type = Stem;
}
);
layerId = UUID0;
paths = (
{
closed = 1;
nodes = (
"170 798 LINE",
"74 594 LINE",
"161 594 LINE",
"242 798 LINE"
);
},
{
closed = 1;
nodes = (
"363 798 LINE",
"330 729 OFFCURVE",
"301 664 OFFCURVE",
"267 594 CURVE",
"354 594 LINE",
"435 798 LINE"
);
}
);
width = 500;
}
);
unicode = 201C;
},
{
glyphname = quotedblright;
lastChange = "2018-10-27 09:40:54 +0000";
layers = (
{
background = {
paths = (
{
closed = 1;
nodes = (
"330 594 LINE",
"363 665 OFFCURVE",
"394 727 OFFCURVE",
"428 798 CURVE",
"340 798 LINE",
"261 594 LINE"
);
},
{
closed = 1;
nodes = (
"139 594 LINE",
"172 665 OFFCURVE",
"202 727 OFFCURVE",
"237 798 CURVE",
"149 798 LINE",
"70 594 LINE"
);
}
);
};
hints = (
{
horizontal = 1;
place = "{594, 204}";
type = Stem;
}
);
layerId = UUID0;
paths = (
{
closed = 1;
nodes = (
"330 594 LINE",
"363 665 OFFCURVE",
"394 727 OFFCURVE",
"428 798 CURVE",
"340 798 LINE",
"261 594 LINE"
);
},
{
closed = 1;
nodes = (
"139 594 LINE",
"172 665 OFFCURVE",
"202 727 OFFCURVE",
"237 798 CURVE",
"149 798 LINE",
"70 594 LINE"
);
}
);
width = 500;
}
);
unicode = 201D;
},
{
glyphname = quoteleft;
lastChange = "2018-10-27 09:40:54 +0000";
layers = (
{
background = {
paths = (
{
closed = 1;
nodes = (
"196 798 LINE",
"162 729 OFFCURVE",
"133 664 OFFCURVE",
"99 594 CURVE",
"186 594 LINE",
"268 798 LINE"
);
}
);
};
hints = (
{
horizontal = 1;
place = "{595, 21}";
target = up;
type = BottomGhost;
},
{
horizontal = 1;
place = "{798, -20}";
target = down;
type = TopGhost;
}
);
layerId = UUID0;
paths = (
{
closed = 1;
nodes = (
"196 798 LINE",
"162 729 OFFCURVE",
"133 664 OFFCURVE",
"99 594 CURVE",
"186 594 LINE",
"268 798 LINE"
);
}
);
width = 350;
}
);
unicode = 2018;
},
{
glyphname = quoteright;
lastChange = "2018-10-27 09:40:54 +0000";
layers = (
{
background = {
paths = (
{
closed = 1;
nodes = (
"166 594 LINE",
"200 665 OFFCURVE",
"230 727 OFFCURVE",
"265 798 CURVE",
"177 798 LINE",
"97 594 LINE"
);
}
);
};
hints = (
{
horizontal = 1;
place = "{798, -20}";
target = down;
type = TopGhost;
},
{
horizontal = 1;
place = "{595, 21}";
target = up;
type = BottomGhost;
}
);
layerId = UUID0;
paths = (
{
closed = 1;
nodes = (
"166 594 LINE",
"265 798 LINE",
"177 798 LINE",
"97 594 LINE"
);
}
);
width = 350;
}
);
unicode = 2019;
},
{
glyphname = lozenge;
lastChange = "2018-10-27 09:40:54 +0000";
layers = (
{
background = {
paths = (
{
closed = 1;
nodes = (
"105 359 LINE",
"263 0 LINE",
"349 0 LINE",
"507 359 LINE",
"453 483 OFFCURVE",
"403 601 OFFCURVE",
"349 724 CURVE",
"263 724 LINE"
);
},
{
closed = 1;
nodes = (
"180 359 LINE",
"307 656 LINE",
"432 359 LINE",
"306 67 LINE"
);
}
);
};
layerId = UUID0;
paths = (
{
closed = 1;
nodes = (
"105 359 LINE",
"263 0 LINE",
"349 0 LINE",
"507 359 LINE",
"453 483 OFFCURVE",
"403 601 OFFCURVE",
"349 724 CURVE",
"263 724 LINE"
);
},
{
closed = 1;
nodes = (
"180 359 LINE",
"307 656 LINE",
"432 359 LINE",
"306 67 LINE"
);
}
);
width = 600;
}
);
unicode = 25CA;
},
{
glyphname = fraction;
lastChange = "2018-10-27 09:40:54 +0000";
layers = (
{
background = {
paths = (
{
closed = 1;
nodes = (
"493 724 LINE",
"458 724 LINE",
"119 0 LINE",
"154 0 LINE"
);
}
);
};
hints = (
{
horizontal = 1;
place = "{724, -20}";
target = down;
type = TopGhost;
},
{
horizontal = 1;
place = "{1, 21}";
target = up;
type = BottomGhost;
}
);
layerId = UUID0;
paths = (
{
closed = 1;
nodes = (
"493 724 LINE",
"458 724 LINE",
"119 0 LINE",
"154 0 LINE"
);
}
);
width = 600;
}
);
unicode = 2044;
},
{
glyphname = Euro;
lastChange = "2018-10-27 09:40:54 +0000";
layers = (
{
background = {
paths = (
{
closed = 1;
nodes = (
"313 70 OFFCURVE",
"229 86 OFFCURVE",
"229 187 CURVE",
"229 255 LINE",
"418 255 LINE",
"418 329 LINE",
"229 329 LINE",
"229 400 LINE",
"418 400 LINE",
"418 474 LINE",
"229 474 LINE",
"229 536 LINE",
"229 636 OFFCURVE",
"313 650 OFFCURVE",
"353 650 CURVE SMOOTH",
"391 650 OFFCURVE",
"472 638 OFFCURVE",
"477 547 CURVE",
"558 547 LINE",
"551 614 OFFCURVE",
"500 729 OFFCURVE",
"353 729 CURVE SMOOTH",
"188 729 OFFCURVE",
"148 601 OFFCURVE",
"148 538 CURVE",
"148 474 LINE",
"66 474 LINE",
"66 400 LINE",
"148 400 LINE",
"148 329 LINE",
"66 329 LINE",
"66 255 LINE",
"148 255 LINE",
"148 187 LINE",
"148 122 OFFCURVE",
"193 -9 OFFCURVE",
"352 -9 CURVE SMOOTH",
"507 -9 OFFCURVE",
"553 108 OFFCURVE",
"557 175 CURVE",
"477 175 LINE",
"472 84 OFFCURVE",
"391 70 OFFCURVE",
"353 70 CURVE SMOOTH"
);
},
{
closed = 1;
nodes = (
"558 186 LINE",
"558 183 OFFCURVE",
"557 179 OFFCURVE",
"557 175 CURVE",
"569 175 LINE"
);
}
);
};
hints = (
{
place = "{148, 81}";
type = Stem;
},
{
place = "{477, 79}";
type = Stem;
},
{
horizontal = 1;
place = "{-9, 78}";
type = Stem;
},
{
horizontal = 1;
place = "{255, 74}";
type = Stem;
},
{
horizontal = 1;
place = "{400, 74}";
type = Stem;
},
{
horizontal = 1;
place = "{649, 80}";
type = Stem;
}
);
layerId = UUID0;
paths = (
{
closed = 1;
nodes = (
"313 70 OFFCURVE",
"229 86 OFFCURVE",
"229 187 CURVE",
"229 255 LINE",
"418 255 LINE",
"418 329 LINE",
"229 329 LINE",
"229 400 LINE",
"418 400 LINE",
"418 474 LINE",
"229 474 LINE",
"229 536 LINE",
"229 636 OFFCURVE",
"313 650 OFFCURVE",
"353 650 CURVE SMOOTH",
"391 650 OFFCURVE",
"472 638 OFFCURVE",
"477 547 CURVE",
"558 547 LINE",
"551 614 OFFCURVE",
"500 729 OFFCURVE",
"353 729 CURVE SMOOTH",
"188 729 OFFCURVE",
"148 601 OFFCURVE",
"148 538 CURVE",
"148 474 LINE",
"66 474 LINE",
"66 400 LINE",
"148 400 LINE",
"148 329 LINE",
"66 329 LINE",
"66 255 LINE",
"148 255 LINE",
"148 187 LINE",
"148 122 OFFCURVE",
"193 -9 OFFCURVE",
"352 -9 CURVE SMOOTH",
"507 -9 OFFCURVE",
"553 108 OFFCURVE",
"557 175 CURVE",
"477 175 LINE",
"472 84 OFFCURVE",
"391 70 OFFCURVE",
"353 70 CURVE SMOOTH"
);
},
{
closed = 1;
nodes = (
"558 186 LINE",
"558 183 OFFCURVE",
"557 179 OFFCURVE",
"557 175 CURVE",
"569 175 LINE"
);
}
);
width = 600;
}
);
unicode = 20AC;
},
{
glyphname = guilsinglleft;
lastChange = "2018-10-27 09:40:54 +0000";
layers = (
{
background = {
paths = (
{
closed = 1;
nodes = (
"383 64 LINE",
"383 164 LINE",
"283 264 LINE",
"383 366 LINE",
"383 467 LINE",
"182 264 LINE"
);
}
);
};
hints = (
{
horizontal = 1;
place = "{89, 21}";
target = up;
type = BottomGhost;
},
{
horizontal = 1;
place = "{445, -20}";
target = down;
type = TopGhost;
}
);
layerId = UUID0;
paths = (
{
closed = 1;
nodes = (
"383 64 LINE",
"383 164 LINE",
"283 264 LINE",
"383 366 LINE",
"383 467 LINE",
"182 264 LINE"
);
}
);
width = 550;
}
);
unicode = 2039;
},
{
glyphname = guilsinglright;
lastChange = "2018-10-27 09:40:54 +0000";
layers = (
{
background = {
paths = (
{
closed = 1;
nodes = (
"379 264 LINE",
"308 335 OFFCURVE",
"251 395 OFFCURVE",
"179 467 CURVE",
"179 366 LINE",
"280 264 LINE",
"179 164 LINE",
"179 64 LINE"
);
}
);
};
hints = (
{
horizontal = 1;
place = "{482, -20}";
target = down;
type = TopGhost;
},
{
horizontal = 1;
place = "{50, 21}";
target = up;
type = BottomGhost;
}
);
layerId = UUID0;
paths = (
{
closed = 1;
nodes = (
"379 264 LINE",
"308 335 OFFCURVE",
"251 395 OFFCURVE",
"179 467 CURVE",
"179 366 LINE",
"280 264 LINE",
"179 164 LINE",
"179 64 LINE"
);
}
);
width = 550;
}
);
unicode = 203A;
},
{
glyphname = fi;
lastChange = "2018-10-27 09:40:54 +0000";
layers = (
{
background = {
paths = (
{
closed = 1;
nodes = (
"553 0 LINE",
"553 528 LINE",
"218 528 LINE",
"218 586 LINE",
"218 634 OFFCURVE",
"246 647 OFFCURVE",
"271 647 CURVE",
"329 647 LINE",
"329 724 LINE",
"281 724 LINE",
"183 724 OFFCURVE",
"139 665 OFFCURVE",
"139 574 CURVE",
"139 528 LINE",
"49 528 LINE",
"49 450 LINE",
"139 450 LINE",
"139 0 LINE",
"218 0 LINE",
"218 450 LINE",
"474 450 LINE",
"474 0 LINE"
);
},
{
closed = 1;
nodes = (
"560 618 LINE",
"560 729 LINE",
"466 729 LINE",
"466 618 LINE"
);
}
);
};
hints = (
{
place = "{139, 80}";
type = Stem;
},
{
place = "{474, 79}";
type = Stem;
},
{
horizontal = 1;
place = "{450, 78}";
type = Stem;
},
{
horizontal = 1;
place = "{1, 21}";
target = up;
type = BottomGhost;
},
{
horizontal = 1;
place = "{642, 82}";
type = Stem;
}
);
layerId = UUID0;
paths = (
{
closed = 1;
nodes = (
"553 0 LINE",
"553 528 LINE",
"218 528 LINE",
"218 586 LINE",
"218 634 OFFCURVE",
"246 647 OFFCURVE",
"271 647 CURVE",
"329 647 LINE",
"329 724 LINE",
"281 724 LINE",
"183 724 OFFCURVE",
"139 665 OFFCURVE",
"139 574 CURVE",
"139 528 LINE",
"49 528 LINE",
"49 450 LINE",
"139 450 LINE",
"139 0 LINE",
"218 0 LINE",
"218 450 LINE",
"474 450 LINE",
"474 0 LINE"
);
},
{
closed = 1;
nodes = (
"560 618 LINE",
"560 729 LINE",
"466 729 LINE",
"466 618 LINE"
);
}
);
width = 600;
}
);
unicode = FB01;
},
{
glyphname = fl;
lastChange = "2018-10-27 09:40:54 +0000";
layers = (
{
background = {
paths = (
{
closed = 1;
nodes = (
"461 0 LINE",
"540 0 LINE",
"540 724 LINE",
"461 724 LINE",
"461 528 LINE",
"214 528 LINE",
"214 586 LINE",
"214 634 OFFCURVE",
"245 647 OFFCURVE",
"269 647 CURVE",
"326 647 LINE",
"326 724 LINE",
"277 724 LINE",
"181 724 OFFCURVE",
"135 666 OFFCURVE",
"135 575 CURVE",
"135 528 LINE",
"45 528 LINE",
"45 450 LINE",
"135 450 LINE",
"135 0 LINE",
"214 0 LINE",
"214 450 LINE",
"461 450 LINE"
);
}
);
};
hints = (
{
place = "{135, 79}";
type = Stem;
},
{
place = "{461, 79}";
type = Stem;
},
{
horizontal = 1;
place = "{0, 77}";
type = Stem;
},
{
horizontal = 1;
place = "{450, 78}";
type = Stem;
},
{
horizontal = 1;
place = "{647, 77}";
type = Stem;
}
);
layerId = UUID0;
paths = (
{
closed = 1;
nodes = (
"461 0 LINE",
"540 0 LINE",
"540 724 LINE",
"461 724 LINE",
"461 528 LINE",
"214 528 LINE",
"214 586 LINE",
"214 634 OFFCURVE",
"245 647 OFFCURVE",
"269 647 CURVE",
"326 647 LINE",
"326 724 LINE",
"277 724 LINE",
"181 724 OFFCURVE",
"135 666 OFFCURVE",
"135 575 CURVE",
"135 528 LINE",
"45 528 LINE",
"45 450 LINE",
"135 450 LINE",
"135 0 LINE",
"214 0 LINE",
"214 450 LINE",
"461 450 LINE"
);
}
);
width = 600;
}
);
unicode = FB02;
},
{
glyphname = daggerdbl;
lastChange = "2018-10-27 09:40:54 +0000";
layers = (
{
background = {
paths = (
{
closed = 1;
nodes = (
"345 -55 LINE",
"345 191 LINE",
"460 191 LINE",
"460 268 LINE",
"345 268 LINE",
"345 459 LINE",
"460 459 LINE",
"460 536 LINE",
"345 536 LINE",
"345 782 LINE",
"266 782 LINE",
"266 536 LINE",
"153 536 LINE",
"153 459 LINE",
"266 459 LINE",
"266 268 LINE",
"153 268 LINE",
"153 191 LINE",
"266 191 LINE",
"266 -55 LINE"
);
}
);
};
hints = (
{
place = "{266, 79}";
type = Stem;
},
{
horizontal = 1;
place = "{191, 77}";
type = Stem;
},
{
horizontal = 1;
place = "{459, 77}";
type = Stem;
},
{
horizontal = 1;
place = "{-54, 21}";
target = up;
type = BottomGhost;
},
{
horizontal = 1;
place = "{782, -20}";
target = down;
type = TopGhost;
}
);
layerId = UUID0;
paths = (
{
closed = 1;
nodes = (
"345 -55 LINE",
"345 191 LINE",
"460 191 LINE",
"460 268 LINE",
"345 268 LINE",
"345 459 LINE",
"460 459 LINE",
"460 536 LINE",
"345 536 LINE",
"345 782 LINE",
"266 782 LINE",
"266 536 LINE",
"153 536 LINE",
"153 459 LINE",
"266 459 LINE",
"266 268 LINE",
"153 268 LINE",
"153 191 LINE",
"266 191 LINE",
"266 -55 LINE"
);
}
);
width = 600;
}
);
unicode = 2021;
},
{
glyphname = periodcentered;
lastChange = "2018-10-27 09:40:54 +0000";
layers = (
{
background = {
paths = (
{
closed = 1;
nodes = (
"361 212 LINE",
"361 322 LINE",
"252 322 LINE",
"252 212 LINE"
);
}
);
};
hints = (
{
place = "{252, 109}";
type = Stem;
},
{
horizontal = 1;
place = "{212, 110}";
type = Stem;
}
);
layerId = UUID0;
paths = (
{
closed = 1;
nodes = (
"361 212 LINE",
"361 322 LINE",
"252 322 LINE",
"252 212 LINE"
);
}
);
width = 600;
}
);
unicode = 00B7;
},
{
glyphname = quotesinglbase;
lastChange = "2018-10-27 09:40:54 +0000";
layers = (
{
background = {
paths = (
{
closed = 1;
nodes = (
"166 -120 LINE",
"200 -49 OFFCURVE",
"230 13 OFFCURVE",
"265 84 CURVE",
"177 84 LINE",
"97 -120 LINE"
);
}
);
};
hints = (
{
horizontal = 1;
place = "{84, -20}";
target = down;
type = TopGhost;
},
{
horizontal = 1;
place = "{-118, 21}";
target = up;
type = BottomGhost;
}
);
layerId = UUID0;
paths = (
{
closed = 1;
nodes = (
"166 -120 LINE",
"265 84 LINE",
"177 84 LINE",
"97 -120 LINE"
);
}
);
width = 350;
}
);
unicode = 201A;
},
{
glyphname = quotedblbase;
lastChange = "2018-10-27 09:40:54 +0000";
layers = (
{
background = {
paths = (
{
closed = 1;
nodes = (
"337 -120 LINE",
"371 -49 OFFCURVE",
"401 13 OFFCURVE",
"435 84 CURVE",
"348 84 LINE",
"268 -120 LINE"
);
},
{
closed = 1;
nodes = (
"142 -120 LINE",
"175 -49 OFFCURVE",
"205 13 OFFCURVE",
"240 84 CURVE",
"152 84 LINE",
"73 -120 LINE"
);
}
);
};
hints = (
{
horizontal = 1;
place = "{-119, 203}";
type = Stem;
}
);
layerId = UUID0;
paths = (
{
closed = 1;
nodes = (
"337 -120 LINE",
"435 84 LINE",
"348 84 LINE",
"268 -120 LINE"
);
},
{
closed = 1;
nodes = (
"142 -120 LINE",
"175 -49 OFFCURVE",
"205 13 OFFCURVE",
"240 84 CURVE",
"152 84 LINE",
"73 -120 LINE"
);
}
);
width = 500;
}
);
unicode = 201E;
},
